<?xml version="1.0" standalone="no"?>
<!DOCTYPE svg PUBLIC "-//W3C//DTD SVG 1.1//EN" "http://www.w3.org/Graphics/SVG/1.1/DTD/svg11.dtd" >
<svg xmlns="http://www.w3.org/2000/svg">
<metadata></metadata>
<defs>
<font id="interval_sans_prosemibold" horiz-adv-x="564" >
<font-face units-per-em="1000" ascent="750" descent="-250" />
<missing-glyph horiz-adv-x="278" />
<glyph unicode="ff" horiz-adv-x="582" d="M10 484h57v42q0 46 13 78.5t29 47.5t40.5 23.5t36.5 9t29 0.5h3h2q42 0 91 -26l-14 -74q-40 15 -63 15q-39 0 -39 -57v-59h163v42q0 46 13 78.5t29 47.5t40.5 23.5t36.5 9t29 0.5h5q42 0 91 -26l-14 -74q-40 15 -63 15q-39 0 -39 -57v-59h90v-85h-90v-399h-129l1 399 h-163v-399h-129l1 399h-57v85z" />
<glyph unicode="fi" horiz-adv-x="540" d="M351 0v399h-156v-399h-129l1 399h-57v85h57v42q0 46 13 78.5t29 47.5t40.5 23.5t36.5 9t29 0.5h3h2q42 0 91 -26l-14 -74q-40 15 -63 15q-39 0 -39 -57v-59h285v-484h-129z" />
<glyph unicode="fl" horiz-adv-x="540" d="M351 0v589h-117q-39 0 -39 -57v-48h90v-85h-90v-399h-129l1 399h-57v85h57v31q0 45 14 77.5t31.5 47.5t43 23.5t38 9.5t26.5 1h260v-674h-129z" />
<glyph unicode="ffi" horiz-adv-x="831" d="M10 484h57v42q0 46 13 78.5t29 47.5t40.5 23.5t36.5 9t29 0.5h3h2q42 0 91 -26l-14 -74q-40 15 -63 15q-39 0 -39 -57v-59h163v42q0 46 13 78.5t29 47.5t40.5 23.5t36.5 9t29 0.5h5q42 0 91 -26l-14 -74q-40 15 -63 15q-39 0 -39 -57v-59h285v-484h-129v399h-156v-399 h-128v399h-163v-399h-129l1 399h-57v85z" />
<glyph unicode="fll" horiz-adv-x="831" d="M642 0v600h-117q-39 0 -39 -57v-59h90v-85h-90v-399h-128v399h-163v-399h-129l1 399h-57v85h57v42q0 46 13 78.5t29 47.5t40.5 23.5t36.5 9t29 0.5h3h2q42 0 91 -26l-14 -74q-40 15 -63 15q-39 0 -39 -57v-59h163v42q0 45 14 77.5t31.5 47.5t43 23.5t38 9.5t26.5 1h260 v-685h-129z" />
<glyph unicode="ffj" horiz-adv-x="839" d="M10 484h57v42q0 46 13 78.5t29 47.5t40.5 23.5t36.5 9t29 0.5h3h2q42 0 91 -26l-14 -74q-40 15 -63 15q-39 0 -39 -57v-59h163v42q0 46 13 78.5t29 47.5t40.5 23.5t36.5 9t29 0.5h5q42 0 91 -26l-14 -74q-40 15 -63 15q-39 0 -39 -57v-59h293l-1 -517q0 -46 -13 -78.5 t-29.5 -48t-41 -23.5t-37.5 -8.5t-29 -0.5q-46 0 -96 26l13 75q45 -17 70 -17q35 0 35 79v428h-164v-399h-128v399h-163v-399h-129l1 399h-57v85z" />
<glyph unicode="fj" horiz-adv-x="548" d="M488 484l-1 -517q0 -46 -13 -78.5t-29.5 -48t-41 -23.5t-37.5 -8.5t-29 -0.5q-46 0 -96 26l13 75q45 -17 70 -17q35 0 35 79v428h-164v-399h-128v399h-57v85h57v42q0 46 13 78.5t29 47.5t40.5 23.5t36.5 9t29 0.5h3h2q42 0 91 -26l-14 -74q-40 15 -63 15q-39 0 -39 -57 v-59h293z" />
<glyph unicode="fb" horiz-adv-x="856" d="M479 685v-256q19 37 52.5 52.5t65.5 15.5q99 0 161.5 -65.5t62.5 -189.5q0 -125 -58 -190t-153 -65q-12 0 -32.5 3.5t-53 20t-46.5 44.5v-55h-127v600h-117q-39 0 -39 -57v-59h90v-85h-90v-399h-128v399h-57v85h57v42q0 45 14 77.5t31.5 47.5t43 23.5t38 9.5t26.5 1h259z M570 401q-13 0 -32.5 -7.5t-39 -30t-19.5 -54.5v-137q0 -88 108 -88q53 0 77 45.5t24 112.5q0 159 -118 159z" />
<glyph unicode="ffb" horiz-adv-x="1147" d="M10 484h57v42q0 46 13 78.5t29 47.5t40.5 23.5t36.5 9t29 0.5h3h2q42 0 91 -26l-14 -74q-40 15 -63 15q-39 0 -39 -57v-59h163v42q0 45 14 77.5t31.5 47.5t43 23.5t38 9.5t26.5 1h259v-256q19 37 52.5 52.5t65.5 15.5q99 0 161.5 -65.5t62.5 -189.5q0 -125 -58 -190 t-153 -65q-12 0 -32.5 3.5t-53 20t-46.5 44.5v-55h-127v600h-117q-39 0 -39 -57v-59h90v-85h-90v-399h-128v399h-163v-399h-128v399h-57v85zM861 401q-13 0 -32.5 -7.5t-39 -30t-19.5 -54.5v-137q0 -88 108 -88q53 0 77 45.5t24 112.5q0 159 -118 159z" />
<glyph unicode="fh" horiz-adv-x="855" d="M795 283v-283h-129v283q0 117 -78 117q-14 0 -29.5 -4t-35 -15t-32 -35.5t-12.5 -59.5v-286h-128v600h-117q-39 0 -39 -57v-59h90v-85h-90v-399h-128v399h-57v85h57v42q0 45 14 77.5t31.5 47.5t43 23.5t38 9.5t26.5 1h259v-256q23 37 61.5 52.5t71.5 15.5q183 0 183 -214 z" />
<glyph unicode="ffh" horiz-adv-x="1146" d="M10 484h57v42q0 46 13 78.5t29 47.5t40.5 23.5t36.5 9t29 0.5h3h2q42 0 91 -26l-14 -74q-40 15 -63 15q-39 0 -39 -57v-59h163v42q0 45 14 77.5t31.5 47.5t43 23.5t38 9.5t26.5 1h259v-256q23 37 61.5 52.5t71.5 15.5q183 0 183 -214v-283h-129v283q0 117 -78 117 q-14 0 -29.5 -4t-35 -15t-32 -35.5t-12.5 -59.5v-286h-128v600h-117q-39 0 -39 -57v-59h90v-85h-90v-399h-128v399h-163v-399h-128v399h-57v85z" />
<glyph unicode="fk" horiz-adv-x="816" d="M596 299l210 -299h-144l-150 226l-28 -26v-200h-128v600h-122q-39 0 -39 -57v-59h90v-85h-90v-399h-128v399h-57v85h57v42q0 45 14 77.5t31.5 47.5t43 23.5t38 9.5t26.5 1h264v-349l143 148h155z" />
<glyph unicode="ffk" horiz-adv-x="1107" d="M887 299l210 -299h-144l-150 226l-28 -26v-200h-128v600h-122q-39 0 -39 -57v-59h90v-85h-90v-399h-128v399h-163v-399h-128v399h-57v85h57v42q0 46 13 78.5t29 47.5t40.5 23.5t36.5 9t29 0.5h3h2q42 0 91 -26l-14 -74q-40 15 -63 15q-39 0 -39 -57v-59h163v42 q0 46 13 78.5t29 47.5t40.5 23.5t36.5 9t29 0.5h5h264v-349l143 148h155z" />
<glyph unicode="ft" horiz-adv-x="644" d="M379 399h-184v-399h-128v399h-57v85h57v42q0 46 13 78.5t29 47.5t40.5 23.5t36.5 9t29 0.5h3h2q42 0 91 -26l-14 -74q-40 15 -63 15q-39 0 -39 -57v-59h184v116h127v-116h106v-85h-106v-250q0 -65 44 -65q19 0 64 14l10 -86q-47 -24 -92 -24q-18 0 -31 0.5t-38 8.5 t-41.5 23.5t-29.5 48t-13 78.5v252z" />
<glyph unicode="fft" horiz-adv-x="935" d="M670 399h-184v-399h-128v399h-163v-399h-128v399h-57v85h57v42q0 46 13 78.5t29 47.5t40.5 23.5t36.5 9t29 0.5h3h2q42 0 91 -26l-14 -74q-40 15 -63 15q-39 0 -39 -57v-59h163v42q0 46 13 78.5t29 47.5t40.5 23.5t36.5 9t29 0.5h5q42 0 91 -26l-14 -74q-40 15 -63 15 q-39 0 -39 -57v-59h184v116h127v-116h106v-85h-106v-250q0 -65 44 -65q19 0 64 14l10 -86q-47 -24 -92 -24q-18 0 -31 0.5t-38 8.5t-41.5 23.5t-29.5 48t-13 78.5v252z" />
<glyph unicode="th" horiz-adv-x="917" d="M215 484h198v190h128v-245q23 37 61.5 52.5t71.5 15.5q183 0 183 -214v-283h-129v283q0 117 -78 117q-14 0 -29.5 -4t-35 -15t-32 -35.5t-12.5 -59.5v-286h-128v399h-198v-250q0 -65 44 -65q19 0 64 14l10 -86q-47 -24 -92 -24q-18 0 -31 0.5t-38 8.5t-41.5 23.5 t-29.5 48t-13 78.5v252h-76v85h76v116h127v-116z" />
<glyph unicode=" "  horiz-adv-x="278" />
<glyph unicode="&#x09;" horiz-adv-x="278" />
<glyph unicode="&#xa0;" horiz-adv-x="278" />
<glyph unicode="!" horiz-adv-x="269" d="M82 170l-8 504h121l-8 -504h-105zM70 0v106h129v-106h-129z" />
<glyph unicode="&#x22;" horiz-adv-x="392" d="M60 378l-10 296h117l-9 -296h-98zM235 378l-10 296h117l-9 -296h-98z" />
<glyph unicode="#" horiz-adv-x="623" d="M260 664h121l-60 -186h76l59 186h119l-60 -186h68v-86h-97l-37 -120h77l-1 -88h-105l-60 -184h-115l59 184h-76l-61 -184h-119l58 184h-66v88h94l36 120h-78l1 86h107zM292 392l-37 -120h77l37 120h-77z" />
<glyph unicode="$" horiz-adv-x="590" d="M418 665q60 -21 113 -62l-46 -90q-92 71 -199 71q-42 0 -70.5 -20.5t-33.5 -50.5q-7 -55 75 -87l171 -67q132 -50 132 -168q0 -87 -62 -139.5t-154 -60.5v-89h-99v91q-45 5 -78 18q-91 34 -137 77l54 90q43 -38 106 -61.5t122 -23.5q84 0 113 62q12 31 -3.5 58t-49.5 43 l-186 72q-72 28 -105.5 73t-33.5 93q0 77 57 126t141 61v85h99v-85q30 -4 74 -16z" />
<glyph unicode="%" horiz-adv-x="834" d="M40 492q0 -81 45 -127t122 -46q78 0 123.5 46t45.5 127t-45.5 126.5t-123.5 45.5t-122.5 -45.5t-44.5 -126.5zM269 492q0 -38 -15.5 -63.5t-46.5 -25.5q-30 0 -45 25t-15 64t15 64t45 25q31 0 46.5 -25t15.5 -64zM458 162q0 -81 45 -127t122 -46q78 0 123.5 46t45.5 127 t-45.5 126.5t-123.5 45.5t-122.5 -45.5t-44.5 -126.5zM687 162q0 -38 -15.5 -63.5t-46.5 -25.5q-30 0 -45 25t-15 64t15 64t45 25q31 0 46.5 -25t15.5 -64zM184 0l393 674h76l-392 -674h-77z" />
<glyph unicode="&#x26;" horiz-adv-x="641" d="M165 190q0 -51 30.5 -82.5t85.5 -31.5q77 0 117 74l-143 148q-37 -12 -63.5 -40t-26.5 -68zM347 518q-3 30 -19 50.5t-47 21.5q-31 -1 -48 -22t-19 -50q-2 -34 17 -68t48 -42q33 13 51.5 44.5t16.5 65.5zM362 346l81 -85q5 42 5 49v36h107q6 -105 -24 -172q25 -25 36 -38 t26.5 -35.5t21 -46.5t5.5 -54h-115q-3 57 -25 84q-23 -41 -75 -68t-124 -27q-118 0 -179.5 55.5t-61.5 138.5q0 63 35 109t95 72q-79 61 -75 157q5 72 60 112t126 40q70 0 124.5 -40t59.5 -111q3 -45 -20.5 -93t-82.5 -83z" />
<glyph unicode="'" horiz-adv-x="217" d="M60 378l-10 296h117l-9 -296h-98z" />
<glyph unicode="(" horiz-adv-x="397" d="M60 241q1 200 76.5 316.5t200.5 116.5v-82q-67 -1 -114 -89t-47 -264q0 -173 47 -260.5t114 -88.5v-82q-125 0 -200.5 116.5t-76.5 316.5z" />
<glyph unicode=")" horiz-adv-x="397" d="M337 241q-1 -200 -76.5 -316.5t-200.5 -116.5v82q67 1 114 88.5t47 260.5q0 176 -47 264t-114 89v82q125 0 200.5 -116.5t76.5 -316.5z" />
<glyph unicode="*" horiz-adv-x="421" d="M252 582l79 50l50 -81l-95 -45l95 -43l-50 -82l-79 49l4 -91h-90l5 93l-82 -51l-49 82l94 43q-85 40 -94 44l49 82l82 -51q-1 17 -3 49.5t-2 43.5h90z" />
<glyph unicode="+" horiz-adv-x="582" d="M40 370h196v193h110v-193h196v-99h-196v-192h-110v192h-196v99z" />
<glyph unicode="," horiz-adv-x="311" d="M40 -78l95 195h136l-125 -195h-106z" />
<glyph unicode="-" horiz-adv-x="441" d="M401 203h-361v115h361v-115z" />
<glyph unicode="." horiz-adv-x="237" d="M50 0v117h137v-117h-137z" />
<glyph unicode="/" horiz-adv-x="384" d="M354 674l-233 -674h-91l232 674h92z" />
<glyph unicode="0" horiz-adv-x="590" d="M292 -13q-116 0 -183 91.5t-67 248.5t67 245.5t183 88.5q120 0 188 -88t68 -246t-68 -249t-188 -91zM292 565q-60 0 -94.5 -70.5t-34.5 -167.5q0 -100 34.5 -172t94.5 -72q63 0 98.5 71.5t35.5 172.5q0 98 -35.5 168t-98.5 70z" />
<glyph unicode="1" horiz-adv-x="590" d="M167 434l-55 71l163 145h106v-650h-121v512z" />
<glyph unicode="2" horiz-adv-x="590" d="M294 548q-79 0 -155 -95l-67 83q57 61 103 86q59 33 124 33q97 0 164 -55.5t67 -145.5q0 -28 -12 -54.5t-28 -46t-45 -42t-50 -36t-56 -34.5q-13 -8 -20 -12q-53 -32 -93 -67t-43 -59h335v-103h-459v64q0 36 12.5 68t28 54t46 47.5t51.5 39t59 37.5q78 49 103 70 q50 45 50 79q0 39 -31 64t-84 25z" />
<glyph unicode="3" horiz-adv-x="590" d="M296 -13q-59 0 -109.5 18t-72.5 35t-49 43l51 81q82 -79 176 -79q50 0 77 28t27 68q0 41 -28.5 71t-80.5 30h-75v102h71q51 0 78 25.5t27 61.5q0 38 -27 66t-73 28q-47 0 -86.5 -25t-64.5 -55l-53 79q74 97 209 97q95 1 158 -49t63 -139q0 -42 -27 -83.5t-80 -52.5 q40 -6 68 -36t39 -61t11 -57q0 -88 -68 -142.5t-161 -53.5z" />
<glyph unicode="4" horiz-adv-x="590" d="M458 0h-124v132q-47 0 -148 -0.5t-147 -0.5v91q54 117 121 211t177 217h121v-426h92v-93h-92v-131zM153 224h181v271q-56 -57 -109.5 -138.5t-71.5 -132.5z" />
<glyph unicode="5" horiz-adv-x="590" d="M416 215q0 55 -34 86t-85 31q-81 0 -112 -60h-101l46 369h358v-109h-261l-19 -140q23 21 57.5 31.5t54.5 10.5q95 0 153 -60.5t58 -161.5q0 -103 -73 -164t-183 -61q-138 0 -219 118l70 74q65 -88 143 -88q77 0 112 38t35 86z" />
<glyph unicode="6" horiz-adv-x="590" d="M490 616l-36 -80q-53 32 -112 32q-133 0 -158 -189q50 52 125 52q97 0 160 -60.5t63 -160.5q0 -103 -65 -162.5t-168 -59.5q-61 0 -106.5 21.5t-70.5 53.5t-40.5 77t-20 82.5t-4.5 79.5q0 174 74.5 266.5t196.5 92.5q92 0 162 -45zM297 81q53 0 80.5 40.5t27.5 88.5 t-28 89.5t-81 41.5q-48 0 -75.5 -36.5t-27.5 -88.5q0 -58 28.5 -96.5t75.5 -38.5z" />
<glyph unicode="7" horiz-adv-x="590" d="M59 546v104h471v-86q-103 -130 -169 -264t-119 -300h-141q65 171 136 303t170 243h-348z" />
<glyph unicode="8" horiz-adv-x="590" d="M295 -13q-118 0 -179.5 55t-61.5 136q0 21 6 43.5t20 48t42.5 44.5t68.5 26q-58 15 -87 58t-29 91q0 73 50 114.5t120 53.5q30 4 50 4q39 0 51 -4h-1q70 -12 120 -53.5t50 -114.5q0 -48 -29 -91t-87 -58q40 -7 68.5 -26t42.5 -44.5t20 -48t6 -43.5q0 -81 -61.5 -136 t-179.5 -55zM295 81q53 0 85.5 31t32.5 72q0 44 -31.5 79t-86.5 36q-55 -1 -85 -36t-30 -79q0 -41 31 -72t84 -31zM295 389q48 0 75 24t28 66q0 35 -28 65t-75 30q-46 0 -74.5 -29.5t-28.5 -63.5q1 -43 28.5 -67.5t74.5 -24.5z" />
<glyph unicode="9" horiz-adv-x="590" d="M99 33l36 80q53 -32 112 -32q133 0 158 189q-50 -52 -125 -52q-97 0 -160 60.5t-63 160.5q0 103 65 162.5t168 59.5q61 0 106.5 -21.5t70.5 -53.5t40.5 -77t20 -82.5t4.5 -79.5q0 -174 -74.5 -266.5t-196.5 -92.5q-92 0 -162 45zM292 568q-53 0 -80.5 -40.5t-27.5 -88.5 t28 -89.5t81 -41.5q48 0 75.5 36.5t27.5 88.5q0 58 -28 96.5t-76 38.5z" />
<glyph unicode=":" horiz-adv-x="237" d="M50 0v117h137v-117h-137zM50 367v117h137v-117h-137z" />
<glyph unicode=";" horiz-adv-x="331" d="M134 367v117h136v-117h-136zM50 -78l95 195h136l-125 -195h-106z" />
<glyph unicode="&#x3c;" horiz-adv-x="596" d="M30 210v62l506 224v-120l-323 -135l323 -135v-120z" />
<glyph unicode="=" horiz-adv-x="515" d="M475 374h-435v89h435v-89zM475 191h-435v90h435v-90z" />
<glyph unicode="&#x3e;" horiz-adv-x="596" d="M566 272v-62l-506 -224v120l323 135l-323 135v120z" />
<glyph unicode="?" horiz-adv-x="555" d="M341 397q46 40 46 93q0 39 -28.5 64t-78.5 25q-51 0 -88.5 -29.5t-56.5 -62.5l-70 68q10 18 24.5 35.5t40.5 41t66.5 38t87.5 14.5q99 0 165 -51.5t66 -148.5q0 -87 -103 -174q-52 -42 -64 -60q-20 -29 -20 -80h-120q0 42 3.5 66t21.5 51t38 46t70 64zM205 0v106h129 v-106h-129z" />
<glyph unicode="@" horiz-adv-x="841" d="M720 87l28 -41q-53 -55 -138 -87t-170 -32q-172 0 -281 103.5t-109 273.5q0 168 110 273t271 105q74 0 135.5 -19t102.5 -50.5t69 -72t40.5 -83t12.5 -84.5q0 -73 -22 -130t-57.5 -89.5t-74 -48.5t-76.5 -16q-37 0 -57 22t-23 52q-65 -55 -114 -55q-149 0 -149 148 q0 94 59.5 160t128.5 66q70 0 93 -42l7 34h113l-53 -244q-7 -8 -1 -35t32 -27q11 0 28.5 11.5t37 34t33 63t13.5 90.5q0 62 -24 110t-64.5 76.5t-89 43t-100.5 14.5q-130 0 -213.5 -85t-83.5 -222q0 -140 82 -226.5t227 -86.5q136 0 277 96zM437 406q-44 0 -65.5 -30.5 t-33.5 -83.5q-4 -19 -4 -40q0 -69 42 -69q23 0 51 17t35 48l19 115q3 24 -13 33.5t-31 9.5z" />
<glyph unicode="A" horiz-adv-x="705" d="M148 0h-138l280 674h125l280 -674h-138l-62 152h-287zM353 545l-107 -292h212z" />
<glyph unicode="B" horiz-adv-x="632" d="M380 288h-184v-186h184q45 0 71 26.5t26 62.5q0 39 -26 68t-71 29zM574 489q0 -11 -2.5 -24.5t-10 -36t-27 -42.5t-47.5 -31q52 -10 86 -60t34 -105q0 -71 -53 -130.5t-149 -59.5h-340v674h308q101 0 151 -53.5t50 -131.5zM196 390h170q39 0 59 29t20 59q0 43 -23 68.5 t-69 25.5h-157v-182z" />
<glyph unicode="C" horiz-adv-x="628" d="M40 337q0 149 94 248.5t250 99.5q131 0 214 -43l-34 -89q-81 29 -159 29q-61 0 -107.5 -21.5t-72.5 -57.5t-39 -77.5t-13 -88.5t13 -89t39 -78.5t72.5 -58t107.5 -21.5q77 0 162 29l31 -89q-83 -43 -214 -43q-156 0 -250 100t-94 250z" />
<glyph unicode="D" horiz-adv-x="690" d="M316 0h-251v674h251q163 0 253.5 -85.5t90.5 -251.5t-90.5 -251.5t-253.5 -85.5zM195 102h125q93 0 152 58.5t59 176.5q0 121 -58 178t-156 57h-122v-470z" />
<glyph unicode="E" horiz-adv-x="587" d="M542 0h-477v674h470v-102h-339v-181h314v-102h-314v-187h346v-102z" />
<glyph unicode="F" horiz-adv-x="549" d="M197 -1l-132 1v674h449v-102h-317v-181h292v-102h-292v-290z" />
<glyph unicode="G" horiz-adv-x="702" d="M533 269h-135v104h258v-332q-41 -24 -114 -39t-131 -15q-168 0 -269.5 100.5t-101.5 249.5t101.5 248.5t269.5 99.5q133 0 230 -61l-46 -89q-73 48 -161 48q-67 0 -119 -21.5t-82 -57.5t-45 -78.5t-15 -88.5t15.5 -89t45 -78.5t78.5 -57.5t110 -22q49 0 111 18v161z" />
<glyph unicode="H" horiz-adv-x="683" d="M487 304h-291v-304h-131v674h131v-267h291v267h131v-674h-131v304z" />
<glyph unicode="I" horiz-adv-x="280" d="M75 0v674h130v-674h-130z" />
<glyph unicode="J" horiz-adv-x="450" d="M10 33l31 95q47 -24 74 -31q36 -9 63 -9q28 0 50 10q29 17 29 95v481h128v-487q0 -57 -16 -97.5t-45 -62t-62 -31t-73 -9.5t-81 9q-40 8 -98 37z" />
<glyph unicode="K" horiz-adv-x="625" d="M617 0h-157l-210 277l-54 -67v-210h-131v674h131v-299l227 299h150l-240 -304z" />
<glyph unicode="L" horiz-adv-x="554" d="M197 674v-571h317v-103h-449v674h132z" />
<glyph unicode="M" horiz-adv-x="875" d="M385 0l-178 476l-30 -476h-132l35 674h172l186 -492l185 492h173l34 -674h-131l-30 476l-180 -476h-104z" />
<glyph unicode="N" horiz-adv-x="689" d="M460 0l-265 512v-512h-130v674h173l256 -507v507h130v-674h-164z" />
<glyph unicode="O" horiz-adv-x="743" d="M371 -13q-153 0 -242 93.5t-89 256.5t88.5 255.5t242.5 92.5t243 -92.5t89 -255.5t-89 -256.5t-243 -93.5zM371 585q-94 0 -144.5 -71t-50.5 -177q0 -110 50.5 -180t144.5 -70q95 0 145.5 70t50.5 180q0 106 -51 177t-145 71z" />
<glyph unicode="P" horiz-adv-x="603" d="M381 250h-185v-250h-131v674h309q57 0 99.5 -20.5t65 -54.5t33.5 -70t11 -74q0 -12 -2 -29.5t-14 -50.5t-31.5 -59t-60 -46t-94.5 -20zM196 353h171q32 0 53 20.5t28 43t7 42.5q0 47 -27 80t-78 33h-154v-219z" />
<glyph unicode="Q" horiz-adv-x="733" d="M371 -13q-148 0 -239.5 94.5t-91.5 255.5q0 163 88.5 255.5t242.5 92.5t243 -92.5t89 -255.5q0 -99 -39 -176t-106 -123q48 -25 87 -25h50v-98h-47q-32 0 -58 4t-42 8t-33 14t-22.5 14t-19.5 17t-16 15h-86zM371 585q-94 0 -144.5 -71t-50.5 -177q0 -110 50 -179t145 -69 t145.5 69t50.5 179q0 106 -51 177t-145 71z" />
<glyph unicode="R" horiz-adv-x="634" d="M583 459q0 -10 -4 -26.5t-14 -43.5t-36.5 -53t-63.5 -41q49 -17 70 -74l81 -221h-137l-62 171q-16 46 -40 67t-61 21h-120v-259h-131v674h299q64 0 109.5 -20t68 -53.5t32 -68t9.5 -73.5zM196 361h171q47 0 67 31.5t20 65.5q0 48 -23.5 81t-72.5 33h-162v-211z" />
<glyph unicode="S" horiz-adv-x="590" d="M418 665q60 -21 113 -62l-46 -90q-92 71 -199 71q-42 0 -70.5 -20.5t-33.5 -50.5q-7 -55 75 -87l171 -67q132 -50 132 -168q0 -94 -73 -148t-176 -54q-87 0 -144 22q-91 34 -137 77l54 90q43 -38 106 -61.5t122 -23.5q84 0 113 62q12 31 -3.5 58t-49.5 43l-186 72 q-72 28 -105.5 73t-33.5 93q0 88 73.5 139.5t171.5 51.5q61 0 126 -20z" />
<glyph unicode="T" horiz-adv-x="566" d="M556 572h-208v-572h-130v572h-208v102h546v-102z" />
<glyph unicode="U" horiz-adv-x="708" d="M354 -13q-141 0 -215 72.5t-74 241.5v373h132v-375q0 -105 37 -153.5t120 -48.5t120.5 48.5t37.5 153.5v375h131v-373q0 -170 -73.5 -242t-215.5 -72z" />
<glyph unicode="V" horiz-adv-x="654" d="M10 674h133l184 -546l185 546h132l-254 -674h-125z" />
<glyph unicode="W" horiz-adv-x="953" d="M540 650l133 -474l134 498h136l-206 -674h-127l-133 464l-134 -464h-127l-206 674h135l135 -497l133 473h127z" />
<glyph unicode="X" horiz-adv-x="667" d="M505 0l-172 249l-172 -249h-151l252 333l-241 341h151l161 -258l162 258h151l-241 -341l252 -333h-152z" />
<glyph unicode="Y" horiz-adv-x="671" d="M403 0h-134v236l-259 438h151l175 -341l174 341h151l-258 -437v-237z" />
<glyph unicode="Z" horiz-adv-x="612" d="M565 0h-535v99l384 473h-368v102h536v-96l-390 -474h373v-104z" />
<glyph unicode="[" horiz-adv-x="328" d="M268 585h-89v-688h89v-89h-208v866h208v-89z" />
<glyph unicode="\" horiz-adv-x="384" d="M263 0l-233 674h92l232 -674h-91z" />
<glyph unicode="]" horiz-adv-x="328" d="M149 585h-89v89h208v-866h-208v89h89v688z" />
<glyph unicode="^" horiz-adv-x="477" d="M40 367l154 307h89l154 -307h-121l-78 185q-62 -146 -78 -185h-120z" />
<glyph unicode="_" horiz-adv-x="645" d="M40 -31h565v-93h-565v93z" />
<glyph unicode="`" horiz-adv-x="314" d="M181 698l93 -151h-108l-126 151h141z" />
<glyph unicode="a" horiz-adv-x="519" d="M464 0h-132v55q-21 -37 -66 -52.5t-81 -15.5q-34 0 -68 14t-60.5 48.5t-26.5 82.5q0 81 81 130.5t224 59.5v12q-1 40 -29 58.5t-68 15t-77 -13.5t-65 -24l-32 76q0 2 21.5 13.5t68 24t96.5 12.5h23.5t51 -7t65 -21.5t51.5 -48.5t23 -82v-337zM225 79q10 0 25.5 3.5t36 12 t34.5 28t14 45.5v70q-82 -7 -134 -34.5t-51 -67.5q1 -27 22 -42t53 -15z" />
<glyph unicode="b" horiz-adv-x="565" d="M188 674v-245q19 37 52.5 52.5t65.5 15.5q99 0 161.5 -65.5t62.5 -189.5q0 -125 -58 -190t-153 -65q-12 0 -32.5 3.5t-53 20t-46.5 44.5v-55h-127v674h128zM279 401q-13 0 -32.5 -7.5t-39 -30t-19.5 -54.5v-137q0 -88 108 -88q53 0 77 45.5t24 112.5q0 159 -118 159z" />
<glyph unicode="c" horiz-adv-x="478" d="M35 242q0 118 67.5 186.5t184.5 68.5q92 0 161 -36l-26 -88q-71 25 -118 25q-71 0 -107 -44.5t-36 -111.5t36 -112.5t107 -45.5q38 0 118 27l26 -88q-69 -36 -161 -36q-117 0 -184.5 68.5t-67.5 186.5z" />
<glyph unicode="d" horiz-adv-x="565" d="M377 429v245h128v-674h-127v55q-14 -28 -46.5 -44.5t-53 -20t-32.5 -3.5q-95 0 -153 65t-58 190q0 124 62.5 189.5t161.5 65.5q32 0 65.5 -15.5t52.5 -52.5zM286 401q-118 0 -118 -159q0 -67 24 -112.5t77 -45.5q108 0 108 88v144q0 27 -11 46t-28 26.5t-29 10t-23 2.5z " />
<glyph unicode="e" horiz-adv-x="549" d="M285 -12q-107 0 -178.5 69t-71.5 185q0 112 65 183.5t175 71.5t174.5 -66.5t64.5 -181.5l-3 -51h-350q9 -51 43 -82t89 -31q75 0 162 35l28 -85q-77 -47 -198 -47zM275 400q-43 0 -75 -33.5t-32 -77.5h221q0 51 -33.5 81t-80.5 30z" />
<glyph unicode="f" horiz-adv-x="291" d="M10 484h57v42q0 46 13 78.5t29 47.5t40.5 23.5t36.5 9t29 0.5h3h2q42 0 91 -26l-14 -74q-40 15 -63 15q-39 0 -39 -57v-59h90v-85h-90v-399h-128v399h-57v85z" />
<glyph unicode="g" horiz-adv-x="567" d="M287 84q15 0 33 4.5t38 22t20 46.5v155q0 88 -108 88q-53 0 -77 -45.5t-24 -112.5q0 -158 118 -158zM379 -16v71q-20 -34 -56 -51t-71 -17q-83 0 -150 67.5t-67 187.5q0 123 63 189t156 66q8 0 19 -1.5t32 -7t41 -21t33 -38.5v55h128v-514q0 -45 -19.5 -78t-53.5 -50.5 t-72 -25.5t-83 -8q-56 0 -110.5 14t-78.5 33l28 85q28 -16 69.5 -27.5t84.5 -14t74.5 19t32.5 66.5z" />
<glyph unicode="h" d="M504 283v-283h-129v283q0 117 -78 117q-14 0 -29.5 -4t-35 -15t-32 -35.5t-12.5 -59.5v-286h-128v674h128v-245q23 37 61.5 52.5t71.5 15.5q183 0 183 -214z" />
<glyph unicode="i" horiz-adv-x="249" d="M60 0v484h129v-484h-129zM60 558v116h129v-116h-129z" />
<glyph unicode="j" horiz-adv-x="257" d="M197 484l-1 -517q0 -46 -13 -78.5t-29.5 -48t-41 -23.5t-37.5 -8.5t-29 -0.5q-46 0 -96 26l13 75q45 -17 70 -17q35 0 35 79v513h129zM68 558v116h129v-116h-129z" />
<glyph unicode="k" horiz-adv-x="525" d="M305 299l210 -299h-144l-150 226l-28 -26v-200h-128v674h128v-338l143 148h155z" />
<glyph unicode="l" horiz-adv-x="249" d="M60 0v674h129v-674h-129z" />
<glyph unicode="m" horiz-adv-x="823" d="M349 0v297q0 103 -79 103q-32 0 -56.5 -29t-24.5 -97v-274h-129v484h123v-65q39 78 133 78q35 0 74.5 -18t59.5 -55q49 73 138 73q175 0 175 -199v-298h-128v282q0 59 -18 88.5t-60 29.5q-9 0 -19.5 -3t-26.5 -11.5t-26 -31t-10 -56.5v-298h-126z" />
<glyph unicode="n" d="M504 281v-281h-129v281q0 119 -78 119q-14 0 -29.5 -4.5t-35 -15.5t-32 -36t-12.5 -60v-284h-128v484h122v-74q29 53 66 70t91 17q165 0 165 -216z" />
<glyph unicode="o" horiz-adv-x="556" d="M35 242q0 118 65 186.5t177 68.5q113 0 178.5 -68.5t65.5 -186.5t-65.5 -186.5t-178.5 -68.5q-112 0 -177 68.5t-65 186.5zM394 242q0 64 -32 112t-85 48t-84 -47.5t-31 -112.5t31 -112.5t84 -47.5t85 48t32 112z" />
<glyph unicode="p" horiz-adv-x="565" d="M188 55v-247h-128v676h127v-55q41 68 140 68q91 0 147 -65t56 -189q0 -125 -59 -190.5t-154 -65.5q-35 0 -72.5 15.5t-56.5 52.5zM279 83q118 0 118 160q0 67 -24 112t-77 45q-108 0 -108 -87v-145q0 -43 33 -64t58 -21z" />
<glyph unicode="q" horiz-adv-x="565" d="M377 -192v247q-19 -37 -56.5 -52.5t-72.5 -15.5q-95 0 -154 65.5t-59 190.5q0 124 56 189t147 65q99 0 140 -68v55h127v-676h-128zM286 83q14 0 32.5 6t38.5 27t20 52v145q0 87 -108 87q-53 0 -77 -45t-24 -112q0 -160 118 -160z" />
<glyph unicode="r" horiz-adv-x="365" d="M353 492v-100h-54q-52 0 -79.5 -31t-27.5 -83v-278h-127v484h123v-78q35 86 127 86h38z" />
<glyph unicode="s" horiz-adv-x="476" d="M251 86q23 0 42 9.5t26 24.5q3 7 4 12.5t-0.5 10t-3 7.5t-4.5 5.5t-5 4t-5 2.5l-3 2q-1 0 -11 4q-50 19 -142 53q-106 44 -106 127q0 69 57 109t136 40q103 0 195 -62l-46 -86q-3 1 -15.5 8.5t-17 10t-17 8.5t-19 9t-18 7.5t-20 6.5t-18.5 3.5t-19 1.5q-28 0 -49 -14.5 t-23 -32.5q-1 -11 2 -18.5t15.5 -14.5t20.5 -10t35 -12q34 -11 101 -36q103 -44 103 -126q0 -35 -16 -65q-20 -41 -67.5 -63.5t-113.5 -22.5q-54 0 -110 17q-62 18 -109 61l52 85q78 -66 169 -66z" />
<glyph unicode="t" horiz-adv-x="353" d="M88 399h-76v85h76v116h127v-116h106v-85h-106v-250q0 -65 44 -65q19 0 64 14l10 -86q-47 -24 -92 -24q-18 0 -31 0.5t-38 8.5t-41.5 23.5t-29.5 48t-13 78.5v252z" />
<glyph unicode="u" d="M60 203v281h128v-281q0 -120 79 -120q11 0 24 3t34.5 11.5t35.5 31t14 56.5v299h129v-484h-123v55q-20 -30 -55 -46.5t-53 -19t-31 -2.5q-75 0 -128.5 52t-53.5 164z" />
<glyph unicode="v" horiz-adv-x="560" d="M344 0h-128l-206 484h135l135 -367l135 367h135z" />
<glyph unicode="w" horiz-adv-x="806" d="M10 484h135l96 -342l95 342h134l96 -341l96 341h134l-168 -484h-115l-110 343l-108 -343h-116z" />
<glyph unicode="x" horiz-adv-x="549" d="M381 484h145l-174 -239l187 -245h-145l-120 173l-119 -173h-145l186 245l-175 239h146l107 -168z" />
<glyph unicode="y" horiz-adv-x="560" d="M83 -174l15 95q3 -1 13 -6t15.5 -7t15.5 -4t17 0t15 8t14 17l33 81q-15 34 -37 84t-69.5 156t-104.5 234h135l138 -327q43 106 132 327h135l-252 -594q-14 -33 -43.5 -53t-51 -24.5t-41.5 -4.5q-30 0 -79 18z" />
<glyph unicode="z" horiz-adv-x="479" d="M25 0v83l270 305h-260v96h419v-83l-270 -305h261v-96h-420z" />
<glyph unicode="{" horiz-adv-x="376" d="M159 241q31 -10 59 -46t27 -82v-169q0 -51 41 -51h50v-85h-78q-44 0 -82.5 33.5t-38.5 83.5l1 175q0 51 -15.5 77.5t-62.5 31.5v64q47 5 62.5 31.5t15.5 77.5l-1 175q0 50 38.5 83.5t82.5 33.5h78v-85h-50q-41 0 -41 -51v-169q1 -45 -26 -79.5t-60 -48.5z" />
<glyph unicode="|" horiz-adv-x="219" d="M60 -88v840h99v-840h-99z" />
<glyph unicode="}" horiz-adv-x="376" d="M217 241q-33 14 -60 48.5t-26 79.5v169q0 51 -41 51h-50v85h78q44 0 82.5 -33.5t38.5 -83.5l-1 -175q0 -51 15.5 -77.5t62.5 -31.5v-64q-47 -5 -62.5 -31.5t-15.5 -77.5l1 -175q0 -50 -38.5 -83.5t-82.5 -33.5h-78v85h50q41 0 41 51v169q-1 46 27 82t59 46z" />
<glyph unicode="~" horiz-adv-x="504" d="M180 364q26 0 73 -19t68 -19q13 0 29.5 13t26.5 40h87q-10 -33 -14 -45.5t-13 -36t-18 -32.5t-23 -20.5t-33 -15.5t-44 -4q-26 0 -73 19.5t-66 19.5q-12 0 -29 -15t-27 -41h-84q12 48 20 69.5t23 45.5t38 32.5t59 8.5z" />
<glyph unicode="&#xa1;" horiz-adv-x="269" d="M74 -192l8 504h105l8 -504h-121zM70 378v106h129v-106h-129z" />
<glyph unicode="&#xa2;" horiz-adv-x="478" d="M249 495v77h84v-78q65 -8 115 -33l-26 -88q-71 25 -118 25q-71 0 -107 -44.5t-36 -111.5t36 -112.5t107 -45.5q38 0 118 27l26 -88q-46 -24 -115 -33v-86h-84v85q-101 11 -157.5 77.5t-56.5 175.5q0 108 56.5 175t157.5 78z" />
<glyph unicode="&#xa3;" horiz-adv-x="546" d="M249 330v-229h257v-101h-450v101h63v229h-79v90h79v28q0 105 53 160t126 66q6 3 52 3q89 0 153 -43l-34 -82q-55 33 -119 33q-50 0 -75.5 -37.5t-25.5 -99.5v-28h164v-90h-164z" />
<glyph unicode="&#xa4;" horiz-adv-x="540" d="M40 450l74 79l66 -66q44 19 86 19q41 0 87 -19l65 64l82 -84l-64 -63q20 -39 20 -79q0 -42 -25 -92l62 -60l-81 -78l-59 60q-45 -23 -88 -23q-44 0 -84 16l-67 -64l-74 82l57 58q-27 44 -27 94q0 55 30 95q-9 10 -30.5 31.5zM349 297q0 41 -27.5 64t-59.5 23 q-31 0 -57 -23.5t-26 -66.5t26 -65.5t57 -22.5q32 0 59.5 23.5t27.5 67.5z" />
<glyph unicode="&#xa5;" horiz-adv-x="592" d="M359 0h-125v108h-159v85h159v52h-159v85h130l-191 344h141l141 -295l142 295h140l-191 -344h128v-85h-156v-52h156v-85h-156v-108z" />
<glyph unicode="&#xa6;" horiz-adv-x="219" d="M60 363v393h99v-393h-99zM60 -110v386h99v-386h-99z" />
<glyph unicode="&#xa7;" horiz-adv-x="474" d="M240 80q42 0 59 35q9 32 -21 44l-98 40q-128 52 -128 141q0 30 16.5 60t43.5 49q-51 47 -42 121q8 51 55 83t118 32q47 0 92 -14q43 -17 85 -46l-43 -76q-64 40 -129 40q-26 0 -42.5 -11.5t-18.5 -28.5q-1 -20 10.5 -28.5t51.5 -22.5q1 0 2.5 -1t4 -2t8.5 -3t14 -5.5 t23.5 -9.5t35.5 -14q33 -15 55 -34q65 -63 26 -157q-14 -29 -41 -47q41 -38 41 -92q0 -70 -48 -108t-130 -38q-118 0 -200 76l47 76q70 -59 153 -59zM293 368l-90 35q-32 -22 -35.5 -46t15.5 -43t53 -32l43 -16q17 11 29 30t9.5 39.5t-24.5 32.5z" />
<glyph unicode="&#xa8;" horiz-adv-x="380" d="M40 564v116h123v-116h-123zM217 564v116h123v-116h-123z" />
<glyph unicode="&#xa9;" horiz-adv-x="790" d="M40 336q0 145 104 247t251 102t251 -102t104 -247t-104 -247t-251 -102t-251 102t-104 247zM201 334q0 -87 54.5 -144.5t144.5 -57.5q78 0 121 23l-18 50q-46 -16 -92 -16q-72 0 -104.5 41.5t-32.5 103.5q0 61 33 103t105 42q47 0 89 -17l20 51q-43 23 -121 23 q-90 0 -144.5 -57.5t-54.5 -144.5zM109 335q0 -118 84.5 -201t204.5 -83t204.5 83t84.5 201t-84.5 201t-204.5 83t-204.5 -83t-84.5 -201z" />
<glyph unicode="&#xaa;" horiz-adv-x="364" d="M323 400h-94v34q-16 -22 -46.5 -32t-52.5 -10q-30 0 -60 24.5t-30 68.5q0 48 51 76t140 37v11q-1 41 -49 41q-40 0 -94 -27l-23 54q0 1 14 9t44 16.5t63 8.5q0 -1 7.5 0t20 -1t26.5 -4.5t29 -10t27 -17.5t19.5 -27.5t7.5 -39.5v-211zM166 456q9 0 22 3t28 15.5t15 31.5 v40q-45 -5 -75 -21t-29 -37q2 -32 39 -32zM40 341h284v-79h-284v79z" />
<glyph unicode="&#xab;" horiz-adv-x="558" d="M299 557l-130 -235l135 -230h-123l-131 233l131 232h118zM503 557l-130 -235l135 -230h-123l-131 233l131 232h118z" />
<glyph unicode="&#xac;" horiz-adv-x="573" d="M418 274h-383v109h503v-226h-120v117z" />
<glyph unicode="&#xae;" horiz-adv-x="790" d="M542 412q0 -8 -1.5 -16t-6.5 -25t-20 -31.5t-38 -22.5q23 -11 37 -46l53 -126h-74l-53 123q-15 28 -43 28h-81v-151h-70v390h173q69 0 96.5 -36t27.5 -87zM315 353h104q30 0 42 18.5t12 40.5q0 68 -59 68h-99v-127zM40 336q0 145 104 247t251 102t251 -102t104 -247 t-104 -247t-251 -102t-251 102t-104 247zM109 335q0 -118 84.5 -201t204.5 -83t204.5 83t84.5 201t-84.5 201t-204.5 83t-204.5 -83t-84.5 -201z" />
<glyph unicode="&#xaf;" horiz-adv-x="347" d="M40 577v97h267v-97h-267z" />
<glyph unicode="&#xb0;" horiz-adv-x="364" d="M40 521q0 60 41.5 101.5t100.5 41.5t100.5 -41.5t41.5 -101.5q0 -59 -41.5 -100.5t-100.5 -41.5t-100.5 41.5t-41.5 100.5zM126 521q0 -24 16.5 -43t39.5 -19t39.5 19t16.5 43q0 25 -16.5 44t-39.5 19t-39.5 -19t-16.5 -44z" />
<glyph unicode="&#xb1;" horiz-adv-x="584" d="M40 423h198v179h109v-179h197v-99h-197v-178h-109v178h-198v99zM544 0h-504v99h504v-99z" />
<glyph unicode="&#xb2;" horiz-adv-x="385" d="M186 763q-26 0 -53 -16.5t-42 -35.5l-38 52l2 4q63 66 134 66q58 0 98 -33t40 -87q0 -16 -8 -31.5t-15 -25t-27.5 -25.5t-27 -20t-31.5 -21q-69 -40 -86 -71h189v-69h-277v41q0 46 32.5 79.5t92.5 71.5q22 12 35 21t26 24t13 29q0 20 -15.5 33.5t-41.5 13.5z" />
<glyph unicode="&#xb3;" horiz-adv-x="344" d="M162 442q-80 0 -141 58l33 54q53 -47 106 -47q24 0 38.5 15.5t14.5 35.5q0 21 -15.5 38t-40.5 17h-52v62h50q24 0 39 15t15 33q0 19 -14.5 34.5t-36.5 15.5q-48 0 -91 -50l-35 54q46 59 128 59q57 1 95.5 -29t38.5 -83q0 -19 -14 -42t-42 -35q32 -10 47 -37t15 -51 q0 -52 -41.5 -84.5t-96.5 -32.5z" />
<glyph unicode="&#xb4;" horiz-adv-x="314" d="M40 547l93 151h141l-126 -151h-108z" />
<glyph unicode="&#xb6;" horiz-adv-x="541" d="M212 -192v476q-78 8 -130 63t-52 131q0 81 60.5 138.5t145.5 57.5h245v-866h-100v788h-69v-788h-100z" />
<glyph unicode="&#xb7;" horiz-adv-x="237" d="M50 249v117h137v-117h-137z" />
<glyph unicode="&#xb8;" horiz-adv-x="276" d="M95 10h85q35 -41 48 -84q19 -62 -11 -97t-95 -28q-43 5 -82 23v88l47 -13q61 -15 61 13q0 23 -53 98z" />
<glyph unicode="&#xb9;" horiz-adv-x="276" d="M61 697l-35 47l98 86h71v-380h-84v291z" />
<glyph unicode="&#xba;" horiz-adv-x="391" d="M40 551q0 75 42 118t113 43q72 0 114 -43t42 -118q0 -73 -42 -116t-114 -43q-71 0 -113 43t-42 116zM260 551q0 38 -18 66.5t-47 28.5t-46 -28t-17 -67q0 -38 17 -65.5t46 -27.5t47 28t18 65zM41 341h303v-79h-303v79z" />
<glyph unicode="&#xbb;" horiz-adv-x="558" d="M389 322l-130 235h118l131 -232l-131 -233h-123zM185 322l-130 235h118l131 -232l-131 -233h-123z" />
<glyph unicode="&#xbc;" horiz-adv-x="772" d="M124 0l393 674h65l-392 -674h-66zM95 541l-35 47l98 86h71v-380h-84v291zM660 0h-82v75h-168v56q54 114 172 249h78v-243h52v-62h-52v-75zM486 137h92v140q-71 -83 -92 -140z" />
<glyph unicode="&#xbd;" horiz-adv-x="799" d="M124 0l393 674h65l-392 -674h-66zM95 541l-35 47l98 86h71v-380h-84v291zM598 313q26 0 41.5 -13.5t15.5 -33.5q0 -14 -13 -29t-26 -24t-35 -21q-60 -38 -92.5 -71.5t-32.5 -79.5v-41h277v69h-189q17 31 86 71q25 17 31.5 21t27 20t27.5 25.5t15 25t8 31.5q0 54 -40 87 t-98 33q-71 0 -134 -66l-2 -4l38 -52q15 19 42 35.5t53 16.5z" />
<glyph unicode="&#xbe;" horiz-adv-x="815" d="M198 0l393 674h65l-392 -674h-66zM703 0h-82v75h-168v56q54 114 172 249h78v-243h52v-62h-52v-75zM529 137h92v140q-71 -83 -92 -140zM201 286q-80 0 -141 58l33 54q53 -47 106 -47q24 0 38.5 15.5t14.5 35.5q0 21 -15.5 38t-40.5 17h-52v62h50q24 0 39 15t15 33 q0 19 -14.5 34.5t-36.5 15.5q-48 0 -91 -50l-35 54q46 59 128 59q57 1 95.5 -29t38.5 -83q0 -19 -14 -42t-42 -35q32 -10 47 -37t15 -51q0 -52 -41.5 -84.5t-96.5 -32.5z" />
<glyph unicode="&#xbf;" horiz-adv-x="555" d="M214 87q50 45 70 64t38 46t21.5 51t3.5 66h-120q0 -49 -15.5 -73t-58.5 -59q-7 -5 -10 -8q-103 -87 -103 -174q0 -97 66 -148.5t165 -51.5q47 0 87.5 14.5t66.5 38t40.5 41t24.5 35.5l-70 68q-19 -33 -56.5 -62.5t-88.5 -29.5q-50 0 -78.5 25t-28.5 64q0 53 46 93z M350 484v-106h-129v106h129z" />
<glyph unicode="&#xc0;" horiz-adv-x="705" d="M148 0h-138l280 674h125l280 -674h-138l-62 152h-287zM353 545l-107 -292h212zM308 888l93 -151h-108l-126 151h141z" />
<glyph unicode="&#xc1;" horiz-adv-x="705" d="M148 0h-138l280 674h125l280 -674h-138l-62 152h-287zM353 545l-107 -292h212zM297 737l93 151h141l-126 -151h-108z" />
<glyph unicode="&#xc2;" horiz-adv-x="705" d="M148 0h-138l280 674h125l280 -674h-138l-62 152h-287zM353 545l-107 -292h212zM281 888h142l102 -153h-104l-69 83l-68 -83h-104z" />
<glyph unicode="&#xc3;" horiz-adv-x="705" d="M148 0h-138l280 674h125l280 -674h-138l-62 152h-287zM353 545l-107 -292h212zM361 767l-8 4q-32 16 -47 16q-22 0 -30 -43h-78q3 62 23.5 98t74.5 36q17 0 47 -16l8 -4q30 -16 47 -16q20 0 29 43h79q-3 -62 -23.5 -98t-74.5 -36q-17 0 -47 16z" />
<glyph unicode="&#xc4;" horiz-adv-x="705" d="M148 0h-138l280 674h125l280 -674h-138l-62 152h-287zM353 545l-107 -292h212zM202 754v116h123v-116h-123zM379 754v116h123v-116h-123z" />
<glyph unicode="&#xc5;" horiz-adv-x="705" d="M148 0h-138l280 674h125l280 -674h-138l-62 152h-287zM353 545l-107 -292h212zM236 849q0 48 29 80t87 32q62 0 89.5 -31.5t27.5 -80.5q0 -48 -27.5 -79t-89.5 -31q-58 0 -87 32t-29 78zM308 850q0 -42 44 -42q45 0 45 42t-45 42q-44 0 -44 -42z" />
<glyph unicode="&#xc6;" horiz-adv-x="954" d="M432 582l-163 -329h163v329zM563 102h346v-102h-477v152h-203l-74 -152h-145l338 674h554v-102h-338v-181h314v-102h-315v-187z" />
<glyph unicode="&#xc7;" horiz-adv-x="628" d="M40 337q0 149 94 248.5t250 99.5q131 0 214 -43l-34 -89q-81 29 -159 29q-61 0 -107.5 -21.5t-72.5 -57.5t-39 -77.5t-13 -88.5t13 -89t39 -78.5t72.5 -58t107.5 -21.5q77 0 162 29l31 -89q-72 -37 -186 -42q24 -36 32 -62q19 -62 -11 -97t-95 -28q-43 5 -82 23v88 l47 -13q21 -5 34.5 -5.5t19.5 4.5t6.5 13t-5 21t-13.5 27t-21 33q-130 19 -207 115t-77 230z" />
<glyph unicode="&#xc8;" horiz-adv-x="587" d="M542 0h-477v674h470v-102h-339v-181h314v-102h-314v-187h346v-102zM283 888l93 -151h-108l-126 151h141z" />
<glyph unicode="&#xc9;" horiz-adv-x="587" d="M542 0h-477v674h470v-102h-339v-181h314v-102h-314v-187h346v-102zM220 737l93 151h141l-126 -151h-108z" />
<glyph unicode="&#xca;" horiz-adv-x="587" d="M542 0h-477v674h470v-102h-339v-181h314v-102h-314v-187h346v-102zM222 888h142l102 -153h-104l-69 83l-68 -83h-104z" />
<glyph unicode="&#xcb;" horiz-adv-x="587" d="M542 0h-477v674h470v-102h-339v-181h314v-102h-314v-187h346v-102zM143 754v116h123v-116h-123zM320 754v116h123v-116h-123z" />
<glyph unicode="&#xcc;" horiz-adv-x="280" d="M75 0v674h130v-674h-130zM112 888l93 -151h-108l-126 151h141z" />
<glyph unicode="&#xcd;" horiz-adv-x="280" d="M75 0v674h130v-674h-130zM77 737l93 151h141l-126 -151h-108z" />
<glyph unicode="&#xce;" horiz-adv-x="280" d="M75 0v674h130v-674h-130zM69 888h142l102 -153h-104l-69 83l-68 -83h-104z" />
<glyph unicode="&#xcf;" horiz-adv-x="280" d="M75 0v674h130v-674h-130zM-10 754v116h123v-116h-123zM167 754v116h123v-116h-123z" />
<glyph unicode="&#xd0;" horiz-adv-x="742" d="M107 674h252q162 0 252.5 -85.5t90.5 -251.5t-90.5 -251.5t-252.5 -85.5h-252v288h-97v103h97v283zM237 102h126q93 0 151.5 58.5t58.5 176.5q0 121 -57.5 178t-155.5 57h-123v-181h198v-103h-198v-186z" />
<glyph unicode="&#xd1;" horiz-adv-x="689" d="M460 0l-265 512v-512h-130v674h173l256 -507v507h130v-674h-164zM353 767l-8 4q-32 16 -47 16q-22 0 -30 -43h-78q3 62 23.5 98t74.5 36q17 0 47 -16l8 -4q30 -16 47 -16q20 0 29 43h79q-3 -62 -23.5 -98t-74.5 -36q-17 0 -47 16z" />
<glyph unicode="&#xd2;" horiz-adv-x="743" d="M371 -13q-153 0 -242 93.5t-89 256.5t88.5 255.5t242.5 92.5t243 -92.5t89 -255.5t-89 -256.5t-243 -93.5zM371 585q-94 0 -144.5 -71t-50.5 -177q0 -110 50.5 -180t144.5 -70q95 0 145.5 70t50.5 180q0 106 -51 177t-145 71zM321 888l93 -151h-108l-126 151h141z" />
<glyph unicode="&#xd3;" horiz-adv-x="743" d="M371 -13q154 0 243 93.5t89 256.5t-89 255.5t-243 92.5t-242.5 -92.5t-88.5 -255.5t89 -256.5t242 -93.5zM371 585q94 0 145 -71t51 -177q0 -110 -50.5 -180t-145.5 -70q-94 0 -144.5 70t-50.5 180q0 106 50.5 177t144.5 71zM306 737l93 151h141l-126 -151h-108z" />
<glyph unicode="&#xd4;" horiz-adv-x="743" d="M371 -13q-153 0 -242 93.5t-89 256.5t88.5 255.5t242.5 92.5t243 -92.5t89 -255.5t-89 -256.5t-243 -93.5zM371 585q-94 0 -144.5 -71t-50.5 -177q0 -110 50.5 -180t144.5 -70q95 0 145.5 70t50.5 180q0 106 -51 177t-145 71zM300 888h142l102 -153h-104l-69 83l-68 -83 h-104z" />
<glyph unicode="&#xd5;" horiz-adv-x="743" d="M371 -13q-153 0 -242 93.5t-89 256.5t88.5 255.5t242.5 92.5t243 -92.5t89 -255.5t-89 -256.5t-243 -93.5zM371 585q-94 0 -144.5 -71t-50.5 -177q0 -110 50.5 -180t144.5 -70q95 0 145.5 70t50.5 180q0 106 -51 177t-145 71zM380 767l-8 4q-32 16 -47 16q-22 0 -30 -43 h-78q3 62 23.5 98t74.5 36q17 0 47 -16l8 -4q30 -16 47 -16q20 0 29 43h79q-3 -62 -23.5 -98t-74.5 -36q-17 0 -47 16z" />
<glyph unicode="&#xd6;" horiz-adv-x="743" d="M371 -13q154 0 243 93.5t89 256.5t-89 255.5t-243 92.5t-242.5 -92.5t-88.5 -255.5t89 -256.5t242 -93.5zM371 585q94 0 145 -71t51 -177q0 -110 -50.5 -180t-145.5 -70q-94 0 -144.5 70t-50.5 180q0 106 50.5 177t144.5 71zM221 754v116h123v-116h-123zM398 754v116h123 v-116h-123z" />
<glyph unicode="&#xd7;" horiz-adv-x="588" d="M40 134l183 183l-183 183l71 72l183 -184l183 183l71 -71l-183 -183l183 -182l-71 -71l-183 182l-183 -183z" />
<glyph unicode="&#xd8;" horiz-adv-x="743" d="M212 178l246 386q-40 21 -87 21q-94 0 -144.5 -71t-50.5 -177q0 -95 36 -159zM142 68q-102 94 -102 269q0 163 88.5 255.5t242.5 92.5q83 0 147 -27l40 64h96l-66 -106q115 -95 115 -279q0 -163 -89 -256.5t-243 -93.5q-89 0 -161 33l-53 -75h-98zM520 508l-251 -393 q44 -28 102 -28q95 0 145.5 70t50.5 180q0 104 -47 171z" />
<glyph unicode="&#xd9;" horiz-adv-x="708" d="M354 -13q-141 0 -215 72.5t-74 241.5v373h132v-375q0 -105 37 -153.5t120 -48.5t120.5 48.5t37.5 153.5v375h131v-373q0 -170 -73.5 -242t-215.5 -72zM342 888l93 -151h-108l-126 151h141z" />
<glyph unicode="&#xda;" horiz-adv-x="708" d="M354 -13q142 0 215.5 72t73.5 242v373h-131v-375q0 -105 -37.5 -153.5t-120.5 -48.5t-120 48.5t-37 153.5v375h-132v-373q0 -169 74 -241.5t215 -72.5zM259 737l93 151h141l-126 -151h-108z" />
<glyph unicode="&#xdb;" horiz-adv-x="708" d="M354 -13q-141 0 -215 72.5t-74 241.5v373h132v-375q0 -105 37 -153.5t120 -48.5t120.5 48.5t37.5 153.5v375h131v-373q0 -170 -73.5 -242t-215.5 -72zM282 888h142l102 -153h-104l-69 83l-68 -83h-104z" />
<glyph unicode="&#xdc;" horiz-adv-x="708" d="M354 -13q142 0 215.5 72t73.5 242v373h-131v-375q0 -105 -37.5 -153.5t-120.5 -48.5t-120 48.5t-37 153.5v375h-132v-373q0 -169 74 -241.5t215 -72.5zM204 754v116h123v-116h-123zM381 754v116h123v-116h-123z" />
<glyph unicode="&#xdd;" horiz-adv-x="671" d="M269 0h134v237l258 437h-151l-174 -341l-175 341h-151l259 -438v-236zM259 737l93 151h141l-126 -151h-108z" />
<glyph unicode="&#xde;" horiz-adv-x="579" d="M196 674v-131q20 27 55.5 41t72.5 14q94 0 157 -66t63 -191q0 -126 -65 -191t-172 -65q-26 0 -59 11t-53 38v-134h-130v674h131zM288 502q-25 0 -58.5 -23t-33.5 -70v-140q0 -87 110 -87q53 0 77.5 45.5t24.5 113.5q0 161 -120 161z" />
<glyph unicode="&#xdf;" horiz-adv-x="587" d="M312 0h-71v94h71q53 0 85.5 31t32.5 72q0 53 -35 91.5t-94 39.5h-17v94h17q46 0 64.5 20t18.5 62q0 37 -26.5 63t-68.5 26q-47 0 -70.5 -37t-23.5 -100v-456h-130v456q0 104 51.5 159.5t123.5 66.5h-2q9 3 51 3q39 0 76 -9.5t70.5 -29.5t54 -56.5t20.5 -85.5 q0 -42 -26.5 -77.5t-78.5 -50.5q46 -4 80 -36.5t48 -70t14 -72.5q0 -79 -62 -138t-173 -59z" />
<glyph unicode="&#xe0;" horiz-adv-x="519" d="M230 698l93 -151h-108l-126 151h141zM464 0h-132v55q-21 -37 -66 -52.5t-81 -15.5q-34 0 -68 14t-60.5 48.5t-26.5 82.5q0 81 81 130.5t224 59.5v12q-1 40 -29 58.5t-68 15t-77 -13.5t-65 -24l-32 76q0 2 21.5 13.5t68 24t96.5 12.5h23.5t51 -7t65 -21.5t51.5 -48.5 t23 -82v-337zM225 79q10 0 25.5 3.5t36 12t34.5 28t14 45.5v70q-82 -7 -134 -34.5t-51 -67.5q1 -27 22 -42t53 -15z" />
<glyph unicode="&#xe1;" horiz-adv-x="519" d="M178 547l93 151h141l-126 -151h-108zM332 0h132v337q0 48 -22 82t-53.5 48t-63 21.5t-53.5 7.5h-22q-50 0 -96.5 -12.5t-68 -24t-21.5 -13.5l32 -76q28 14 65 24t77 13.5t68 -15t29 -58.5v-12q-143 -10 -224 -59.5t-81 -130.5q0 -48 26.5 -82.5t60.5 -48.5t68 -14 q36 0 81 15.5t66 52.5v-55zM225 79q-32 0 -53 15t-22 42q-1 40 51 67.5t134 34.5v-70q0 -26 -14 -45.5t-34.5 -28t-36 -12t-25.5 -3.5z" />
<glyph unicode="&#xe2;" horiz-adv-x="519" d="M184 698h142l102 -153h-104l-69 83l-68 -83h-104zM464 0h-132v55q-21 -37 -66 -52.5t-81 -15.5q-34 0 -68 14t-60.5 48.5t-26.5 82.5q0 81 81 130.5t224 59.5v12q-1 40 -29 58.5t-68 15t-77 -13.5t-65 -24l-32 76q0 2 21.5 13.5t68 24t96.5 12.5h23.5t51 -7t65 -21.5 t51.5 -48.5t23 -82v-337zM225 79q10 0 25.5 3.5t36 12t34.5 28t14 45.5v70q-82 -7 -134 -34.5t-51 -67.5q1 -27 22 -42t53 -15z" />
<glyph unicode="&#xe3;" horiz-adv-x="526" d="M272 577l-8 4q-32 16 -47 16q-22 0 -30 -43h-78q3 62 23.5 98t74.5 36q17 0 47 -16l8 -4q30 -16 47 -16q20 0 29 43h79q-3 -62 -23.5 -98t-74.5 -36q-17 0 -47 16zM471 0h-132v55q-21 -37 -66 -52.5t-81 -15.5q-34 0 -68 14t-60.5 48.5t-26.5 82.5q0 81 81 130.5 t224 59.5v12q-1 40 -29 58.5t-68 15t-77 -13.5t-65 -24l-32 76q0 2 21.5 13.5t68 24t96.5 12.5h23.5t51 -7t65 -21.5t51.5 -48.5t23 -82v-337zM232 79q10 0 25.5 3.5t36 12t34.5 28t14 45.5v70q-82 -7 -134 -34.5t-51 -67.5q1 -27 22 -42t53 -15z" />
<glyph unicode="&#xe4;" horiz-adv-x="519" d="M106 564v116h123v-116h-123zM283 564v116h123v-116h-123zM332 0h132v337q0 48 -22 82t-53.5 48t-63 21.5t-53.5 7.5h-22q-50 0 -96.5 -12.5t-68 -24t-21.5 -13.5l32 -76q28 14 65 24t77 13.5t68 -15t29 -58.5v-12q-143 -10 -224 -59.5t-81 -130.5q0 -48 26.5 -82.5 t60.5 -48.5t68 -14q36 0 81 15.5t66 52.5v-55zM225 79q-32 0 -53 15t-22 42q-1 40 51 67.5t134 34.5v-70q0 -26 -14 -45.5t-34.5 -28t-36 -12t-25.5 -3.5z" />
<glyph unicode="&#xe5;" horiz-adv-x="526" d="M146 659q0 48 29 80t87 32q62 0 89.5 -31.5t27.5 -80.5q0 -48 -27.5 -79t-89.5 -31q-58 0 -87 32t-29 78zM218 660q0 -42 44 -42q45 0 45 42t-45 42q-44 0 -44 -42zM471 0h-132v55q-21 -37 -66 -52.5t-81 -15.5q-34 0 -68 14t-60.5 48.5t-26.5 82.5q0 81 81 130.5 t224 59.5v12q-1 40 -29 58.5t-68 15t-77 -13.5t-65 -24l-32 76q0 2 21.5 13.5t68 24t96.5 12.5h23.5t51 -7t65 -21.5t51.5 -48.5t23 -82v-337zM232 79q10 0 25.5 3.5t36 12t34.5 28t14 45.5v70q-82 -7 -134 -34.5t-51 -67.5q1 -27 22 -42t53 -15z" />
<glyph unicode="&#xe6;" horiz-adv-x="852" d="M588 -12q-154 0 -211 88q-45 -89 -185 -89q-34 0 -68 14t-60.5 48.5t-26.5 82.5q0 81 81 130.5t224 59.5v12q-1 40 -29 58.5t-68 15t-77 -13.5t-65 -24l-32 76q0 2 21.5 13.5t68 24t96.5 12.5q13 1 33 1t64 -16.5t68 -51.5q56 68 171 68q96 0 160 -67.5t64 -180.5l-3 -51 h-350q9 -51 43 -82t89 -31q75 0 162 35l28 -85q-77 -47 -198 -47zM232 79q10 0 25.5 3.5t36 12t34.5 28t14 45.5v23v46q-80 -7 -133 -34.5t-52 -66.5q1 -27 22 -42t53 -15zM578 400q-43 0 -78 -32.5t-36 -74.5v-4h228q0 51 -33.5 81t-80.5 30z" />
<glyph unicode="&#xe7;" horiz-adv-x="478" d="M35 242q0 118 67.5 186.5t184.5 68.5q92 0 161 -36l-26 -88q-71 25 -118 25q-71 0 -107 -44.5t-36 -111.5t36 -112.5t107 -45.5q38 0 118 27l26 -88q-57 -30 -138 -35q24 -36 32 -62q19 -62 -11 -97t-95 -28q-43 5 -82 23v88l47 -13q21 -5 35 -5.5t19.5 5t6 13t-5.5 21 t-14.5 27.5t-21.5 34q-87 17 -136 82.5t-49 165.5z" />
<glyph unicode="&#xe8;" horiz-adv-x="549" d="M285 -12q-107 0 -178.5 69t-71.5 185q0 112 65 183.5t175 71.5t174.5 -66.5t64.5 -181.5l-3 -51h-350q9 -51 43 -82t89 -31q75 0 162 35l28 -85q-77 -47 -198 -47zM275 400q-43 0 -75 -33.5t-32 -77.5h221q0 51 -33.5 81t-80.5 30zM243 698l93 -151h-108l-126 151h141z " />
<glyph unicode="&#xe9;" horiz-adv-x="549" d="M285 -12q121 0 198 47l-28 85q-87 -35 -162 -35q-55 0 -89 31t-43 82h350l3 51q0 115 -64.5 181.5t-174.5 66.5t-175 -71.5t-65 -183.5q0 -116 71.5 -185t178.5 -69zM275 400q47 0 80.5 -30t33.5 -81h-221q0 44 32 77.5t75 33.5zM199 547l93 151h141l-126 -151h-108z" />
<glyph unicode="&#xea;" horiz-adv-x="549" d="M285 -12q-107 0 -178.5 69t-71.5 185q0 112 65 183.5t175 71.5t174.5 -66.5t64.5 -181.5l-3 -51h-350q9 -51 43 -82t89 -31q75 0 162 35l28 -85q-77 -47 -198 -47zM275 400q-43 0 -75 -33.5t-32 -77.5h221q0 51 -33.5 81t-80.5 30zM203 698h142l102 -153h-104l-69 83 l-68 -83h-104z" />
<glyph unicode="&#xeb;" horiz-adv-x="549" d="M285 -12q121 0 198 47l-28 85q-87 -35 -162 -35q-55 0 -89 31t-43 82h350l3 51q0 115 -64.5 181.5t-174.5 66.5t-175 -71.5t-65 -183.5q0 -116 71.5 -185t178.5 -69zM275 400q47 0 80.5 -30t33.5 -81h-221q0 44 32 77.5t75 33.5zM124 564v116h123v-116h-123zM301 564v116 h123v-116h-123z" />
<glyph unicode="&#xec;" horiz-adv-x="249" d="M60 0l1 484h128v-484h-129zM96 698l93 -151h-108l-126 151h141z" />
<glyph unicode="&#xed;" horiz-adv-x="249" d="M61 484l-1 -484h129v484h-128zM61 547l93 151h141l-126 -151h-108z" />
<glyph unicode="&#xee;" horiz-adv-x="249" d="M60 0l1 484h128v-484h-129zM53 698h142l102 -153h-104l-69 83l-68 -83h-104z" />
<glyph unicode="&#xef;" horiz-adv-x="249" d="M61 484l-1 -484h129v484h-128zM-25 564v116h123v-116h-123zM152 564v116h123v-116h-123z" />
<glyph unicode="&#xf0;" horiz-adv-x="545" d="M122 476l-51 51l61 64q-26 17 -89 41l91 82l80 -40l65 65l59 -54l-58 -55q102 -78 168.5 -178t66.5 -212q0 -117 -65.5 -184t-177.5 -67t-177 67t-65 184q0 118 83.5 189.5t183.5 49.5q-39 39 -98 76zM380 240q0 60 -29 105.5t-79 45.5t-78.5 -44.5t-28.5 -106.5 q0 -60 28.5 -104.5t78.5 -44.5t79 44.5t29 104.5z" />
<glyph unicode="&#xf1;" d="M504 281v-281h-129v281q0 119 -78 119q-14 0 -29.5 -4.5t-35 -15.5t-32 -36t-12.5 -60v-284h-128v484h122v-74q29 53 66 70t91 17q165 0 165 -216zM291 577l-8 4q-32 16 -47 16q-22 0 -30 -43h-78q3 62 23.5 98t74.5 36q17 0 47 -16l8 -4q30 -16 47 -16q20 0 29 43h79 q-3 -62 -23.5 -98t-74.5 -36q-17 0 -47 16z" />
<glyph unicode="&#xf2;" horiz-adv-x="556" d="M35 242q0 118 65 186.5t177 68.5q113 0 178.5 -68.5t65.5 -186.5t-65.5 -186.5t-178.5 -68.5q-112 0 -177 68.5t-65 186.5zM394 242q0 64 -32 112t-85 48t-84 -47.5t-31 -112.5t31 -112.5t84 -47.5t85 48t32 112zM224 698l93 -151h-108l-126 151h141z" />
<glyph unicode="&#xf3;" horiz-adv-x="556" d="M35 242q0 -118 65 -186.5t177 -68.5q113 0 178.5 68.5t65.5 186.5t-65.5 186.5t-178.5 68.5q-112 0 -177 -68.5t-65 -186.5zM394 242q0 -64 -32 -112t-85 -48t-84 47.5t-31 112.5t31 112.5t84 47.5t85 -48t32 -112zM223 547l93 151h141l-126 -151h-108z" />
<glyph unicode="&#xf4;" horiz-adv-x="556" d="M35 242q0 118 65 186.5t177 68.5q113 0 178.5 -68.5t65.5 -186.5t-65.5 -186.5t-178.5 -68.5q-112 0 -177 68.5t-65 186.5zM394 242q0 64 -32 112t-85 48t-84 -47.5t-31 -112.5t31 -112.5t84 -47.5t85 48t32 112zM206 698h142l102 -153h-104l-69 83l-68 -83h-104z" />
<glyph unicode="&#xf5;" horiz-adv-x="556" d="M35 242q0 118 65 186.5t177 68.5q113 0 178.5 -68.5t65.5 -186.5t-65.5 -186.5t-178.5 -68.5q-112 0 -177 68.5t-65 186.5zM394 242q0 64 -32 112t-85 48t-84 -47.5t-31 -112.5t31 -112.5t84 -47.5t85 48t32 112zM287 577l-8 4q-32 16 -47 16q-22 0 -30 -43h-78 q3 62 23.5 98t74.5 36q17 0 47 -16l8 -4q30 -16 47 -16q20 0 29 43h79q-3 -62 -23.5 -98t-74.5 -36q-17 0 -47 16z" />
<glyph unicode="&#xf6;" horiz-adv-x="556" d="M35 242q0 -118 65 -186.5t177 -68.5q113 0 178.5 68.5t65.5 186.5t-65.5 186.5t-178.5 68.5q-112 0 -177 -68.5t-65 -186.5zM394 242q0 -64 -32 -112t-85 -48t-84 47.5t-31 112.5t31 112.5t84 47.5t85 -48t32 -112zM128 564v116h123v-116h-123zM305 564v116h123v-116 h-123z" />
<glyph unicode="&#xf7;" horiz-adv-x="549" d="M207 83v117h135v-117h-135zM207 450v117h135v-117h-135zM40 372h469v-99h-469v99z" />
<glyph unicode="&#xf8;" horiz-adv-x="556" d="M381 478l32 48h87l-56 -87q77 -69 77 -197q0 -118 -65.5 -186.5t-178.5 -68.5q-57 0 -109 21l-35 -54h-87l61 94q-72 67 -72 194q0 118 65 186.5t177 68.5q57 0 104 -19zM375 331l-150 -234q23 -15 52 -15q53 0 85 48t32 112q0 48 -19 89zM177 159l148 230q-23 13 -48 13 q-53 0 -84 -47.5t-31 -112.5q0 -46 15 -83z" />
<glyph unicode="&#xf9;" d="M60 203v281h128v-281q0 -120 79 -120q11 0 24 3t34.5 11.5t35.5 31t14 56.5v299h129v-484h-123v55q-20 -30 -55 -46.5t-53 -19t-31 -2.5q-75 0 -128.5 52t-53.5 164zM263 698l93 -151h-108l-126 151h141z" />
<glyph unicode="&#xfa;" d="M60 203v281h128v-281q0 -120 79 -120q11 0 24 3t34.5 11.5t35.5 31t14 56.5v299h129v-484h-123v55q-20 -30 -55 -46.5t-53 -19t-31 -2.5q-75 0 -128.5 52t-53.5 164zM188 547l93 151h141l-126 -151h-108z" />
<glyph unicode="&#xfb;" d="M60 203v281h128v-281q0 -120 79 -120q11 0 24 3t34.5 11.5t35.5 31t14 56.5v299h129v-484h-123v55q-20 -30 -55 -46.5t-53 -19t-31 -2.5q-75 0 -128.5 52t-53.5 164zM210 698h142l102 -153h-104l-69 83l-68 -83h-104z" />
<glyph unicode="&#xfc;" d="M60 203v281h128v-281q0 -120 79 -120q11 0 24 3t34.5 11.5t35.5 31t14 56.5v299h129v-484h-123v55q-20 -30 -55 -46.5t-53 -19t-31 -2.5q-75 0 -128.5 52t-53.5 164zM132 564v116h123v-116h-123zM309 564v116h123v-116h-123z" />
<glyph unicode="&#xfd;" horiz-adv-x="560" d="M83 -174l15 95q3 -1 13 -6t15.5 -7t15.5 -4t17 0t15 8t14 17l33 81q-15 34 -37 84t-69.5 156t-104.5 234h135l138 -327q43 106 132 327h135l-252 -594q-14 -33 -43.5 -53t-51 -24.5t-41.5 -4.5q-30 0 -79 18zM192 547l93 151h141l-126 -151h-108z" />
<glyph unicode="&#xfe;" horiz-adv-x="571" d="M193 675v-246q23 37 59.5 52.5t69.5 15.5q101 0 157.5 -64.5t56.5 -190.5t-59 -189.5t-163 -63.5q-86 0 -122 50v-231h-127v867h128zM285 399q-26 0 -59 -22.5t-33 -67.5v-137q0 -87 108 -87q53 0 77.5 45t24.5 112q0 157 -118 157z" />
<glyph unicode="&#xff;" horiz-adv-x="560" d="M83 -174l15 95q3 -1 13 -6t15.5 -7t15.5 -4t17 0t15 8t14 17l33 81q-15 34 -37 84t-69.5 156t-104.5 234h135l138 -327q43 106 132 327h135l-252 -594q-14 -33 -43.5 -53t-51 -24.5t-41.5 -4.5q-30 0 -79 18zM130 564v116h123v-116h-123zM307 564v116h123v-116h-123z" />
<glyph unicode="&#x100;" horiz-adv-x="705" d="M148 0h-138l280 674h125l280 -674h-138l-62 152h-287zM353 545l-107 -292h212zM219 767v97h267v-97h-267z" />
<glyph unicode="&#x101;" horiz-adv-x="519" d="M122 577v97h267v-97h-267zM332 0h132v337q0 48 -22 82t-53.5 48t-63 21.5t-53.5 7.5h-22q-50 0 -96.5 -12.5t-68 -24t-21.5 -13.5l32 -76q28 14 65 24t77 13.5t68 -15t29 -58.5v-12q-143 -10 -224 -59.5t-81 -130.5q0 -48 26.5 -82.5t60.5 -48.5t68 -14q36 0 81 15.5 t66 52.5v-55zM225 79q-32 0 -53 15t-22 42q-1 40 51 67.5t134 34.5v-70q0 -26 -14 -45.5t-34.5 -28t-36 -12t-25.5 -3.5z" />
<glyph unicode="&#x102;" horiz-adv-x="705" d="M148 0h-138l280 674h125l280 -674h-138l-62 152h-287zM353 545l-107 -292h212zM353 726h-2q-76 0 -113 45.5t-37 116.5h78q5 -41 22 -60.5t51 -19.5t51 19.5t22 60.5h78q0 -71 -37 -116.5t-113 -45.5z" />
<glyph unicode="&#x103;" horiz-adv-x="519" d="M249 536h-2q-76 0 -113 45.5t-37 116.5h78q5 -41 22 -60.5t51 -19.5t51 19.5t22 60.5h78q0 -71 -37 -116.5t-113 -45.5zM332 0h132v337q0 48 -22 82t-53.5 48t-63 21.5t-53.5 7.5h-22q-50 0 -96.5 -12.5t-68 -24t-21.5 -13.5l32 -76q28 14 65 24t77 13.5t68 -15t29 -58.5 v-12q-143 -10 -224 -59.5t-81 -130.5q0 -48 26.5 -82.5t60.5 -48.5t68 -14q36 0 81 15.5t66 52.5v-55zM225 79q-32 0 -53 15t-22 42q-1 40 51 67.5t134 34.5v-70q0 -26 -14 -45.5t-34.5 -28t-36 -12t-25.5 -3.5z" />
<glyph unicode="&#x104;" horiz-adv-x="705" d="M148 0h-138l280 674h125l280 -674h-52q-45 -64 -46 -87t61 -14l47 13v-88q-39 -18 -82 -23q-65 -7 -95 28t-11 97q11 36 40 74l-62 152h-287zM353 545l-107 -292h212z" />
<glyph unicode="&#x105;" horiz-adv-x="535" d="M464 0h-46q-45 -64 -46 -87t61 -14l47 13v-88q-39 -18 -82 -23q-65 -7 -95 28t-11 97q11 36 40 74v55q-21 -37 -66 -52.5t-81 -15.5q-34 0 -68 14t-60.5 48.5t-26.5 82.5q0 81 81 130.5t224 59.5v12q-1 40 -29 58.5t-68 15t-77 -13.5t-65 -24l-32 76q0 2 21.5 13.5t68 24 t96.5 12.5h23.5t51 -7t65 -21.5t51.5 -48.5t23 -82v-337zM225 79q10 0 25.5 3.5t36 12t34.5 28t14 45.5v70q-82 -7 -134 -34.5t-51 -67.5q1 -27 22 -42t53 -15z" />
<glyph unicode="&#x106;" horiz-adv-x="628" d="M40 337q0 -150 94 -250t250 -100q131 0 214 43l-31 89q-85 -29 -162 -29q-61 0 -107.5 21.5t-72.5 58t-39 78.5t-13 89t13 88.5t39 77.5t72.5 57.5t107.5 21.5q78 0 159 -29l34 89q-83 43 -214 43q-156 0 -250 -99.5t-94 -248.5zM306 737l93 151h141l-126 -151h-108z" />
<glyph unicode="&#x107;" horiz-adv-x="478" d="M35 242q0 -118 67.5 -186.5t184.5 -68.5q92 0 161 36l-26 88q-80 -27 -118 -27q-71 0 -107 45.5t-36 112.5t36 111.5t107 44.5q47 0 118 -25l26 88q-69 36 -161 36q-117 0 -184.5 -68.5t-67.5 -186.5zM212 547l93 151h141l-126 -151h-108z" />
<glyph unicode="&#x108;" horiz-adv-x="628" d="M40 337q0 149 94 248.5t250 99.5q131 0 214 -43l-34 -89q-81 29 -159 29q-61 0 -107.5 -21.5t-72.5 -57.5t-39 -77.5t-13 -88.5t13 -89t39 -78.5t72.5 -58t107.5 -21.5q77 0 162 29l31 -89q-83 -43 -214 -43q-156 0 -250 100t-94 250zM300 888h142l102 -153h-104l-69 83 l-68 -83h-104z" />
<glyph unicode="&#x109;" horiz-adv-x="478" d="M35 242q0 118 67.5 186.5t184.5 68.5q92 0 161 -36l-26 -88q-71 25 -118 25q-71 0 -107 -44.5t-36 -111.5t36 -112.5t107 -45.5q38 0 118 27l26 -88q-69 -36 -161 -36q-117 0 -184.5 68.5t-67.5 186.5zM198 698h142l102 -153h-104l-69 83l-68 -83h-104z" />
<glyph unicode="&#x10a;" horiz-adv-x="628" d="M40 337q0 -150 94 -250t250 -100q131 0 214 43l-31 89q-85 -29 -162 -29q-61 0 -107.5 21.5t-72.5 58t-39 78.5t-13 89t13 88.5t39 77.5t72.5 57.5t107.5 21.5q78 0 159 -29l34 89q-83 43 -214 43q-156 0 -250 -99.5t-94 -248.5zM312 748v116h129v-116h-129z" />
<glyph unicode="&#x10b;" horiz-adv-x="478" d="M35 242q0 -118 67.5 -186.5t184.5 -68.5q92 0 161 36l-26 88q-80 -27 -118 -27q-71 0 -107 45.5t-36 112.5t36 111.5t107 44.5q47 0 118 -25l26 88q-69 36 -161 36q-117 0 -184.5 -68.5t-67.5 -186.5zM210 558v116h129v-116h-129z" />
<glyph unicode="&#x10c;" horiz-adv-x="628" d="M40 337q0 149 94 248.5t250 99.5q131 0 214 -43l-34 -89q-81 29 -159 29q-61 0 -107.5 -21.5t-72.5 -57.5t-39 -77.5t-13 -88.5t13 -89t39 -78.5t72.5 -58t107.5 -21.5q77 0 162 29l31 -89q-83 -43 -214 -43q-156 0 -250 100t-94 250zM433 735h-142l-102 153h104l69 -83 l68 83h104z" />
<glyph unicode="&#x10d;" horiz-adv-x="478" d="M35 242q0 118 67.5 186.5t184.5 68.5q92 0 161 -36l-26 -88q-71 25 -118 25q-71 0 -107 -44.5t-36 -111.5t36 -112.5t107 -45.5q38 0 118 27l26 -88q-69 -36 -161 -36q-117 0 -184.5 68.5t-67.5 186.5zM341 545h-142l-102 153h104l69 -83l68 83h104z" />
<glyph unicode="&#x10e;" horiz-adv-x="690" d="M316 0h-251v674h251q163 0 253.5 -85.5t90.5 -251.5t-90.5 -251.5t-253.5 -85.5zM195 102h125q93 0 152 58.5t59 176.5q0 121 -58 178t-156 57h-122v-470zM416 735h-142l-102 153h104l69 -83l68 83h104z" />
<glyph unicode="&#x10f;" horiz-adv-x="694" d="M377 429v245h128v-674h-127v55q-14 -28 -46.5 -44.5t-53 -20t-32.5 -3.5q-95 0 -153 65t-58 190q0 124 62.5 189.5t161.5 65.5q32 0 65.5 -15.5t52.5 -52.5zM286 401q-118 0 -118 -159q0 -67 24 -112.5t77 -45.5q108 0 108 88v144q0 27 -11 46t-28 26.5t-29 10t-23 2.5z M555 490l98 184h136l-128 -184h-106z" />
<glyph unicode="&#x110;" horiz-adv-x="742" d="M107 674h252q162 0 252.5 -85.5t90.5 -251.5t-90.5 -251.5t-252.5 -85.5h-252v288h-97v103h97v283zM237 102h126q93 0 151.5 58.5t58.5 176.5q0 121 -57.5 178t-155.5 57h-123v-181h198v-103h-198v-186z" />
<glyph unicode="&#x111;" horiz-adv-x="585" d="M377 527h-136v84h136v63h128v-63h64v-84h-64v-527h-127v55q-14 -28 -46.5 -44.5t-53 -20t-32.5 -3.5q-95 0 -153 65t-58 190q0 124 62.5 189.5t161.5 65.5q32 0 65.5 -15.5t52.5 -52.5v98zM286 401q-118 0 -118 -159q0 -67 24 -112.5t77 -45.5q108 0 108 88v144 q0 27 -11 46t-28 26.5t-29 10t-23 2.5z" />
<glyph unicode="&#x112;" horiz-adv-x="587" d="M542 0h-477v674h470v-102h-339v-181h314v-102h-314v-187h346v-102zM160 767v97h267v-97h-267z" />
<glyph unicode="&#x113;" horiz-adv-x="549" d="M285 -12q121 0 198 47l-28 85q-87 -35 -162 -35q-55 0 -89 31t-43 82h350l3 51q0 115 -64.5 181.5t-174.5 66.5t-175 -71.5t-65 -183.5q0 -116 71.5 -185t178.5 -69zM275 400q47 0 80.5 -30t33.5 -81h-221q0 44 32 77.5t75 33.5zM141 577v97h267v-97h-267z" />
<glyph unicode="&#x114;" horiz-adv-x="587" d="M542 0h-477v674h470v-102h-339v-181h314v-102h-314v-187h346v-102zM294 726h-2q-76 0 -113 45.5t-37 116.5h78q5 -41 22 -60.5t51 -19.5t51 19.5t22 60.5h78q0 -71 -37 -116.5t-113 -45.5z" />
<glyph unicode="&#x115;" horiz-adv-x="549" d="M285 -12q121 0 198 47l-28 85q-87 -35 -162 -35q-55 0 -89 31t-43 82h350l3 51q0 115 -64.5 181.5t-174.5 66.5t-175 -71.5t-65 -183.5q0 -116 71.5 -185t178.5 -69zM275 400q47 0 80.5 -30t33.5 -81h-221q0 44 32 77.5t75 33.5zM275 536h-2q-76 0 -113 45.5t-37 116.5 h78q5 -41 22 -60.5t51 -19.5t51 19.5t22 60.5h78q0 -71 -37 -116.5t-113 -45.5z" />
<glyph unicode="&#x116;" horiz-adv-x="587" d="M542 0h-477v674h470v-102h-339v-181h314v-102h-314v-187h346v-102zM229 748v116h129v-116h-129z" />
<glyph unicode="&#x117;" horiz-adv-x="549" d="M285 -12q121 0 198 47l-28 85q-87 -35 -162 -35q-55 0 -89 31t-43 82h350l3 51q0 115 -64.5 181.5t-174.5 66.5t-175 -71.5t-65 -183.5q0 -116 71.5 -185t178.5 -69zM275 400q47 0 80.5 -30t33.5 -81h-221q0 44 32 77.5t75 33.5zM210 558v116h129v-116h-129z" />
<glyph unicode="&#x118;" horiz-adv-x="587" d="M542 0h-2q-45 -64 -46 -87t61 -14l47 13v-88q-39 -18 -82 -23q-65 -7 -95 28t-11 97q11 36 40 74h-389v674h470v-102h-339v-181h314v-102h-314v-187h346v-102z" />
<glyph unicode="&#x119;" horiz-adv-x="549" d="M362 -5q-42 -7 -77 -7q-107 0 -178.5 69t-71.5 185q0 112 65 183.5t175 71.5t174.5 -66.5t64.5 -181.5l-3 -51h-350q9 -51 43 -82t89 -31q75 0 162 35l28 -85q-63 -68 -75 -113q-9 -34 28 -30q13 1 31 7l47 13v-88q-39 -18 -82 -23q-65 -7 -95 28t-11 97q8 27 36 69z M275 400q-43 0 -75 -33.5t-32 -77.5h221q0 51 -33.5 81t-80.5 30z" />
<glyph unicode="&#x11a;" horiz-adv-x="587" d="M542 0h-477v674h470v-102h-339v-181h314v-102h-314v-187h346v-102zM365 735h-142l-102 153h104l69 -83l68 83h104z" />
<glyph unicode="&#x11b;" horiz-adv-x="549" d="M285 -12q-107 0 -178.5 69t-71.5 185q0 112 65 183.5t175 71.5t174.5 -66.5t64.5 -181.5l-3 -51h-350q9 -51 43 -82t89 -31q75 0 162 35l28 -85q-77 -47 -198 -47zM275 400q-43 0 -75 -33.5t-32 -77.5h221q0 51 -33.5 81t-80.5 30zM346 545h-142l-102 153h104l69 -83 l68 83h104z" />
<glyph unicode="&#x11c;" horiz-adv-x="702" d="M533 269h-135v104h258v-332q-41 -24 -114 -39t-131 -15q-168 0 -269.5 100.5t-101.5 249.5t101.5 248.5t269.5 99.5q133 0 230 -61l-46 -89q-73 48 -161 48q-67 0 -119 -21.5t-82 -57.5t-45 -78.5t-15 -88.5t15.5 -89t45 -78.5t78.5 -57.5t110 -22q49 0 111 18v161z M318 888h142l102 -153h-104l-69 83l-68 -83h-104z" />
<glyph unicode="&#x11d;" horiz-adv-x="567" d="M287 84q15 0 33 4.5t38 22t20 46.5v155q0 88 -108 88q-53 0 -77 -45.5t-24 -112.5q0 -158 118 -158zM379 -16v71q-20 -34 -56 -51t-71 -17q-83 0 -150 67.5t-67 187.5q0 123 63 189t156 66q8 0 19 -1.5t32 -7t41 -21t33 -38.5v55h128v-514q0 -45 -19.5 -78t-53.5 -50.5 t-72 -25.5t-83 -8q-56 0 -110.5 14t-78.5 33l28 85q28 -16 69.5 -27.5t84.5 -14t74.5 19t32.5 66.5zM212 698h142l102 -153h-104l-69 83l-68 -83h-104z" />
<glyph unicode="&#x11e;" horiz-adv-x="702" d="M533 269h-135v104h258v-332q-41 -24 -114 -39t-131 -15q-168 0 -269.5 100.5t-101.5 249.5t101.5 248.5t269.5 99.5q133 0 230 -61l-46 -89q-73 48 -161 48q-67 0 -119 -21.5t-82 -57.5t-45 -78.5t-15 -88.5t15.5 -89t45 -78.5t78.5 -57.5t110 -22q49 0 111 18v161z M393 726h-2q-76 0 -113 45.5t-37 116.5h78q5 -41 22 -60.5t51 -19.5t51 19.5t22 60.5h78q0 -71 -37 -116.5t-113 -45.5z" />
<glyph unicode="&#x11f;" horiz-adv-x="567" d="M287 84q15 0 33 4.5t38 22t20 46.5v155q0 88 -108 88q-53 0 -77 -45.5t-24 -112.5q0 -158 118 -158zM379 -16v71q-20 -34 -56 -51t-71 -17q-83 0 -150 67.5t-67 187.5q0 123 63 189t156 66q8 0 19 -1.5t32 -7t41 -21t33 -38.5v55h128v-514q0 -45 -19.5 -78t-53.5 -50.5 t-72 -25.5t-83 -8q-56 0 -110.5 14t-78.5 33l28 85q28 -16 69.5 -27.5t84.5 -14t74.5 19t32.5 66.5zM284 536h-2q-76 0 -113 45.5t-37 116.5h78q5 -41 22 -60.5t51 -19.5t51 19.5t22 60.5h78q0 -71 -37 -116.5t-113 -45.5z" />
<glyph unicode="&#x120;" horiz-adv-x="702" d="M533 269h-135v104h258v-332q-41 -24 -114 -39t-131 -15q-168 0 -269.5 100.5t-101.5 249.5t101.5 248.5t269.5 99.5q133 0 230 -61l-46 -89q-73 48 -161 48q-67 0 -119 -21.5t-82 -57.5t-45 -78.5t-15 -88.5t15.5 -89t45 -78.5t78.5 -57.5t110 -22q49 0 111 18v161z M336 748v116h129v-116h-129z" />
<glyph unicode="&#x121;" horiz-adv-x="567" d="M287 84q15 0 33 4.5t38 22t20 46.5v155q0 88 -108 88q-53 0 -77 -45.5t-24 -112.5q0 -158 118 -158zM379 -16v71q-20 -34 -56 -51t-71 -17q-83 0 -150 67.5t-67 187.5q0 123 63 189t156 66q8 0 19 -1.5t32 -7t41 -21t33 -38.5v55h128v-514q0 -45 -19.5 -78t-53.5 -50.5 t-72 -25.5t-83 -8q-56 0 -110.5 14t-78.5 33l28 85q28 -16 69.5 -27.5t84.5 -14t74.5 19t32.5 66.5zM219 558v116h129v-116h-129z" />
<glyph unicode="&#x122;" horiz-adv-x="702" d="M533 269h-135v104h258v-332q-41 -24 -114 -39t-131 -15q-168 0 -269.5 100.5t-101.5 249.5t101.5 248.5t269.5 99.5q133 0 230 -61l-46 -89q-73 48 -161 48q-67 0 -119 -21.5t-82 -57.5t-45 -78.5t-15 -88.5t15.5 -89t45 -78.5t78.5 -57.5t110 -22q49 0 111 18v161z M239 -231l90 184h136l-120 -184h-106z" />
<glyph unicode="&#x123;" horiz-adv-x="567" d="M287 84q15 0 33 4.5t38 22t20 46.5v155q0 88 -108 88q-53 0 -77 -45.5t-24 -112.5q0 -158 118 -158zM379 -16v71q-20 -34 -56 -51t-71 -17q-83 0 -150 67.5t-67 187.5q0 123 63 189t156 66q8 0 19 -1.5t32 -7t41 -21t33 -38.5v55h128v-514q0 -45 -19.5 -78t-53.5 -50.5 t-72 -25.5t-83 -8q-56 0 -110.5 14t-78.5 33l28 85q28 -16 69.5 -27.5t84.5 -14t74.5 19t32.5 66.5zM426 759l-98 -185h-135l126 185h107z" />
<glyph unicode="&#x124;" horiz-adv-x="683" d="M487 304h-291v-304h-131v674h131v-267h291v267h131v-674h-131v304zM270 888h142l102 -153h-104l-69 83l-68 -83h-104z" />
<glyph unicode="&#x125;" d="M504 283v-283h-129v283q0 117 -78 117q-14 0 -29.5 -4t-35 -15t-32 -35.5t-12.5 -59.5v-286h-128v674h128v-245q23 37 61.5 52.5t71.5 15.5q183 0 183 -214zM51 888h142l102 -153h-104l-69 83l-68 -83h-104z" />
<glyph unicode="&#x126;" horiz-adv-x="683" d="M487 304h-291v-304h-131v674h131v-267h291v267h131v-674h-131v304zM208 767v97h267v-97h-267z" />
<glyph unicode="&#x127;" horiz-adv-x="587" d="M15 527v84h68v63h128v-63h132v-84h-132v-98q23 37 61.5 52.5t71.5 15.5q183 0 183 -214v-283h-129v283q0 117 -78 117q-14 0 -29.5 -4t-35 -15t-32 -35.5t-12.5 -59.5v-286h-128v527h-68z" />
<glyph unicode="&#x128;" horiz-adv-x="280" d="M75 0v674h130v-674h-130zM149 767l-8 4q-32 16 -47 16q-22 0 -30 -43h-78q3 62 23.5 98t74.5 36q17 0 47 -16l8 -4q30 -16 47 -16q20 0 29 43h79q-3 -62 -23.5 -98t-74.5 -36q-17 0 -47 16z" />
<glyph unicode="&#x129;" horiz-adv-x="249" d="M60 0v484h129v-484h-129zM134 577l-8 4q-32 16 -47 16q-22 0 -30 -43h-78q3 62 23.5 98t74.5 36q17 0 47 -16l8 -4q30 -16 47 -16q20 0 29 43h79q-3 -62 -23.5 -98t-74.5 -36q-17 0 -47 16z" />
<glyph unicode="&#x12a;" horiz-adv-x="280" d="M75 0v674h130v-674h-130zM7 767v97h267v-97h-267z" />
<glyph unicode="&#x12b;" horiz-adv-x="249" d="M60 0v484h129v-484h-129zM-9 577v97h267v-97h-267z" />
<glyph unicode="&#x12c;" horiz-adv-x="280" d="M75 0v674h130v-674h-130zM141 726h-2q-76 0 -113 45.5t-37 116.5h78q5 -41 22 -60.5t51 -19.5t51 19.5t22 60.5h78q0 -71 -37 -116.5t-113 -45.5z" />
<glyph unicode="&#x12d;" horiz-adv-x="249" d="M60 0v484h129v-484h-129zM126 536h-2q-76 0 -113 45.5t-37 116.5h78q5 -41 22 -60.5t51 -19.5t51 19.5t22 60.5h78q0 -71 -37 -116.5t-113 -45.5z" />
<glyph unicode="&#x12e;" horiz-adv-x="280" d="M75 0v674h130v-674h-44q-45 -64 -46 -87t61 -14l47 13v-88q-39 -18 -82 -23q-65 -7 -95 28t-11 97q11 36 40 74z" />
<glyph unicode="&#x12f;" horiz-adv-x="249" d="M60 0v484h129v-484h-43q-45 -64 -46 -87t61 -14l47 13v-88q-39 -18 -82 -23q-65 -7 -95 28t-11 97q11 36 40 74zM60 558v116h129v-116h-129z" />
<glyph unicode="&#x130;" horiz-adv-x="280" d="M75 0v674h130v-674h-130zM75 748v116h129v-116h-129z" />
<glyph unicode="&#x131;" horiz-adv-x="249" d="M60 0v484h129v-484h-129z" />
<glyph unicode="&#x132;" horiz-adv-x="730" d="M75 0v674h130v-674h-130zM290 33l31 95q47 -24 74 -31q36 -9 63 -9q28 0 50 10q29 17 29 95v481h128v-487q0 -57 -16 -97.5t-45 -62t-62 -31t-73 -9.5t-81 9q-40 8 -98 37z" />
<glyph unicode="&#x133;" horiz-adv-x="506" d="M60 0v484h129v-484h-129zM60 558v116h129v-116h-129zM446 484l-1 -517q0 -46 -13 -78.5t-29.5 -48t-41 -23.5t-37.5 -8.5t-29 -0.5q-46 0 -96 26l13 75q45 -17 70 -17q35 0 35 79v513h129zM317 558v116h129v-116h-129z" />
<glyph unicode="&#x134;" horiz-adv-x="450" d="M10 33l31 95q47 -24 74 -31q36 -9 63 -9q28 0 50 10q29 17 29 95v481h128v-487q0 -57 -16 -97.5t-45 -62t-62 -31t-73 -9.5t-81 9q-40 8 -98 37zM250 888h142l102 -153h-104l-69 83l-68 -83h-104z" />
<glyph unicode="&#x135;" horiz-adv-x="257" d="M197 484l-1 -517q0 -46 -13 -78.5t-29.5 -48t-41 -23.5t-37.5 -8.5t-29 -0.5q-46 0 -96 26l13 75q45 -17 70 -17q35 0 35 79v513h129zM56 698h142l102 -153h-104l-69 83l-68 -83h-104z" />
<glyph unicode="&#x136;" horiz-adv-x="625" d="M617 0h-157l-210 277l-54 -67v-210h-131v674h131v-299l227 299h150l-240 -304zM169 -231l90 184h136l-120 -184h-106z" />
<glyph unicode="&#x137;" horiz-adv-x="525" d="M305 299l210 -299h-144l-150 226l-28 -26v-200h-128v674h128v-338l143 148h155zM124 -231l90 184h136l-120 -184h-106z" />
<glyph unicode="&#x138;" horiz-adv-x="525" d="M319 276l197 -276h-140l-135 201l-48 -50v-151h-128v484h128v-195l169 195h142z" />
<glyph unicode="&#x139;" horiz-adv-x="554" d="M197 103v571h-132v-674h449v103h-317zM67 737l93 151h141l-126 -151h-108z" />
<glyph unicode="&#x13a;" horiz-adv-x="248" d="M60 0v674h129v-674h-129zM63 737l93 151h141l-126 -151h-108z" />
<glyph unicode="&#x13b;" horiz-adv-x="554" d="M197 674v-571h317v-103h-449v674h132zM138 -231l90 184h136l-120 -184h-106z" />
<glyph unicode="&#x13c;" horiz-adv-x="249" d="M60 0v674h129v-674h-129zM-38 -231l90 184h136l-120 -184h-106z" />
<glyph unicode="&#x13d;" horiz-adv-x="554" d="M197 674v-571h317v-103h-449v674h132zM266 490l98 184h136l-128 -184h-106z" />
<glyph unicode="&#x13e;" horiz-adv-x="390" d="M60 0v674h129v-674h-129zM249 490l98 184h136l-128 -184h-106z" />
<glyph unicode="&#x13f;" horiz-adv-x="554" d="M197 674v-571h317v-103h-449v674h132zM311 439v117h137v-117h-137z" />
<glyph unicode="&#x140;" horiz-adv-x="448" d="M60 0v674h129v-674h-129zM261 249v117h137v-117h-137z" />
<glyph unicode="&#x141;" horiz-adv-x="604" d="M115 0v232l-110 -74v95l110 73v348h131v-257l109 75v-99l-109 -72v-218h318v-103h-449z" />
<glyph unicode="&#x142;" horiz-adv-x="371" d="M250 369v-369h-129v280l-107 -74v93l107 76v299h129v-207l107 68v-96z" />
<glyph unicode="&#x143;" horiz-adv-x="689" d="M460 0l-265 512v-512h-130v674h173l256 -507v507h130v-674h-164zM270 737l93 151h141l-126 -151h-108z" />
<glyph unicode="&#x144;" d="M504 281v-281h-129v281q0 119 -78 119q-14 0 -29.5 -4.5t-35 -15.5t-32 -36t-12.5 -60v-284h-128v484h122v-74q29 53 66 70t91 17q165 0 165 -216zM194 547l93 151h141l-126 -151h-108z" />
<glyph unicode="&#x145;" horiz-adv-x="689" d="M460 0l-265 512v-512h-130v674h173l256 -507v507h130v-674h-164zM171 -231l90 184h136l-120 -184h-106z" />
<glyph unicode="&#x146;" d="M504 281v-281h-129v281q0 119 -78 119q-14 0 -29.5 -4.5t-35 -15.5t-32 -36t-12.5 -60v-284h-128v484h122v-74q29 53 66 70t91 17q165 0 165 -216zM125 -231l90 184h136l-120 -184h-106z" />
<glyph unicode="&#x147;" horiz-adv-x="689" d="M460 0l-265 512v-512h-130v674h173l256 -507v507h130v-674h-164zM416 735h-142l-102 153h104l69 -83l68 83h104z" />
<glyph unicode="&#x148;" d="M504 281v-281h-129v281q0 119 -78 119q-14 0 -29.5 -4.5t-35 -15.5t-32 -36t-12.5 -60v-284h-128v484h122v-74q29 53 66 70t91 17q165 0 165 -216zM353 545h-142l-102 153h104l69 -83l68 83h104z" />
<glyph unicode="&#x14a;" horiz-adv-x="689" d="M386 -194v101q6 -1 31 -1q45 0 62 22t17 72l-301 512v-512h-130v674h173l256 -456v456h130v-669q0 -57 -16 -97.5t-45 -62t-62 -31t-73 -9.5q-5 0 -21.5 0.5t-20.5 0.5z" />
<glyph unicode="&#x14b;" d="M504 281v-276q0 -57 -16 -97.5t-45 -62t-62 -31t-73 -9.5q-5 0 -21.5 0.5t-20.5 0.5v101q6 -1 31 -1q45 0 62 22t16 72v281q0 119 -78 119q-14 0 -29.5 -4.5t-35 -15.5t-32 -36t-12.5 -60v-284h-128v484h122v-74q29 53 66 70t91 17q165 0 165 -216z" />
<glyph unicode="&#x14c;" horiz-adv-x="743" d="M371 -13q154 0 243 93.5t89 256.5t-89 255.5t-243 92.5t-242.5 -92.5t-88.5 -255.5t89 -256.5t242 -93.5zM371 585q94 0 145 -71t51 -177q0 -110 -50.5 -180t-145.5 -70q-94 0 -144.5 70t-50.5 180q0 106 50.5 177t144.5 71zM238 767v97h267v-97h-267z" />
<glyph unicode="&#x14d;" horiz-adv-x="556" d="M35 242q0 -118 65 -186.5t177 -68.5q113 0 178.5 68.5t65.5 186.5t-65.5 186.5t-178.5 68.5q-112 0 -177 -68.5t-65 -186.5zM394 242q0 -64 -32 -112t-85 -48t-84 47.5t-31 112.5t31 112.5t84 47.5t85 -48t32 -112zM144 577v97h267v-97h-267z" />
<glyph unicode="&#x14e;" horiz-adv-x="743" d="M371 -13q154 0 243 93.5t89 256.5t-89 255.5t-243 92.5t-242.5 -92.5t-88.5 -255.5t89 -256.5t242 -93.5zM371 585q94 0 145 -71t51 -177q0 -110 -50.5 -180t-145.5 -70q-94 0 -144.5 70t-50.5 180q0 106 50.5 177t144.5 71zM372 726h-2q-76 0 -113 45.5t-37 116.5h78 q5 -41 22 -60.5t51 -19.5t51 19.5t22 60.5h78q0 -71 -37 -116.5t-113 -45.5z" />
<glyph unicode="&#x14f;" horiz-adv-x="556" d="M35 242q0 -118 65 -186.5t177 -68.5q113 0 178.5 68.5t65.5 186.5t-65.5 186.5t-178.5 68.5q-112 0 -177 -68.5t-65 -186.5zM394 242q0 -64 -32 -112t-85 -48t-84 47.5t-31 112.5t31 112.5t84 47.5t85 -48t32 -112zM279 536h-2q-76 0 -113 45.5t-37 116.5h78 q5 -41 22 -60.5t51 -19.5t51 19.5t22 60.5h78q0 -71 -37 -116.5t-113 -45.5z" />
<glyph unicode="&#x150;" horiz-adv-x="743" d="M371 -13q154 0 243 93.5t89 256.5t-89 255.5t-243 92.5t-242.5 -92.5t-88.5 -255.5t89 -256.5t242 -93.5zM371 585q94 0 145 -71t51 -177q0 -110 -50.5 -180t-145.5 -70q-94 0 -144.5 70t-50.5 180q0 106 50.5 177t144.5 71zM222 737l93 151h141l-126 -151h-108zM408 737 l93 151h141l-126 -151h-108z" />
<glyph unicode="&#x151;" horiz-adv-x="556" d="M35 242q0 -118 65 -186.5t177 -68.5q113 0 178.5 68.5t65.5 186.5t-65.5 186.5t-178.5 68.5q-112 0 -177 -68.5t-65 -186.5zM394 242q0 -64 -32 -112t-85 -48t-84 47.5t-31 112.5t31 112.5t84 47.5t85 -48t32 -112zM109 547l93 151h141l-126 -151h-108zM295 547l93 151 h141l-126 -151h-108z" />
<glyph unicode="&#x152;" horiz-adv-x="1090" d="M371 585q-94 0 -145 -71t-51 -177q0 -110 50.5 -179t145.5 -69t145 69t50 179q0 106 -50.5 177t-144.5 71zM567 0v76q-36 -44 -93.5 -65.5t-117.5 -21.5q-144 0 -230 93t-86 255q0 161 88 254.5t228 93.5q136 0 211 -87v76h471v-102h-339v-181h314v-102h-314v-187h346 v-102h-478z" />
<glyph unicode="&#x153;" horiz-adv-x="906" d="M636 -13q-51 0 -98.5 19.5t-76.5 52.5q-55 -72 -183 -72q-113 0 -178 68.5t-65 186.5t65 186.5t178 68.5q114 0 178 -81q26 37 73.5 59t102.5 22q110 0 174.5 -66.5t64.5 -181.5l-3 -51l-344 -3q5 -46 28.5 -74t54.5 -36.5t71 -5.5t73.5 12t67.5 23l20 -81 q-31 -18 -86 -32t-117 -14zM394 242q0 64 -31.5 112t-84.5 48q-54 0 -84.5 -47.5t-30.5 -112.5t30.5 -113t84.5 -48q53 0 84.5 48.5t31.5 112.5zM632 400q-47 0 -72.5 -34t-31.5 -82h214q-13 116 -110 116z" />
<glyph unicode="&#x154;" horiz-adv-x="634" d="M221 737l93 151h141l-126 -151h-108zM583 459q0 -10 -4 -26.5t-14 -43.5t-36.5 -53t-63.5 -41q49 -17 70 -74l81 -221h-137l-62 171q-16 46 -40 67t-61 21h-120v-259h-131v674h299q64 0 109.5 -20t68 -53.5t32 -68t9.5 -73.5zM196 361h171q47 0 67 31.5t20 65.5 q0 48 -23.5 81t-72.5 33h-162v-211z" />
<glyph unicode="&#x155;" horiz-adv-x="365" d="M353 492v-100h-54q-52 0 -79.5 -31t-27.5 -83v-278h-127v484h123v-78q35 86 127 86h38zM65 547l93 151h141l-126 -151h-108z" />
<glyph unicode="&#x156;" horiz-adv-x="634" d="M169 -231l90 184h136l-120 -184h-106zM583 459q0 -10 -4 -26.5t-14 -43.5t-36.5 -53t-63.5 -41q49 -17 70 -74l81 -221h-137l-62 171q-16 46 -40 67t-61 21h-120v-259h-131v674h299q64 0 109.5 -20t68 -53.5t32 -68t9.5 -73.5zM196 361h171q47 0 67 31.5t20 65.5 q0 48 -23.5 81t-72.5 33h-162v-211z" />
<glyph unicode="&#x157;" horiz-adv-x="365" d="M353 492v-100h-54q-52 0 -79.5 -31t-27.5 -83v-278h-127v484h123v-78q35 86 127 86h38zM-25 -231l90 184h136l-120 -184h-106z" />
<glyph unicode="&#x158;" horiz-adv-x="634" d="M388 735h-142l-102 153h104l69 -83l68 83h104zM583 459q0 -10 -4 -26.5t-14 -43.5t-36.5 -53t-63.5 -41q49 -17 70 -74l81 -221h-137l-62 171q-16 46 -40 67t-61 21h-120v-259h-131v674h299q64 0 109.5 -20t68 -53.5t32 -68t9.5 -73.5zM196 361h171q47 0 67 31.5t20 65.5 q0 48 -23.5 81t-72.5 33h-162v-211z" />
<glyph unicode="&#x159;" horiz-adv-x="365" d="M353 492v-100h-54q-52 0 -79.5 -31t-27.5 -83v-278h-127v484h123v-78q35 86 127 86h38zM254 545h-142l-102 153h104l69 -83l68 83h104z" />
<glyph unicode="&#x15a;" horiz-adv-x="590" d="M418 665q60 -21 113 -62l-46 -90q-92 71 -199 71q-42 0 -70.5 -20.5t-33.5 -50.5q-7 -55 75 -87l171 -67q132 -50 132 -168q0 -39 -21 -89q-25 -54 -85 -83.5t-143 -29.5q-87 0 -144 22q-91 34 -137 77l54 90q43 -38 106 -61.5t122 -23.5q84 0 113 62q12 31 -3.5 58 t-49.5 43l-186 72q-72 28 -105.5 73t-33.5 93q0 13 2 29q11 72 78 117t165 45q61 0 126 -20zM230 737l93 151h141l-126 -151h-108z" />
<glyph unicode="&#x15b;" horiz-adv-x="476" d="M251 86q23 0 42 9.5t26 24.5q3 7 4 12.5t-0.5 10t-3 7.5t-4.5 5.5t-5 4t-5 2.5l-3 2q-1 0 -11 4q-50 19 -142 53q-106 44 -106 127q0 69 57 109t136 40q103 0 195 -62l-46 -86q-3 1 -15.5 8.5t-17 10t-17 8.5t-19 9t-18 7.5t-20 6.5t-18.5 3.5t-19 1.5q-28 0 -49 -14.5 t-23 -32.5q-1 -11 2 -18.5t15.5 -14.5t20.5 -10t35 -12q34 -11 101 -36q103 -44 103 -126q0 -72 -54.5 -111.5t-142.5 -39.5q-54 0 -110 17q-62 18 -109 61l52 85q78 -66 169 -66zM167 547l93 151h141l-126 -151h-108z" />
<glyph unicode="&#x15c;" horiz-adv-x="590" d="M418 665q60 -21 113 -62l-46 -90q-92 71 -199 71q-42 0 -70.5 -20.5t-33.5 -50.5q-7 -55 75 -87l171 -67q132 -50 132 -168q0 -39 -21 -89q-25 -54 -85 -83.5t-143 -29.5q-87 0 -144 22q-91 34 -137 77l54 90q43 -38 106 -61.5t122 -23.5q84 0 113 62q12 31 -3.5 58 t-49.5 43l-186 72q-72 28 -105.5 73t-33.5 93q0 88 73.5 139.5t171.5 51.5q61 0 126 -20zM223 888h142l102 -153h-104l-69 83l-68 -83h-104z" />
<glyph unicode="&#x15d;" horiz-adv-x="476" d="M251 86q23 0 42 9.5t26 24.5q3 7 4 12.5t-0.5 10t-3 7.5t-4.5 5.5t-5 4t-5 2.5l-3 2q-1 0 -11 4q-50 19 -142 53q-106 44 -106 127q0 69 57 109t136 40q103 0 195 -62l-46 -86q-3 1 -15.5 8.5t-17 10t-17 8.5t-19 9t-18 7.5t-20 6.5t-18.5 3.5t-19 1.5q-28 0 -49 -14.5 t-23 -32.5q-1 -11 2 -18.5t15.5 -14.5t20.5 -10t35 -12q34 -11 101 -36q103 -44 103 -126q0 -35 -16 -65q-20 -41 -67.5 -63.5t-113.5 -22.5q-54 0 -110 17q-62 18 -109 61l52 85q78 -66 169 -66zM166 698h142l102 -153h-104l-69 83l-68 -83h-104z" />
<glyph unicode="&#x15e;" horiz-adv-x="590" d="M338 -10q25 -38 33 -64q19 -62 -11 -97t-95 -28q-43 5 -82 23v88l47 -13q21 -5 34.5 -5.5t19.5 4.5t6.5 13t-5 21t-13.5 27t-21 33q-49 5 -84 19q-91 34 -137 77l54 90q43 -38 106 -61.5t122 -23.5q84 0 113 62q12 31 -3.5 58t-49.5 43l-186 72q-72 28 -105.5 73 t-33.5 93q0 62 39 107t93 64.5t113 19.5q61 0 126 -20q60 -21 113 -62l-46 -90q-92 71 -199 71q-42 0 -70.5 -20.5t-33.5 -50.5q-7 -55 75 -87l171 -67q132 -50 132 -168q0 -92 -64 -143t-158 -58z" />
<glyph unicode="&#x15f;" horiz-adv-x="476" d="M285 -9q25 -35 34 -65q19 -62 -11 -97t-95 -28q-43 5 -82 23v88l47 -13q61 -15 61 12.5t-41 81.5q-34 5 -59 13q-62 18 -109 61l52 85q78 -66 169 -66q23 0 42 9.5t26 24.5q3 7 4 12.5t-0.5 10t-3 7.5t-4.5 5.5t-5 4t-5 2.5l-3 2q-1 0 -11 4q-50 19 -142 53 q-106 44 -106 127q0 69 57 109t136 40q103 0 195 -62l-46 -86q-3 1 -15.5 8.5t-17 10t-17 8.5t-19 9t-18 7.5t-20 6.5t-18.5 3.5t-19 1.5q-28 0 -49 -14.5t-23 -32.5q-1 -11 2 -18.5t15.5 -14.5t20.5 -10t35 -12q34 -11 101 -36q103 -44 103 -126q0 -64 -43.5 -102.5 t-117.5 -46.5z" />
<glyph unicode="&#x160;" horiz-adv-x="590" d="M418 665q60 -21 113 -62l-46 -90q-92 71 -199 71q-42 0 -70.5 -20.5t-33.5 -50.5q-7 -55 75 -87l171 -67q132 -50 132 -168q0 -96 -68 -149t-181 -53q-87 0 -144 22q-91 34 -137 77l54 90q43 -38 106 -61.5t122 -23.5q84 0 113 62q12 31 -3.5 58t-49.5 43l-186 72 q-72 28 -105.5 73t-33.5 93q0 13 2 29q11 72 78 117t165 45q61 0 126 -20zM366 735h-142l-102 153h104l69 -83l68 83h104z" />
<glyph unicode="&#x161;" horiz-adv-x="476" d="M251 86q23 0 42 9.5t26 24.5q3 7 4 12.5t-0.5 10t-3 7.5t-4.5 5.5t-5 4t-5 2.5l-3 2q-1 0 -11 4q-50 19 -142 53q-106 44 -106 127q0 69 57 109t136 40q103 0 195 -62l-46 -86q-3 1 -15.5 8.5t-17 10t-17 8.5t-19 9t-18 7.5t-20 6.5t-18.5 3.5t-19 1.5q-28 0 -49 -14.5 t-23 -32.5q-1 -11 2 -18.5t15.5 -14.5t20.5 -10t35 -12q34 -11 101 -36q103 -44 103 -126q0 -72 -54.5 -111.5t-142.5 -39.5q-54 0 -110 17q-62 18 -109 61l52 85q78 -66 169 -66zM309 545h-142l-102 153h104l69 -83l68 83h104z" />
<glyph unicode="&#x162;" horiz-adv-x="566" d="M556 572h-208v-572h-130v572h-208v102h546v-102zM122 -231l90 184h136l-120 -184h-106z" />
<glyph unicode="&#x163;" horiz-adv-x="353" d="M88 399h-76v85h76v116h127v-116h106v-85h-106v-250q0 -65 44 -65q19 0 64 14l10 -86q-47 -24 -92 -24q-18 0 -31 0.5t-38 8.5t-41.5 23.5t-29.5 48t-13 78.5v252zM50 -231l90 184h136l-120 -184h-106z" />
<glyph unicode="&#x164;" horiz-adv-x="566" d="M556 572h-208v-572h-130v572h-208v102h546v-102zM354 735h-142l-102 153h104l69 -83l68 83h104z" />
<glyph unicode="&#x165;" horiz-adv-x="421" d="M12 399h76v-252q0 -46 13 -78.5t29.5 -48t41.5 -23.5t38 -8.5t31 -0.5q45 0 92 24l-10 86q-45 -14 -64 -14q-44 0 -44 65v250h106v85h-106v116h-127v-116h-76v-85zM278 550l98 184h136l-128 -184h-106z" />
<glyph unicode="&#x166;" horiz-adv-x="566" d="M556 572h-208v-572h-130v572h-208v102h546v-102zM149 767v97h267v-97h-267z" />
<glyph unicode="&#x167;" horiz-adv-x="353" d="M88 229h-69v77h69v93h-76v85h76v116h127v-116h106v-85h-106v-93h78v-77h-78v-80q0 -65 44 -65q19 0 64 14l10 -86q-47 -24 -92 -24q-18 0 -31 0.5t-38 8.5t-41.5 23.5t-29.5 48t-13 78.5v82z" />
<glyph unicode="&#x168;" horiz-adv-x="708" d="M354 -13q-141 0 -215 72.5t-74 241.5v373h132v-375q0 -105 37 -153.5t120 -48.5t120.5 48.5t37.5 153.5v375h131v-373q0 -170 -73.5 -242t-215.5 -72zM363 767l-8 4q-32 16 -47 16q-22 0 -30 -43h-78q3 62 23.5 98t74.5 36q17 0 47 -16l8 -4q30 -16 47 -16q20 0 29 43h79 q-3 -62 -23.5 -98t-74.5 -36q-17 0 -47 16z" />
<glyph unicode="&#x169;" d="M60 203v281h128v-281q0 -120 79 -120q11 0 24 3t34.5 11.5t35.5 31t14 56.5v299h129v-484h-123v55q-20 -30 -55 -46.5t-53 -19t-31 -2.5q-75 0 -128.5 52t-53.5 164zM291 577l-8 4q-32 16 -47 16q-22 0 -30 -43h-78q3 62 23.5 98t74.5 36q17 0 47 -16l8 -4q30 -16 47 -16 q20 0 29 43h79q-3 -62 -23.5 -98t-74.5 -36q-17 0 -47 16z" />
<glyph unicode="&#x16a;" horiz-adv-x="708" d="M354 -13q142 0 215.5 72t73.5 242v373h-131v-375q0 -105 -37.5 -153.5t-120.5 -48.5t-120 48.5t-37 153.5v375h-132v-373q0 -169 74 -241.5t215 -72.5zM220 767v97h267v-97h-267z" />
<glyph unicode="&#x16b;" d="M60 203v281h128v-281q0 -120 79 -120q11 0 24 3t34.5 11.5t35.5 31t14 56.5v299h129v-484h-123v55q-20 -30 -55 -46.5t-53 -19t-31 -2.5q-75 0 -128.5 52t-53.5 164zM148 577v97h267v-97h-267z" />
<glyph unicode="&#x16c;" horiz-adv-x="708" d="M354 -13q142 0 215.5 72t73.5 242v373h-131v-375q0 -105 -37.5 -153.5t-120.5 -48.5t-120 48.5t-37 153.5v375h-132v-373q0 -169 74 -241.5t215 -72.5zM355 726h-2q-76 0 -113 45.5t-37 116.5h78q5 -41 22 -60.5t51 -19.5t51 19.5t22 60.5h78q0 -71 -37 -116.5 t-113 -45.5z" />
<glyph unicode="&#x16d;" d="M60 203v281h128v-281q0 -120 79 -120q11 0 24 3t34.5 11.5t35.5 31t14 56.5v299h129v-484h-123v55q-20 -30 -55 -46.5t-53 -19t-31 -2.5q-75 0 -128.5 52t-53.5 164zM283 536h-2q-76 0 -113 45.5t-37 116.5h78q5 -41 22 -60.5t51 -19.5t51 19.5t22 60.5h78 q0 -71 -37 -116.5t-113 -45.5z" />
<glyph unicode="&#x16e;" horiz-adv-x="708" d="M354 -13q-141 0 -215 72.5t-74 241.5v373h132v-375q0 -105 37 -153.5t120 -48.5t120.5 48.5t37.5 153.5v375h131v-373q0 -170 -73.5 -242t-215.5 -72zM237 849q0 48 29 80t87 32q62 0 89.5 -31.5t27.5 -80.5q0 -48 -27.5 -79t-89.5 -31q-58 0 -87 32t-29 78zM309 850 q0 -42 44 -42q45 0 45 42t-45 42q-44 0 -44 -42z" />
<glyph unicode="&#x16f;" d="M60 203v281h128v-281q0 -120 79 -120q11 0 24 3t34.5 11.5t35.5 31t14 56.5v299h129v-484h-123v55q-20 -30 -55 -46.5t-53 -19t-31 -2.5q-75 0 -128.5 52t-53.5 164zM165 659q0 48 29 80t87 32q62 0 89.5 -31.5t27.5 -80.5q0 -48 -27.5 -79t-89.5 -31q-58 0 -87 32 t-29 78zM237 660q0 -42 44 -42q45 0 45 42t-45 42q-44 0 -44 -42z" />
<glyph unicode="&#x170;" horiz-adv-x="708" d="M354 -13q142 0 215.5 72t73.5 242v373h-131v-375q0 -105 -37.5 -153.5t-120.5 -48.5t-120 48.5t-37 153.5v375h-132v-373q0 -169 74 -241.5t215 -72.5zM165 737l93 151h141l-126 -151h-108zM351 737l93 151h141l-126 -151h-108z" />
<glyph unicode="&#x171;" d="M60 203v281h128v-281q0 -120 79 -120q11 0 24 3t34.5 11.5t35.5 31t14 56.5v299h129v-484h-123v55q-20 -30 -55 -46.5t-53 -19t-31 -2.5q-75 0 -128.5 52t-53.5 164zM100 547l93 151h141l-126 -151h-108zM286 547l93 151h141l-126 -151h-108z" />
<glyph unicode="&#x172;" horiz-adv-x="708" d="M393 -11q-13 -18 -21 -32t-13 -26.5t-4.5 -20.5t6.5 -12.5t20 -4t35 5.5l47 13v-88q-39 -18 -82 -23q-65 -7 -95 28t-11 97q8 27 32 63q-118 10 -180 83.5t-62 228.5v373h132v-375q0 -105 37 -153.5t120 -48.5t120.5 48.5t37.5 153.5v375h131v-373q0 -158 -63.5 -230.5 t-186.5 -81.5z" />
<glyph unicode="&#x173;" d="M60 203v281h128v-281q0 -120 79 -120q11 0 24 3t34.5 11.5t35.5 31t14 56.5v299h129v-484h-35q-45 -64 -46 -87t61 -14l47 13v-88q-39 -18 -82 -23q-65 -7 -95 28t-11 97q11 36 40 74h-2v55q-20 -30 -55 -46.5t-53 -19t-31 -2.5q-75 0 -128.5 52t-53.5 164z" />
<glyph unicode="&#x174;" horiz-adv-x="953" d="M540 650l133 -474l134 498h136l-206 -674h-127l-133 464l-134 -464h-127l-206 674h135l135 -497l133 473h127zM405 888h142l102 -153h-104l-69 83l-68 -83h-104z" />
<glyph unicode="&#x175;" horiz-adv-x="806" d="M10 484h135l96 -342l95 342h134l96 -341l96 341h134l-168 -484h-115l-110 343l-108 -343h-116zM331 698h142l102 -153h-104l-69 83l-68 -83h-104z" />
<glyph unicode="&#x176;" horiz-adv-x="671" d="M403 0h-134v236l-259 438h151l175 -341l174 341h151l-258 -437v-237zM264 888h142l102 -153h-104l-69 83l-68 -83h-104z" />
<glyph unicode="&#x177;" horiz-adv-x="560" d="M83 -174l15 95q3 -1 13 -6t15.5 -7t15.5 -4t17 0t15 8t14 17l33 81q-15 34 -37 84t-69.5 156t-104.5 234h135l138 -327q43 106 132 327h135l-252 -594q-14 -33 -43.5 -53t-51 -24.5t-41.5 -4.5q-30 0 -79 18zM208 698h142l102 -153h-104l-69 83l-68 -83h-104z" />
<glyph unicode="&#x178;" horiz-adv-x="671" d="M269 0h134v237l258 437h-151l-174 -341l-175 341h-151l259 -438v-236zM185 754v116h123v-116h-123zM362 754v116h123v-116h-123z" />
<glyph unicode="&#x179;" horiz-adv-x="612" d="M565 0h-535v99l384 473h-368v102h536v-96l-390 -474h373v-104zM241 737l93 151h141l-126 -151h-108z" />
<glyph unicode="&#x17a;" horiz-adv-x="479" d="M25 0v83l270 305h-260v96h419v-83l-270 -305h261v-96h-420zM161 547l93 151h141l-126 -151h-108z" />
<glyph unicode="&#x17b;" horiz-adv-x="612" d="M565 0h-535v99l384 473h-368v102h536v-96l-390 -474h373v-104zM241 748v116h129v-116h-129z" />
<glyph unicode="&#x17c;" horiz-adv-x="479" d="M25 0v83l270 305h-260v96h419v-83l-270 -305h261v-96h-420zM175 558v116h129v-116h-129z" />
<glyph unicode="&#x17d;" horiz-adv-x="612" d="M565 0h-535v99l384 473h-368v102h536v-96l-390 -474h373v-104zM377 735h-142l-102 153h104l69 -83l68 83h104z" />
<glyph unicode="&#x17e;" horiz-adv-x="479" d="M25 0v83l270 305h-260v96h419v-83l-270 -305h261v-96h-420zM311 545h-142l-102 153h104l69 -83l68 83h104z" />
<glyph unicode="&#x17f;" horiz-adv-x="247" d="M16 484h60v72q0 42 13 68.5t35 36t35 11.5t30 2h4q31 0 74 -23l-12 -67q-44 15 -53 15q-16 0 -16 -32v-567h-110v410h-60v74z" />
<glyph unicode="&#x192;" horiz-adv-x="572" d="M130 -35l108 430h-56l22 89h57l9 33q40 158 185 156h4q42 0 88 -28l-20 -82q-38 18 -71 18q-18 0 -30.5 -12t-16 -21t-9.5 -27l-9 -37h89l-22 -89h-90l-108 -426q-12 -45 -34 -77t-42.5 -47t-47.5 -23t-38.5 -9t-25.5 -1q-40 0 -87 29l19 83q55 -18 71 -18q41 0 55 59z " />
<glyph unicode="&#x1fa;" horiz-adv-x="705" d="M148 0h-138l280 674h125l280 -674h-138l-62 152h-287zM353 545l-107 -292h212zM237 828q0 -46 29 -78t87 -32q62 0 89.5 31t27.5 79q0 49 -27.5 80.5t-89.5 31.5q-58 0 -87 -32t-29 -80zM309 829q0 42 44 42q45 0 45 -42t-45 -42q-44 0 -44 42zM297 976l93 151h141 l-126 -151h-108z" />
<glyph unicode="&#x1fb;" horiz-adv-x="519" d="M134 642q0 -46 29 -78t87 -32q62 0 89.5 31t27.5 79q0 49 -27.5 80.5t-89.5 31.5q-58 0 -87 -32t-29 -80zM206 643q0 42 44 42q45 0 45 -42t-45 -42q-44 0 -44 42zM194 790l93 151h141l-126 -151h-108zM332 0h132v337q0 48 -22 82t-53.5 48t-63 21.5t-53.5 7.5h-22 q-50 0 -96.5 -12.5t-68 -24t-21.5 -13.5l32 -76q28 14 65 24t77 13.5t68 -15t29 -58.5v-12q-143 -10 -224 -59.5t-81 -130.5q0 -48 26.5 -82.5t60.5 -48.5t68 -14q36 0 81 15.5t66 52.5v-55zM225 79q-32 0 -53 15t-22 42q-1 40 51 67.5t134 34.5v-70q0 -26 -14 -45.5 t-34.5 -28t-36 -12t-25.5 -3.5z" />
<glyph unicode="&#x1fc;" horiz-adv-x="954" d="M432 582l-163 -329h163v329zM563 102h346v-102h-477v152h-203l-74 -152h-145l338 674h554v-102h-338v-181h314v-102h-315v-187zM360 737l93 151h141l-126 -151h-108z" />
<glyph unicode="&#x1fd;" horiz-adv-x="852" d="M588 -12q121 0 198 47l-28 85q-87 -35 -162 -35q-55 0 -89 31t-43 82h350l3 51q0 113 -64 180.5t-160 67.5q-115 0 -171 -68q-24 35 -65 51.5t-71 15.5h-29q-50 0 -96.5 -12.5t-68 -24t-21.5 -13.5l32 -76q28 14 65 24t77 13.5t68 -15t29 -58.5v-12q-143 -10 -224 -59.5 t-81 -130.5q0 -48 26.5 -82.5t60.5 -48.5t68 -14q140 0 185 89q57 -88 211 -88zM232 79q-32 0 -53 15t-22 42q-1 39 52 66.5t133 34.5v-46v-23q0 -26 -14 -45.5t-34.5 -28t-36 -12t-25.5 -3.5zM578 400q47 0 80.5 -30t33.5 -81h-228v4q1 42 36 74.5t78 32.5zM354 547l93 151 h141l-126 -151h-108z" />
<glyph unicode="&#x1fe;" horiz-adv-x="743" d="M314 737l93 151h141l-126 -151h-108zM212 178l246 386q-40 21 -87 21q-94 0 -144.5 -71t-50.5 -177q0 -95 36 -159zM142 68q-102 94 -102 269q0 163 88.5 255.5t242.5 92.5q83 0 147 -27l40 64h96l-66 -106q115 -95 115 -279q0 -163 -89 -256.5t-243 -93.5q-89 0 -161 33 l-53 -75h-98zM520 508l-251 -393q44 -28 102 -28q95 0 145.5 70t50.5 180q0 104 -47 171z" />
<glyph unicode="&#x1ff;" horiz-adv-x="556" d="M212 547l93 151h141l-126 -151h-108zM413 526l-32 -48q-48 19 -104 19q-112 0 -177 -68.5t-65 -186.5q0 -127 72 -194l-61 -94h87l35 54q52 -21 109 -21q113 0 178.5 68.5t65.5 186.5q0 128 -77 197l56 87h-87zM225 97l150 234q19 -41 19 -89q0 -64 -32 -112t-85 -48 q-29 0 -52 15zM325 389l-148 -230q-15 37 -15 83q0 65 31 112.5t84 47.5q25 0 48 -13z" />
<glyph unicode="&#x218;" horiz-adv-x="590" d="M418 665q60 -21 113 -62l-46 -90q-92 71 -199 71q-42 0 -70.5 -20.5t-33.5 -50.5q-7 -55 75 -87l171 -67q132 -50 132 -168q0 -94 -73 -148t-176 -54q-87 0 -144 22q-91 34 -137 77l54 90q43 -38 106 -61.5t122 -23.5q84 0 113 62q12 31 -3.5 58t-49.5 43l-186 72 q-72 28 -105.5 73t-33.5 93q0 88 73.5 139.5t171.5 51.5q61 0 126 -20zM158 -231l90 184h136l-120 -184h-106z" />
<glyph unicode="&#x219;" horiz-adv-x="476" d="M251 86q23 0 42 9.5t26 24.5q3 7 4 12.5t-0.5 10t-3 7.5t-4.5 5.5t-5 4t-5 2.5l-3 2q-1 0 -11 4q-50 19 -142 53q-106 44 -106 127q0 69 57 109t136 40q103 0 195 -62l-46 -86q-3 1 -15.5 8.5t-17 10t-17 8.5t-19 9t-18 7.5t-20 6.5t-18.5 3.5t-19 1.5q-28 0 -49 -14.5 t-23 -32.5q-1 -11 2 -18.5t15.5 -14.5t20.5 -10t35 -12q34 -11 101 -36q103 -44 103 -126q0 -35 -16 -65q-20 -41 -67.5 -63.5t-113.5 -22.5q-54 0 -110 17q-62 18 -109 61l52 85q78 -66 169 -66zM92 -231l90 184h136l-120 -184h-106z" />
<glyph unicode="&#x2b0;" horiz-adv-x="351" d="M316 577v-177h-92v177q0 68 -41 68q-11 0 -23 -4t-24.5 -20t-12.5 -42v-179h-92v420h92v-148q27 40 75 40q118 0 118 -135z" />
<glyph unicode="&#x2b2;" horiz-adv-x="167" d="M135 704l-1 -321q0 -36 -11.5 -58.5t-30.5 -30.5t-30.5 -10t-25.5 -1q-32 0 -66 18l9 55q35 -14 49 -14t14 44v318h93zM42 741v79h93v-79h-93z" />
<glyph unicode="&#x2b7;" horiz-adv-x="511" d="M6 704h97l54 -186q9 32 27 95.5t25 90.5h93l53 -188l53 188h97l-105 -304h-83l-61 189q-7 -21 -19.5 -59.5t-23 -70t-18.5 -59.5h-83z" />
<glyph unicode="&#x2b8;" horiz-adv-x="361" d="M54 296l10 68l15 -7q29 -15 39 5l19 49l-131 293h97l80 -197l74 197h98l-158 -369q-12 -29 -39 -40.5t-49 -11.5t-55 13z" />
<glyph unicode="&#x2c6;" horiz-adv-x="425" d="M141 698h142l102 -153h-104l-69 83l-68 -83h-104z" />
<glyph unicode="&#x2c7;" horiz-adv-x="425" d="M284 545h-142l-102 153h104l69 -83l68 83h104z" />
<glyph unicode="&#x2d8;" horiz-adv-x="382" d="M192 536q-78 0 -115 45.5t-37 116.5h78q5 -41 22 -60.5t51 -19.5t51 19.5t22 60.5h78q0 -71 -37 -116.5t-113 -45.5z" />
<glyph unicode="&#x2d9;" horiz-adv-x="209" d="M40 558v116h129v-116h-129z" />
<glyph unicode="&#x2da;" horiz-adv-x="313" d="M40 659q0 48 29 80t87 32q62 0 89.5 -31.5t27.5 -80.5q0 -48 -27.5 -79t-89.5 -31q-58 0 -87 32t-29 78zM112 660q0 -42 44 -42q45 0 45 42t-45 42q-44 0 -44 -42z" />
<glyph unicode="&#x2db;" horiz-adv-x="276" d="M96 10h85q-61 -87 -51 -107q9 -16 59 -4l47 13v-88q-39 -18 -82 -23q-65 -7 -95 28t-11 97q13 43 48 84z" />
<glyph unicode="&#x2dc;" horiz-adv-x="388" d="M203 577l-8 4q-32 16 -47 16q-22 0 -30 -43h-78q3 62 23.5 98t74.5 36q17 0 47 -16l8 -4q30 -16 47 -16q20 0 29 43h79q-3 -62 -23.5 -98t-74.5 -36q-17 0 -47 16z" />
<glyph unicode="&#x2dd;" horiz-adv-x="500" d="M40 547l93 151h141l-126 -151h-108zM226 547l93 151h141l-126 -151h-108z" />
<glyph unicode="&#x2e3;" horiz-adv-x="358" d="M240 704h103l-109 -151l118 -153h-105l-68 105l-68 -105h-105l118 153q-19 25 -56.5 77t-53.5 74h105l60 -101z" />
<glyph unicode="&#x394;" horiz-adv-x="705" d="M10 0l280 674h125l280 -674h-685zM353 545l-167 -443h333z" />
<glyph unicode="&#x3a9;" horiz-adv-x="700" d="M350 574q-101 0 -146.5 -63.5t-45.5 -171.5q0 -101 34 -158.5t118 -72.5v-108h-260v94h108q-59 33 -88.5 98.5t-29.5 146.5q0 163 81.5 252.5t228.5 89.5t228.5 -89.5t81.5 -252.5q0 -81 -29.5 -146.5t-88.5 -98.5h108v-94h-260v108q84 15 118 72.5t34 158.5 q0 108 -45.5 171.5t-146.5 63.5z" />
<glyph unicode="&#x3bc;" d="M188 29v-217h-128v672h128v-293q3 -106 79 -106q11 0 24 2.5t34.5 10.5t35.5 30.5t14 56.5v299h129v-484h-123v55q-1 -1 -10 -12.5t-16 -18.5t-19.5 -17t-28.5 -15t-35 -5q-54 0 -84 42z" />
<glyph unicode="&#x3c0;" horiz-adv-x="634" d="M506 384v-384h-117v384h-152v-384h-116v384h-81v100h554v-100h-88z" />
<glyph unicode="&#x1e80;" horiz-adv-x="953" d="M540 650l133 -474l134 498h136l-206 -674h-127l-133 464l-134 -464h-127l-206 674h135l135 -497l133 473h127zM444 888l93 -151h-108l-126 151h141z" />
<glyph unicode="&#x1e81;" horiz-adv-x="806" d="M10 484h135l96 -342l95 342h134l96 -341l96 341h134l-168 -484h-115l-110 343l-108 -343h-116zM373 698l93 -151h-108l-126 151h141z" />
<glyph unicode="&#x1e82;" horiz-adv-x="953" d="M673 176l-133 474h-127l-133 -473l-135 497h-135l206 -674h127l134 464l133 -464h127l206 674h-136zM412 737l93 151h141l-126 -151h-108z" />
<glyph unicode="&#x1e83;" horiz-adv-x="806" d="M10 484h135l96 -342l95 342h134l96 -341l96 341h134l-168 -484h-115l-110 343l-108 -343h-116zM335 547l93 151h141l-126 -151h-108z" />
<glyph unicode="&#x1e84;" horiz-adv-x="953" d="M673 176l-133 474h-127l-133 -473l-135 497h-135l206 -674h127l134 464l133 -464h127l206 674h-136zM326 754v116h123v-116h-123zM503 754v116h123v-116h-123z" />
<glyph unicode="&#x1e85;" horiz-adv-x="806" d="M10 484h135l96 -342l95 342h134l96 -341l96 341h134l-168 -484h-115l-110 343l-108 -343h-116zM253 564v116h123v-116h-123zM430 564v116h123v-116h-123z" />
<glyph unicode="&#x1ef2;" horiz-adv-x="671" d="M403 0h-134v236l-259 438h151l175 -341l174 341h151l-258 -437v-237zM305 888l93 -151h-108l-126 151h141z" />
<glyph unicode="&#x1ef3;" horiz-adv-x="560" d="M83 -174l15 95q3 -1 13 -6t15.5 -7t15.5 -4t17 0t15 8t14 17l33 81q-15 34 -37 84t-69.5 156t-104.5 234h135l138 -327q43 106 132 327h135l-252 -594q-14 -33 -43.5 -53t-51 -24.5t-41.5 -4.5q-30 0 -79 18zM266 698l93 -151h-108l-126 151h141z" />
<glyph unicode="&#x2013;" horiz-adv-x="578" d="M40 316h498v-100h-498v100z" />
<glyph unicode="&#x2014;" horiz-adv-x="762" d="M40 316h682v-99h-682v99z" />
<glyph unicode="&#x2018;" horiz-adv-x="333" d="M283 674l-98 -185h-135l126 185h107z" />
<glyph unicode="&#x2019;" horiz-adv-x="334" d="M50 490l98 184h136l-128 -184h-106z" />
<glyph unicode="&#x201a;" horiz-adv-x="312" d="M40 -72l96 189h136l-126 -189h-106z" />
<glyph unicode="&#x201c;" horiz-adv-x="513" d="M184 674l99 -184h-106l-127 184h134zM365 674l98 -184h-105l-127 184h134z" />
<glyph unicode="&#x201d;" horiz-adv-x="513" d="M230 490l99 184h134l-127 -184h-106zM50 490l98 184h134l-127 -184h-105z" />
<glyph unicode="&#x201e;" horiz-adv-x="500" d="M40 -72l96 189h136l-126 -189h-106zM228 -72l96 189h136l-126 -189h-106z" />
<glyph unicode="&#x2020;" horiz-adv-x="489" d="M290 427v-427h-92v427h-158v80h158v167h92v-167h159v-80h-159z" />
<glyph unicode="&#x2021;" horiz-adv-x="489" d="M449 169h-159v-169h-92v169h-158v81h158v177h-158v80h158v167h92v-167h159v-80h-159v-177h159v-81z" />
<glyph unicode="&#x2022;" horiz-adv-x="354" d="M50 302q0 50 36.5 84t89.5 34t90.5 -34.5t37.5 -83.5t-37.5 -83t-90.5 -34t-89.5 34t-36.5 83z" />
<glyph unicode="&#x2026;" horiz-adv-x="691" d="M50 0v117h129v-117h-129zM281 0v117h129v-117h-129zM513 0v117h128v-117h-128z" />
<glyph unicode="&#x2030;" horiz-adv-x="1220" d="M40 492q0 -81 45 -127t122 -46q78 0 123.5 46t45.5 127t-45.5 126.5t-123.5 45.5t-122.5 -45.5t-44.5 -126.5zM269 492q0 -38 -15.5 -63.5t-46.5 -25.5q-30 0 -45 25t-15 64t15 64t45 25q31 0 46.5 -25t15.5 -64zM458 162q0 -81 45 -127t122 -46q78 0 123.5 46t45.5 127 t-45.5 126.5t-123.5 45.5t-122.5 -45.5t-44.5 -126.5zM687 162q0 -38 -15.5 -63.5t-46.5 -25.5q-30 0 -45 25t-15 64t15 64t45 25q31 0 46.5 -25t15.5 -64zM844 162q0 -81 45 -127t122 -46q78 0 123.5 46t45.5 127t-45.5 126.5t-123.5 45.5t-122.5 -45.5t-44.5 -126.5z M1073 162q0 -38 -15.5 -63.5t-46.5 -25.5q-30 0 -45 25t-15 64t15 64t45 25q31 0 46.5 -25t15.5 -64zM184 0l393 674h76l-392 -674h-77z" />
<glyph unicode="&#x2039;" horiz-adv-x="334" d="M289 557l-130 -235l135 -230h-123l-131 233l131 232h118z" />
<glyph unicode="&#x203a;" horiz-adv-x="334" d="M175 322l-130 235h118l131 -232l-131 -233h-123z" />
<glyph unicode="&#x2044;" horiz-adv-x="549" d="M46 0l393 674h65l-392 -674h-66z" />
<glyph unicode="&#x2070;" horiz-adv-x="375" d="M187 439q-70 0 -111 53.5t-41 145.5t40.5 143.5t111.5 51.5q72 0 112.5 -51.5t40.5 -143.5t-41 -145.5t-112 -53.5zM187 764q-31 0 -49 -36.5t-18 -89.5q0 -54 18 -91.5t49 -37.5q32 0 50 37.5t18 91.5q0 53 -18 89.5t-50 36.5z" />
<glyph unicode="&#x2074;" horiz-adv-x="362" d="M280 450h-82v75h-168v56q54 114 172 249h78v-243h52v-62h-52v-75zM106 587h92v140q-71 -83 -92 -140z" />
<glyph unicode="&#x2075;" horiz-adv-x="370" d="M247 574q0 29 -17 46t-42 17q-43 0 -60 -35h-71l29 220h218v-67h-157l-11 -79q27 25 77 25q46 0 80.5 -35.5t34.5 -93.5q0 -60 -45.5 -96.5t-107.5 -36.5q-86 0 -133 75l43 47q41 -56 86 -56q40 0 58 21.5t18 47.5z" />
<glyph unicode="&#x2076;" horiz-adv-x="369" d="M304 803l-24 -54q-35 21 -67 21q-80 0 -86 -101q32 33 80 33q50 0 85 -36.5t35 -95.5q0 -61 -38.5 -96t-100.5 -35q-45 0 -76 18t-45 48.5t-19.5 58.5t-5.5 59q0 102 44.5 155.5t117.5 53.5q50 0 100 -29zM188 501q26 0 43 22.5t17 46.5q0 25 -17 47t-44 22 q-25 0 -42 -19.5t-17 -45.5q0 -30 17.5 -51.5t42.5 -21.5z" />
<glyph unicode="&#x2077;" horiz-adv-x="367" d="M42 762v68h283v-53q-101 -136 -166 -327h-94q80 203 171 312h-194z" />
<glyph unicode="&#x2078;" horiz-adv-x="366" d="M184 439q-72 0 -109 33t-37 82q0 23 16 50t50 43q-54 30 -54 83q0 55 40 79t94 24q51 0 92 -26t41 -77q0 -20 -15 -44t-41 -39q36 -15 51.5 -42t15.5 -51q0 -49 -36.5 -82t-107.5 -33zM184 502q26 0 42 16.5t16 38.5q0 24 -15.5 43t-42.5 20q-28 -1 -43.5 -21t-15.5 -42 t16 -38.5t43 -16.5zM184 675q23 0 36 14t13 36q0 18 -13.5 34t-35.5 16q-24 0 -38 -16t-14 -33q0 -23 14 -37t38 -14z" />
<glyph unicode="&#x2079;" horiz-adv-x="361" d="M61 468l24 54q35 -21 67 -21q80 0 86 101q-32 -33 -80 -33q-50 0 -85 36.5t-35 95.5q0 61 38.5 96t100.5 35q45 0 76 -18t45 -48.5t19.5 -58.5t5.5 -59q0 -102 -44.5 -155.5t-117.5 -53.5q-54 0 -100 29zM177 770q-26 0 -43 -22.5t-17 -46.5q0 -25 17 -47.5t44 -22.5 q25 0 42 20t17 46q0 30 -17.5 51.5t-42.5 21.5z" />
<glyph unicode="&#x207f;" horiz-adv-x="351" d="M316 576v-176h-92v176q0 69 -41 69q-11 0 -23 -4t-24.5 -20.5t-12.5 -42.5v-178h-92v304h88v-38q28 46 90 46q107 0 107 -136z" />
<glyph unicode="&#x2080;" horiz-adv-x="375" d="M187 -191q-70 0 -111 53.5t-41 145.5t40.5 143.5t111.5 51.5q72 0 112.5 -51.5t40.5 -143.5t-41 -145.5t-112 -53.5zM187 134q-31 0 -49 -36.5t-18 -89.5q0 -54 18 -91.5t49 -37.5q32 0 50 37.5t18 91.5q0 53 -18 89.5t-50 36.5z" />
<glyph unicode="&#x2081;" horiz-adv-x="276" d="M61 67l-35 47l98 86h71v-380h-84v291z" />
<glyph unicode="&#x2082;" horiz-adv-x="385" d="M186 133q-26 0 -53 -16.5t-42 -35.5l-38 52l2 4q63 66 134 66q58 0 98 -33t40 -87q0 -16 -8 -31.5t-15 -25t-27.5 -25.5t-27 -20t-31.5 -21q-69 -40 -86 -71h189v-69h-277v41q0 46 32.5 79.5t92.5 71.5q22 12 35 21t26 24t13 29q0 20 -15.5 33.5t-41.5 13.5z" />
<glyph unicode="&#x2083;" horiz-adv-x="344" d="M162 -188q-80 0 -141 58l33 54q53 -47 106 -47q24 0 38.5 15.5t14.5 35.5q0 21 -15.5 38t-40.5 17h-52v62h50q24 0 39 15t15 33q0 19 -14.5 34.5t-36.5 15.5q-48 0 -91 -50l-35 54q46 59 128 59q57 1 95.5 -29t38.5 -83q0 -19 -14 -42t-42 -35q32 -10 47 -37t15 -51 q0 -52 -41.5 -84.5t-96.5 -32.5z" />
<glyph unicode="&#x2084;" horiz-adv-x="362" d="M280 -180h-82v75h-168v56q54 114 172 249h78v-243h52v-62h-52v-75zM106 -43h92v140q-71 -83 -92 -140z" />
<glyph unicode="&#x2085;" horiz-adv-x="370" d="M247 -56q0 29 -17 46t-42 17q-43 0 -60 -35h-71l29 220h218v-67h-157l-11 -79q27 25 77 25q46 0 80.5 -35.5t34.5 -93.5q0 -60 -45.5 -96.5t-107.5 -36.5q-86 0 -133 75l43 47q41 -56 86 -56q40 0 58 21.5t18 47.5z" />
<glyph unicode="&#x2086;" horiz-adv-x="369" d="M304 173l-24 -54q-35 21 -67 21q-80 0 -86 -101q32 33 80 33q50 0 85 -36.5t35 -95.5q0 -61 -38.5 -96t-100.5 -35q-45 0 -76 18t-45 48.5t-19.5 58.5t-5.5 59q0 102 44.5 155.5t117.5 53.5q50 0 100 -29zM188 -129q26 0 43 22.5t17 46.5q0 25 -17 47t-44 22 q-25 0 -42 -19.5t-17 -45.5q0 -30 17.5 -51.5t42.5 -21.5z" />
<glyph unicode="&#x2087;" horiz-adv-x="367" d="M42 132v68h283v-53q-101 -136 -166 -327h-94q80 203 171 312h-194z" />
<glyph unicode="&#x2088;" horiz-adv-x="366" d="M184 -191q-72 0 -109 33t-37 82q0 23 16 50t50 43q-54 30 -54 83q0 55 40 79t94 24q51 0 92 -26t41 -77q0 -20 -15 -44t-41 -39q36 -15 51.5 -42t15.5 -51q0 -49 -36.5 -82t-107.5 -33zM184 -128q26 0 42 16.5t16 38.5q0 24 -15.5 43t-42.5 20q-28 -1 -43.5 -21 t-15.5 -42t16 -38.5t43 -16.5zM184 45q23 0 36 14t13 36q0 18 -13.5 34t-35.5 16q-24 0 -38 -16t-14 -33q0 -23 14 -37t38 -14z" />
<glyph unicode="&#x2089;" horiz-adv-x="361" d="M61 -162l24 54q35 -21 67 -21q80 0 86 101q-32 -33 -80 -33q-50 0 -85 36.5t-35 95.5q0 61 38.5 96t100.5 35q45 0 76 -18t45 -48.5t19.5 -58.5t5.5 -59q0 -102 -44.5 -155.5t-117.5 -53.5q-54 0 -100 29zM177 140q-26 0 -43 -22.5t-17 -46.5q0 -25 17 -47.5t44 -22.5 q25 0 42 20t17 46q0 30 -17.5 51.5t-42.5 21.5z" />
<glyph unicode="&#x20ac;" horiz-adv-x="678" d="M21 227l33 80h80q-2 4 -0.5 19.5t1.5 19.5h-115l34 79h90q28 113 114 180.5t215 67.5q86 0 165 -41l-41 -80q-44 24 -103 24q-170 0 -218 -151h289l-39 -79h-266q-1 -27 0 -39h258l-39 -80h-198q24 -62 78 -101t135 -39q52 0 113 32l31 -88q-81 -42 -165 -42 q-125 0 -210.5 65t-115.5 173h-126z" />
<glyph unicode="&#x2113;" horiz-adv-x="351" d="M320 516v-146q0 -58 -19 -99t-46.5 -58.5t-47.5 -24t-34 -6.5q-19 0 -27 1v-46q0 -58 54 -58q28 0 89 17l11 -81q-26 -14 -65 -20t-57 -6q-68 0 -101 30q-46 40 -46 129v368q0 141 111 157q12 2 39 2q13 0 24.5 -1t34.5 -10t39 -24t28.5 -47.5t12.5 -76.5zM204 359v168 q0 58 -29 58t-29 -58v-246q29 2 43.5 28.5t14.5 49.5z" />
<glyph unicode="&#x2122;" horiz-adv-x="816" d="M324 613h-107v-339h-78v339h-124v61h416l111 -294l110 294h103l21 -400h-79l-18 282l-107 -282h-62l-106 282l-18 -282h-79z" />
<glyph unicode="&#x212e;" horiz-adv-x="678" d="M613 282h-429v-193q66 -63 152 -63q76 0 123 33t87 94l31 -19q-44 -68 -99 -104.5t-142 -36.5q-119 0 -195 84.5t-76 205.5q0 123 75 206.5t200 83.5q124 0 198.5 -84.5t74.5 -206.5zM493 315v163q-68 62 -153 62q-96 0 -156 -62v-163h309z" />
<glyph unicode="&#x2153;" horiz-adv-x="785" d="M124 0l393 674h65l-392 -674h-66zM587 -8q-80 0 -141 58l33 54q53 -47 106 -47q24 0 38.5 15.5t14.5 35.5q0 21 -15.5 38t-40.5 17h-52v62h50q24 0 39 15t15 33q0 19 -14.5 34.5t-36.5 15.5q-48 0 -91 -50l-35 54q46 59 128 59q57 1 95.5 -29t38.5 -83q0 -19 -14 -42 t-42 -35q32 -10 47 -37t15 -51q0 -52 -41.5 -84.5t-96.5 -32.5zM95 541l-35 47l98 86h71v-380h-84v291z" />
<glyph unicode="&#x2154;" horiz-adv-x="863" d="M215 0l393 674h65l-392 -674h-66zM665 -8q-80 0 -141 58l33 54q53 -47 106 -47q24 0 38.5 15.5t14.5 35.5q0 21 -15.5 38t-40.5 17h-52v62h50q24 0 39 15t15 33q0 19 -14.5 34.5t-36.5 15.5q-48 0 -91 -50l-35 54q46 59 128 59q57 1 95.5 -29t38.5 -83q0 -19 -14 -42 t-42 -35q32 -10 47 -37t15 -51q0 -52 -41.5 -84.5t-96.5 -32.5zM202 607q-26 0 -53 -16.5t-42 -35.5l-38 52l2 4q63 66 134 66q58 0 98 -33t40 -87q0 -16 -8 -31.5t-15 -25t-27.5 -25.5t-27 -20t-31.5 -21q-69 -40 -86 -71h189v-69h-277v41q0 46 32.5 79.5t92.5 71.5 q22 12 35 21t26 24t13 29q0 20 -15.5 33.5t-41.5 13.5z" />
<glyph unicode="&#x215b;" horiz-adv-x="772" d="M120 0l393 674h76l-392 -674h-77zM568 -11q71 0 107.5 33t36.5 82q0 24 -15.5 51t-51.5 42q26 15 41 39t15 44q0 51 -41 77t-92 26q-54 0 -94 -24t-40 -79q0 -53 54 -83q-34 -16 -50 -43t-16 -50q0 -49 37 -82t109 -33zM568 52q-27 0 -43 16.5t-16 38.5t15.5 42t43.5 21 q27 -1 42.5 -20t15.5 -43q0 -22 -16 -38.5t-42 -16.5zM568 225q-24 0 -38 14t-14 37q0 17 14 33t38 16q22 0 35.5 -16t13.5 -34q0 -22 -13 -36t-36 -14zM95 541l-35 47l98 86h71v-380h-84v291z" />
<glyph unicode="&#x215c;" horiz-adv-x="836" d="M184 0l393 674h76l-392 -674h-77zM632 -11q71 0 107.5 33t36.5 82q0 24 -15.5 51t-51.5 42q26 15 41 39t15 44q0 51 -41 77t-92 26q-54 0 -94 -24t-40 -79q0 -53 54 -83q-34 -16 -50 -43t-16 -50q0 -49 37 -82t109 -33zM632 52q-27 0 -43 16.5t-16 38.5t15.5 42t43.5 21 q27 -1 42.5 -20t15.5 -43q0 -22 -16 -38.5t-42 -16.5zM632 225q-24 0 -38 14t-14 37q0 17 14 33t38 16q22 0 35.5 -16t13.5 -34q0 -22 -13 -36t-36 -14zM201 286q-80 0 -141 58l33 54q53 -47 106 -47q24 0 38.5 15.5t14.5 35.5q0 21 -15.5 38t-40.5 17h-52v62h50q24 0 39 15 t15 33q0 19 -14.5 34.5t-36.5 15.5q-48 0 -91 -50l-35 54q46 59 128 59q57 1 95.5 -29t38.5 -83q0 -19 -14 -42t-42 -35q32 -10 47 -37t15 -51q0 -52 -41.5 -84.5t-96.5 -32.5z" />
<glyph unicode="&#x215d;" horiz-adv-x="840" d="M188 0l393 674h76l-392 -674h-77zM636 -11q71 0 107.5 33t36.5 82q0 24 -15.5 51t-51.5 42q26 15 41 39t15 44q0 51 -41 77t-92 26q-54 0 -94 -24t-40 -79q0 -53 54 -83q-34 -16 -50 -43t-16 -50q0 -49 37 -82t109 -33zM636 52q-27 0 -43 16.5t-16 38.5t15.5 42t43.5 21 q27 -1 42.5 -20t15.5 -43q0 -22 -16 -38.5t-42 -16.5zM636 225q-24 0 -38 14t-14 37q0 17 14 33t38 16q22 0 35.5 -16t13.5 -34q0 -22 -13 -36t-36 -14zM265 418q0 -26 -18 -47.5t-58 -21.5q-45 0 -86 56l-43 -47q47 -75 133 -75q62 0 107.5 36.5t45.5 96.5q0 58 -34.5 93.5 t-80.5 35.5q-50 0 -77 -25l11 79h157v67h-218l-29 -220h71q17 35 60 35q25 0 42 -17t17 -46z" />
<glyph unicode="&#x215e;" horiz-adv-x="762" d="M110 0l393 674h76l-392 -674h-77zM558 -11q71 0 107.5 33t36.5 82q0 24 -15.5 51t-51.5 42q26 15 41 39t15 44q0 51 -41 77t-92 26q-54 0 -94 -24t-40 -79q0 -53 54 -83q-34 -16 -50 -43t-16 -50q0 -49 37 -82t109 -33zM558 52q-27 0 -43 16.5t-16 38.5t15.5 42t43.5 21 q27 -1 42.5 -20t15.5 -43q0 -22 -16 -38.5t-42 -16.5zM558 225q-24 0 -38 14t-14 37q0 17 14 33t38 16q22 0 35.5 -16t13.5 -34q0 -22 -13 -36t-36 -14zM60 606v68h283v-53q-101 -136 -166 -327h-94q80 203 171 312h-194z" />
<glyph unicode="&#x2190;" horiz-adv-x="765" d="M327 351h393v-80h-393v-131l-282 171l282 172v-132z" />
<glyph unicode="&#x2191;" horiz-adv-x="763" d="M342 0v393h-132l172 282l171 -282h-131v-393h-80z" />
<glyph unicode="&#x2192;" horiz-adv-x="765" d="M44 351h393v132l282 -172l-282 -171v131h-393v80z" />
<glyph unicode="&#x2193;" horiz-adv-x="763" d="M342 281v393h80v-393h131l-171 -282l-172 282h132z" />
<glyph unicode="&#x2202;" horiz-adv-x="617" d="M204 536l-19 80q80 45 172 45q122 0 176.5 -92.5t18.5 -266.5q-9 -42 -21.5 -79.5t-37.5 -82.5t-57 -77t-82 -53.5t-111 -21.5q-103 0 -155.5 59.5t-30.5 162.5q21 100 97 160.5t173 60.5q31 0 64 -16t50 -57q10 104 -21.5 157t-96.5 53q-59 0 -119 -32zM265 81 q47 0 83.5 38.5t48.5 96.5q11 52 -8.5 88.5t-67.5 36.5q-53 0 -89.5 -41.5t-47.5 -89.5q-10 -48 9 -88.5t72 -40.5z" />
<glyph unicode="&#x220f;" horiz-adv-x="634" d="M506 578v-578h-117v578h-152v-578h-116v578h-81v96h554v-96h-88z" />
<glyph unicode="&#x2211;" d="M514 -149h-464v92l206 319q-35 54 -103 161t-103 161v90h464v-105h-324q37 -56 107 -163t94 -144l-201 -306h324v-105z" />
<glyph unicode="&#x2212;" horiz-adv-x="459" d="M40 365h379v-99h-379v99z" />
<glyph unicode="&#x221a;" horiz-adv-x="622" d="M262 0l-121 376h-156v108h245l89 -325l160 515h118l-224 -674h-111z" />
<glyph unicode="&#x221e;" horiz-adv-x="746" d="M534 161q-48 0 -91 24t-70 61q-26 -38 -69 -61.5t-92 -23.5q-84 0 -128 45t-44 107t44 107t128 45q48 0 91 -23.5t70 -59.5q27 36 70 59.5t91 23.5q84 0 128 -45t44 -107t-44 -107t-128 -45zM215 257q28 0 55 17t39 39q-12 22 -38.5 39.5t-55.5 17.5q-70 0 -70 -57 q0 -56 70 -56zM530 257q70 0 70 56q0 57 -70 57q-29 0 -54.5 -16.5t-38.5 -40.5q13 -24 38 -40t55 -16z" />
<glyph unicode="&#x222b;" horiz-adv-x="410" d="M269 543v-576q0 -46 -13 -78.5t-29 -47.5t-40.5 -23.5t-36.5 -9t-29 -0.5h-5q-42 0 -91 26l14 74q40 -15 63 -15q39 0 39 57v576q0 46 13 78.5t29 47.5t40.5 23.5t36.5 9t29 0.5h5q42 0 91 -26l-14 -74q-40 15 -63 15q-39 0 -39 -57z" />
<glyph unicode="&#x2248;" horiz-adv-x="504" d="M180 495q26 0 73 -19t68 -19q36 0 56 53h87q-10 -33 -14 -45.5t-13 -36t-18 -32.5t-23 -20.5t-33 -15.5t-44 -4q-26 0 -73 19.5t-66 19.5t-31.5 -13t-24.5 -43h-84q12 48 20 69.5t23 45.5t38 32.5t59 8.5zM180 305q26 0 73 -19t68 -19q36 0 56 53h87q-10 -33 -14 -45.5 t-13 -36t-18 -32.5t-23 -20.5t-33 -15.5t-44 -4q-26 0 -73 19.5t-66 19.5t-31.5 -13t-24.5 -43h-84q12 48 20 69.5t23 45.5t38 32.5t59 8.5z" />
<glyph unicode="&#x2260;" horiz-adv-x="549" d="M482 191h-254l-111 -191h-77l111 191h-104v90h157l54 93h-211v89h263l123 211h76l-123 -211h96v-89h-148l-54 -93h202v-90z" />
<glyph unicode="&#x2264;" horiz-adv-x="606" d="M50 360v62l506 224v-120l-323 -135l323 -135v-120zM53 99h503v-99h-503v99z" />
<glyph unicode="&#x2265;" horiz-adv-x="606" d="M556 422v-62l-506 -224v120l323 135l-323 135v120zM50 99h503v-99h-503v99z" />
<glyph unicode="&#x22b2;" horiz-adv-x="466" d="M60 125v420l346 -210z" />
<glyph unicode="&#x22b3;" horiz-adv-x="466" d="M406 545v-420l-346 210z" />
<glyph unicode="&#x2318;" horiz-adv-x="701" d="M241 156v67h-68q-28 0 -47 -19.5t-19 -47.5t19.5 -48.5t47.5 -20.5t47.5 20.5t19.5 48.5zM241 440v68q0 29 -19 48.5t-47 19.5t-48 -20t-20 -48t20 -48t48 -20h66zM289 269h124v125h-124v-125zM594 156q0 28 -18.5 47.5t-46.5 19.5h-68v-67q0 -28 19.5 -48.5t47.5 -20.5 q27 0 46.5 20.5t19.5 48.5zM594 508q0 29 -19 48.5t-47 19.5t-47.5 -20t-19.5 -48v-68h68q27 0 46 20t19 48zM641 156q0 -47 -33.5 -81t-79.5 -34q-47 0 -81 34t-34 81v67h-124v-67q0 -47 -34 -81t-81 -34t-80.5 34t-33.5 81t33.5 80t80.5 33h67v125h-66q-47 0 -81 33.5 t-34 80.5t34 80.5t81 33.5t80.5 -33.5t33.5 -80.5v-68h124v68q0 47 34 80.5t81 33.5t80 -33.5t33 -80.5t-33.5 -80.5t-79.5 -33.5h-67v-125h67q46 0 79.5 -33.5t33.5 -79.5z" />
<glyph unicode="&#x25a0;" horiz-adv-x="539" d="M60 91v419h419v-419h-419z" />
<glyph unicode="&#x25ca;" horiz-adv-x="568" d="M307 -1h-46l-221 337l221 338h46l221 -338zM284 517l-111 -181l111 -178l111 178z" />
<glyph unicode="&#x25cf;" horiz-adv-x="536" d="M60 302q0 86 61 147t147 61t147 -61t61 -147t-61 -147t-147 -61t-147 61t-61 147z" />
<glyph unicode="&#x2605;" horiz-adv-x="687" d="M627 400l-176 -128l68 -206l-176 127l-175 -127l67 206l-175 128h216l67 206l67 -206h217z" />
<glyph unicode="&#x2666;" horiz-adv-x="621" d="M561 331l-251 -250l-250 250l250 251z" />
<glyph unicode="&#xe000;" horiz-adv-x="485" d="M0 485h485v-485h-485v485z" />
<glyph unicode="&#xf6e9;" horiz-adv-x="327" d="M296 400h-94v34q-16 -22 -46.5 -32t-52.5 -10q-30 0 -60 24.5t-30 68.5q0 48 51 76t140 37v11q-1 41 -49 41q-40 0 -94 -27l-23 54q0 1 14 9t44 16.5t63 8.5q0 -1 7.5 0t20 -1t26.5 -4.5t29 -10t27 -17.5t19.5 -27.5t7.5 -39.5v-211zM139 456q9 0 22 3t28 15.5t15 31.5 v40q-45 -5 -75 -21t-29 -37q2 -32 39 -32z" />
<glyph unicode="&#xf6ea;" horiz-adv-x="351" d="M123 820v-147q26 39 76 39q58 0 96 -41.5t38 -119.5q0 -77 -36 -118t-89 -41q-46 0 -86 40v-32h-91v420h92zM172 645q-14 0 -31.5 -13t-17.5 -39v-84q0 -50 59 -50q29 0 42.5 26.5t13.5 65.5q0 94 -66 94z" />
<glyph unicode="&#xf6eb;" horiz-adv-x="351" d="M226 673v147h92v-420h-91v32q-40 -40 -86 -40q-53 0 -89 41t-36 118q0 78 38 119.5t96 41.5q50 0 76 -39zM177 645q-66 0 -66 -94q0 -39 13.5 -65.5t42.5 -26.5q59 0 59 50v84q0 26 -17.5 39t-31.5 13z" />
<glyph unicode="&#xf6ec;" horiz-adv-x="341" d="M176 393q-69 0 -114.5 43t-45.5 115q0 71 41.5 116t112.5 45q70 0 111.5 -42t41.5 -114q0 -7 -0.5 -18.5t-0.5 -16.5h-215q5 -28 24.5 -44.5t48.5 -16.5q45 0 106 21l18 -56q-49 -32 -128 -32zM170 645q-25 0 -41 -19t-18 -44h122q-2 28 -19 45.5t-44 17.5z" />
<glyph unicode="&#xf6ed;" horiz-adv-x="155" d="M30 400v304h94v-304h-94zM30 741v79h94v-79h-94z" />
<glyph unicode="&#xf6ee;" horiz-adv-x="155" d="M30 400v420h94v-420h-94z" />
<glyph unicode="&#xf6ef;" horiz-adv-x="512" d="M209 400v186q0 59 -42 59q-16 0 -29 -17t-13 -57v-171h-93v304h89v-34q30 42 74 42t66 -52q32 52 88 52q126 0 126 -126v-186h-91v176q0 69 -42 69q-4 0 -9.5 -1.5t-14 -6.5t-14 -18.5t-5.5 -32.5v-186h-90z" />
<glyph unicode="&#xf6f0;" horiz-adv-x="351" d="M20 551q0 75 42 118t113 43q72 0 114 -43t42 -118q0 -73 -42 -116t-114 -43q-71 0 -113 43t-42 116zM240 551q0 38 -18 66.5t-47 28.5t-46 -28t-17 -67q0 -38 17 -65.5t46 -27.5t47 28t18 65z" />
<glyph unicode="&#xf6f1;" horiz-adv-x="227" d="M224 709v-69h-40q-28 0 -43.5 -18t-15.5 -48v-174h-91v304h89v-38q26 43 71 43h30z" />
<glyph unicode="&#xf6f2;" horiz-adv-x="296" d="M155 460q28 0 35 20q4 9 -1 14t-25 14l-74 27q-69 30 -69 81q0 44 36.5 70t88.5 26q64 0 126 -40l-31 -56q-55 31 -92 31q-15 0 -26 -7.5t-12 -18.5q0 -14 40 -28q39 -13 63 -23q67 -26 67 -80q0 -45 -35.5 -71t-91.5 -26q-35 0 -70 11q-38 11 -72 40l35 59 q51 -43 108 -43z" />
<glyph unicode="&#xf6f3;" horiz-adv-x="226" d="M54 644h-47v60h47v71h92v-71h65v-60h-65v-149q0 -36 19 -36q16 0 45 9l7 -59q-32 -16 -63 -16q-14 -1 -26.5 1t-31.5 10t-30.5 30.5t-11.5 58.5v151z" />
<glyph unicode="&#xfb06;" horiz-adv-x="829" d="M243 497l-2 21q0 44 12.5 76t28 46.5t38.5 23t34 9.5t24 1h313v-190h106v-85h-106v-250q0 -65 44 -65q19 0 64 14l10 -86q-47 -24 -92 -24q-18 0 -31 0.5t-38 8.5t-41.5 23.5t-29.5 48t-13 78.5v252h-76v85h76v108h-156q-35 0 -50.5 -20t-15.5 -43q-3 -23 3 -49 q54 -17 86 -45l-46 -86q-3 1 -15.5 8.5t-17 10t-17 8.5t-19 9t-18 7.5t-20 6.5t-18.5 3.5t-19 1.5q-28 0 -49 -14.5t-23 -32.5q-1 -11 2 -18.5t15.5 -14.5t20.5 -10t35 -12q34 -11 101 -36q103 -44 103 -126q0 -35 -16 -65q-20 -41 -67.5 -63.5t-113.5 -22.5q-54 0 -110 17 q-62 18 -109 61l52 85q78 -66 169 -66q23 0 42 9.5t26 24.5q3 7 4 12.5t-0.5 10t-3 7.5t-4.5 5.5t-5 4t-5 2.5l-3 2q-1 0 -11 4q-50 19 -142 53q-106 44 -106 127q0 69 57 109t136 40h7z" />
<glyph horiz-adv-x="0" />
<glyph horiz-adv-x="460" d="M228 -11q-83 0 -130.5 64t-47.5 179t47.5 179.5t130.5 64.5q84 0 133 -64.5t49 -179.5q0 -114 -49 -178.5t-133 -64.5zM228 391q-34 0 -56.5 -50.5t-22.5 -108.5q0 -60 22.5 -108.5t56.5 -48.5q36 0 58.5 48.5t22.5 108.5q0 59 -23 109t-58 50z" />
<glyph horiz-adv-x="518" d="M72 0v83h134v270l-99 -69l-47 57l160 126h95v-384h133v-83h-376z" />
<glyph horiz-adv-x="502" d="M251 396q-80 0 -154 -73l-57 62q81 99 217 99q84 0 137.5 -43.5t53.5 -113.5q0 -22 -10.5 -42.5t-23.5 -34t-39.5 -29.5t-41.5 -23.5t-46 -21.5q-9 -5 -24 -12t-22 -10.5t-18 -9.5t-16 -9l-12.5 -7.5t-11 -7.5t-8 -7.5t-7 -8.5t-4.5 -8h282v-96h-405v48q0 64 44.5 110.5 t122.5 85.5q79 38 102.5 58t23.5 38q0 22 -22 39t-61 17z" />
<glyph horiz-adv-x="581" d="M486 616l-36 -80q-53 32 -112 32q-133 0 -158 -189q50 52 125 52q97 0 160 -60.5t63 -160.5q0 -103 -65 -162.5t-168 -59.5q-61 0 -106.5 21.5t-70.5 53.5t-40.5 77t-20 82.5t-4.5 79.5q0 174 74.5 266.5t196.5 92.5q92 0 162 -45zM293 81q53 0 80.5 40.5t27.5 88.5 t-28 89.5t-81 41.5q-48 0 -75.5 -36.5t-27.5 -88.5q0 -58 28.5 -96.5t75.5 -38.5z" />
<glyph horiz-adv-x="582" d="M291 -13q-118 0 -179.5 55t-61.5 136q0 21 6 43.5t20 48t42.5 44.5t68.5 26q-58 15 -87 58t-29 91q0 73 50 114.5t120 53.5q30 4 50 4q39 0 51 -4h-1q70 -12 120 -53.5t50 -114.5q0 -48 -29 -91t-87 -58q40 -7 68.5 -26t42.5 -44.5t20 -48t6 -43.5q0 -81 -61.5 -136 t-179.5 -55zM291 81q53 0 85.5 31t32.5 72q0 44 -31.5 79t-86.5 36q-55 -1 -85 -36t-30 -79q0 -41 31 -72t84 -31zM291 389q48 0 75 24t28 66q0 35 -28 65t-75 30q-46 0 -74.5 -29.5t-28.5 -63.5q1 -43 28.5 -67.5t74.5 -24.5z" />
<glyph horiz-adv-x="552" d="M266 -203q-59 0 -109.5 18t-72.5 35t-49 43l51 81q82 -79 176 -79q50 0 77 28t27 68q0 41 -28.5 71t-80.5 30h-75v102h71q51 0 78 25.5t27 61.5q0 38 -27 66t-73 28q-47 0 -86.5 -25t-64.5 -55l-53 79q74 97 209 97q95 1 158 -49t63 -139q0 -42 -27 -83.5t-80 -52.5 q40 -6 68 -36t39 -61t11 -57q0 -88 -68 -142.5t-161 -53.5z" />
<glyph horiz-adv-x="571" d="M449 -190h-124v132q-47 0 -148 -0.5t-147 -0.5v91q54 117 121 211t177 217h121v-426h92v-93h-92v-131zM144 34h181v271q-56 -57 -109.5 -138.5t-71.5 -132.5z" />
<glyph horiz-adv-x="555" d="M400 25q0 55 -34 86t-85 31q-81 0 -112 -60h-101l46 369h358v-109h-261l-22 -140q23 21 59 31.5t56 10.5q95 0 153 -60.5t58 -161.5t-76 -163t-180 -62q-138 0 -219 118l70 74q65 -88 143 -88q77 0 112 38t35 86z" />
<glyph horiz-adv-x="537" d="M34 356v104h471v-86q-103 -130 -169 -264t-119 -300h-141q65 171 136 303t170 243h-348z" />
<glyph horiz-adv-x="555" d="M82 -157l36 80q53 -32 112 -32q133 0 158 189q-50 -52 -125 -52q-97 0 -160 60.5t-63 160.5q0 103 65 162.5t168 59.5q61 0 106.5 -21.5t70.5 -53.5t40.5 -77t20 -82.5t4.5 -79.5q0 -174 -74.5 -266.5t-196.5 -92.5q-92 0 -162 45zM275 378q-53 0 -80.5 -40.5 t-27.5 -88.5t28 -89.5t81 -41.5q48 0 75.5 36.5t27.5 88.5q0 58 -28.5 96.5t-75.5 38.5z" />
<glyph horiz-adv-x="614" d="M304 -13q-116 0 -183 91.5t-67 248.5t67 245.5t183 88.5q120 0 188 -88t68 -246t-68 -249t-188 -91zM304 565q-60 0 -94.5 -70.5t-34.5 -167.5q0 -100 34.5 -172t94.5 -72q63 0 98.5 71.5t35.5 172.5q0 98 -35.5 168t-98.5 70z" />
<glyph horiz-adv-x="407" d="M90 434l-55 71l163 145h106v-650h-121v512z" />
<glyph horiz-adv-x="601" d="M286 548q-79 0 -155 -95l-67 83q57 61 103 86q59 33 124 33q97 0 164 -55.5t67 -145.5q0 -28 -12 -54.5t-28 -46t-45 -42t-50 -36t-56 -34.5q-13 -8 -20 -12q-53 -32 -93 -67t-43 -59h335v-103h-459v64q0 36 12.5 68t28 54t46 47.5t51.5 39t59 37.5q78 49 103 70 q50 45 50 79q0 39 -31 64t-84 25z" />
<glyph horiz-adv-x="544" d="M263 -13q-59 0 -109.5 18t-72.5 35t-49 43l51 81q82 -79 176 -79q50 0 77 28t27 68q0 41 -28.5 71t-80.5 30h-75v102h71q51 0 78 25.5t27 61.5q0 38 -27 66t-73 28q-47 0 -86.5 -25t-64.5 -55l-53 79q74 97 209 97q95 1 158 -49t63 -139q0 -42 -27 -83.5t-80 -52.5 q40 -6 68 -36t39 -61t11 -57q0 -88 -68 -142.5t-161 -53.5z" />
<glyph horiz-adv-x="569" d="M448 0h-124v132q-47 0 -148 -0.5t-147 -0.5v91q54 117 121 211t177 217h121v-426h92v-93h-92v-131zM143 224h181v271q-56 -57 -109.5 -138.5t-71.5 -132.5z" />
<glyph horiz-adv-x="578" d="M411 215q0 55 -34 86t-85 31q-81 0 -112 -60h-101l46 369h358v-109h-261l-19 -140q23 21 57.5 31.5t54.5 10.5q95 0 153 -60.5t58 -161.5q0 -103 -73 -164t-183 -61q-138 0 -219 118l70 74q65 -88 143 -88q77 0 112 38t35 86z" />
<glyph horiz-adv-x="571" d="M481 616l-36 -80q-53 32 -112 32q-133 0 -158 -189q50 52 125 52q97 0 160 -60.5t63 -160.5q0 -103 -65 -162.5t-168 -59.5q-61 0 -106.5 21.5t-70.5 53.5t-40.5 77t-20 82.5t-4.5 79.5q0 174 74.5 266.5t196.5 92.5q92 0 162 -45zM288 81q53 0 80.5 40.5t27.5 88.5 t-28 89.5t-81 41.5q-48 0 -75.5 -36.5t-27.5 -88.5q0 -58 28 -96.5t76 -38.5z" />
<glyph horiz-adv-x="534" d="M34 546v104h471v-86q-103 -130 -169 -264t-119 -300h-141q65 171 136 303t170 243h-348z" />
<glyph horiz-adv-x="570" d="M285 -13q-118 0 -179.5 55t-61.5 136q0 21 6 43.5t20 48t42.5 44.5t68.5 26q-58 15 -87 58t-29 91q0 73 50 114.5t120 53.5q30 4 50 4q39 0 51 -4h-1q70 -12 120 -53.5t50 -114.5q0 -48 -29 -91t-87 -58q40 -7 68.5 -26t42.5 -44.5t20 -48t6 -43.5q0 -81 -61.5 -136 t-179.5 -55zM285 81q53 0 85.5 31t32.5 72q0 44 -31.5 79t-86.5 36q-55 -1 -85 -36t-30 -79q0 -41 31 -72t84 -31zM285 389q48 0 75 24t28 66q0 35 -28 65t-75 30q-46 0 -74.5 -29.5t-28.5 -63.5q1 -43 28.5 -67.5t74.5 -24.5z" />
<glyph horiz-adv-x="571" d="M90 33l36 80q53 -32 112 -32q133 0 158 189q-50 -52 -125 -52q-97 0 -160 60.5t-63 160.5q0 103 65 162.5t168 59.5q61 0 106.5 -21.5t70.5 -53.5t40.5 -77t20 -82.5t4.5 -79.5q0 -174 -74.5 -266.5t-196.5 -92.5q-92 0 -162 45zM283 568q-53 0 -80.5 -40.5t-27.5 -88.5 t28 -89.5t81 -41.5q48 0 75.5 36.5t27.5 88.5q0 58 -28.5 96.5t-75.5 38.5z" />
<glyph horiz-adv-x="375" d="M187 -11q-70 0 -111 53.5t-41 145.5t40.5 143.5t111.5 51.5q72 0 112.5 -51.5t40.5 -143.5t-41 -145.5t-112 -53.5zM187 314q-31 0 -49 -36.5t-18 -89.5q0 -54 18 -91.5t49 -37.5q32 0 50 37.5t18 91.5q0 53 -18 89.5t-50 36.5z" />
<glyph horiz-adv-x="276" d="M61 247l-35 47l98 86h71v-380h-84v291z" />
<glyph horiz-adv-x="385" d="M186 313q-26 0 -53 -16.5t-42 -35.5l-38 52l2 4q63 66 134 66q58 0 98 -33t40 -87q0 -16 -8 -31.5t-15 -25t-27.5 -25.5t-27 -20t-31.5 -21q-69 -40 -86 -71h189v-69h-277v41q0 46 32.5 79.5t92.5 71.5q22 12 35 21t26 24t13 29q0 20 -15.5 33.5t-41.5 13.5z" />
<glyph horiz-adv-x="344" d="M162 -8q-80 0 -141 58l33 54q53 -47 106 -47q24 0 38.5 15.5t14.5 35.5q0 21 -15.5 38t-40.5 17h-52v62h50q24 0 39 15t15 33q0 19 -14.5 34.5t-36.5 15.5q-48 0 -91 -50l-35 54q46 59 128 59q57 1 95.5 -29t38.5 -83q0 -19 -14 -42t-42 -35q32 -10 47 -37t15 -51 q0 -52 -41.5 -84.5t-96.5 -32.5z" />
<glyph horiz-adv-x="362" d="M280 0h-82v75h-168v56q54 114 172 249h78v-243h52v-62h-52v-75zM106 137h92v140q-71 -83 -92 -140z" />
<glyph horiz-adv-x="370" d="M247 124q0 29 -17 46t-42 17q-43 0 -60 -35h-71l29 220h218v-67h-157l-11 -79q27 25 77 25q46 0 80.5 -35.5t34.5 -93.5q0 -60 -45.5 -96.5t-107.5 -36.5q-86 0 -133 75l43 47q41 -56 86 -56q40 0 58 21.5t18 47.5z" />
<glyph horiz-adv-x="369" d="M304 353l-24 -54q-35 21 -67 21q-80 0 -86 -101q32 33 80 33q50 0 85 -36.5t35 -95.5q0 -61 -38.5 -96t-100.5 -35q-45 0 -76 18t-45 48.5t-19.5 58.5t-5.5 59q0 102 44.5 155.5t117.5 53.5q50 0 100 -29zM188 51q26 0 43 22.5t17 46.5q0 25 -17 47t-44 22 q-25 0 -42 -19.5t-17 -45.5q0 -30 17.5 -51.5t42.5 -21.5z" />
<glyph horiz-adv-x="367" d="M42 312v68h283v-53q-101 -136 -166 -327h-94q80 203 171 312h-194z" />
<glyph horiz-adv-x="366" d="M184 -11q-72 0 -109 33t-37 82q0 23 16 50t50 43q-54 30 -54 83q0 55 40 79t94 24q51 0 92 -26t41 -77q0 -20 -15 -44t-41 -39q36 -15 51.5 -42t15.5 -51q0 -49 -36.5 -82t-107.5 -33zM184 52q26 0 42 16.5t16 38.5q0 24 -15.5 43t-42.5 20q-28 -1 -43.5 -21t-15.5 -42 t16 -38.5t43 -16.5zM184 225q23 0 36 14t13 36q0 18 -13.5 34t-35.5 16q-24 0 -38 -16t-14 -33q0 -23 14 -37t38 -14z" />
<glyph horiz-adv-x="368" d="M64 18l24 54q35 -21 67 -21q80 0 86 101q-32 -33 -80 -33q-50 0 -85 36.5t-35 95.5q0 61 38.5 96t100.5 35q45 0 76 -18t45 -48.5t19.5 -58.5t5.5 -59q0 -102 -44.5 -155.5t-117.5 -53.5q-54 0 -100 29zM180 320q-26 0 -43 -22.5t-17 -46.5q0 -25 17 -47.5t44 -22.5 q25 0 42 20t17 46q0 30 -17.5 51.5t-42.5 21.5z" />
<glyph horiz-adv-x="375" d="M187 283q-70 0 -111 53.5t-41 145.5t40.5 143.5t111.5 51.5q72 0 112.5 -51.5t40.5 -143.5t-41 -145.5t-112 -53.5zM187 608q-31 0 -49 -36.5t-18 -89.5q0 -54 18 -91.5t49 -37.5q32 0 50 37.5t18 91.5q0 53 -18 89.5t-50 36.5z" />
<glyph horiz-adv-x="276" d="M61 541l-35 47l98 86h71v-380h-84v291z" />
<glyph horiz-adv-x="385" d="M186 607q-26 0 -53 -16.5t-42 -35.5l-38 52l2 4q63 66 134 66q58 0 98 -33t40 -87q0 -16 -8 -31.5t-15 -25t-27.5 -25.5t-27 -20t-31.5 -21q-69 -40 -86 -71h189v-69h-277v41q0 46 32.5 79.5t92.5 71.5q22 12 35 21t26 24t13 29q0 20 -15.5 33.5t-41.5 13.5z" />
<glyph horiz-adv-x="344" d="M162 286q-80 0 -141 58l33 54q53 -47 106 -47q24 0 38.5 15.5t14.5 35.5q0 21 -15.5 38t-40.5 17h-52v62h50q24 0 39 15t15 33q0 19 -14.5 34.5t-36.5 15.5q-48 0 -91 -50l-35 54q46 59 128 59q57 1 95.5 -29t38.5 -83q0 -19 -14 -42t-42 -35q32 -10 47 -37t15 -51 q0 -52 -41.5 -84.5t-96.5 -32.5z" />
<glyph horiz-adv-x="362" d="M280 294h-82v75h-168v56q54 114 172 249h78v-243h52v-62h-52v-75zM106 431h92v140q-71 -83 -92 -140z" />
<glyph horiz-adv-x="370" d="M247 418q0 29 -17 46t-42 17q-43 0 -60 -35h-71l29 220h218v-67h-157l-11 -79q27 25 77 25q46 0 80.5 -35.5t34.5 -93.5q0 -60 -45.5 -96.5t-107.5 -36.5q-86 0 -133 75l43 47q41 -56 86 -56q40 0 58 21.5t18 47.5z" />
<glyph horiz-adv-x="369" d="M304 647l-24 -54q-35 21 -67 21q-80 0 -86 -101q32 33 80 33q50 0 85 -36.5t35 -95.5q0 -61 -38.5 -96t-100.5 -35q-45 0 -76 18t-45 48.5t-19.5 58.5t-5.5 59q0 102 44.5 155.5t117.5 53.5q50 0 100 -29zM188 345q26 0 43 22.5t17 46.5q0 25 -17 47t-44 22 q-25 0 -42 -19.5t-17 -45.5q0 -30 17.5 -51.5t42.5 -21.5z" />
<glyph horiz-adv-x="367" d="M42 606v68h283v-53q-101 -136 -166 -327h-94q80 203 171 312h-194z" />
<glyph horiz-adv-x="366" d="M184 283q-72 0 -109 33t-37 82q0 23 16 50t50 43q-54 30 -54 83q0 55 40 79t94 24q51 0 92 -26t41 -77q0 -20 -15 -44t-41 -39q36 -15 51.5 -42t15.5 -51q0 -49 -36.5 -82t-107.5 -33zM184 346q26 0 42 16.5t16 38.5q0 24 -15.5 43t-42.5 20q-28 -1 -43.5 -21t-15.5 -42 t16 -38.5t43 -16.5zM184 519q23 0 36 14t13 36q0 18 -13.5 34t-35.5 16q-24 0 -38 -16t-14 -33q0 -23 14 -37t38 -14z" />
<glyph horiz-adv-x="368" d="M64 312l24 54q35 -21 67 -21q80 0 86 101q-32 -33 -80 -33q-50 0 -85 36.5t-35 95.5q0 61 38.5 96t100.5 35q45 0 76 -18t45 -48.5t19.5 -58.5t5.5 -59q0 -102 -44.5 -155.5t-117.5 -53.5q-54 0 -100 29zM180 614q-26 0 -43 -22.5t-17 -46.5q0 -25 17 -47.5t44 -22.5 q25 0 42 20t17 46q0 30 -17.5 51.5t-42.5 21.5z" />
<glyph horiz-adv-x="565" d="M377 429v55h128v-484h-127v55q-14 -28 -46.5 -44.5t-53 -20t-32.5 -3.5q-95 0 -153 65t-58 190q0 124 62.5 189.5t161.5 65.5q32 0 65.5 -15.5t52.5 -52.5zM286 401q-118 0 -118 -159q0 -67 24 -112.5t77 -45.5q108 0 108 88v144q0 27 -11 46t-28 26.5t-29 10t-23 2.5z " />
<glyph horiz-adv-x="565" d="M206 547l93 151h141l-126 -151h-108zM377 484v-55q-19 37 -52.5 52.5t-65.5 15.5q-99 0 -161.5 -65.5t-62.5 -189.5q0 -125 58 -190t153 -65q12 0 32.5 3.5t53 20t46.5 44.5v-55h127v484h-128zM286 401q11 0 23 -2.5t29 -10t28 -26.5t11 -46v-144q0 -88 -108 -88 q-53 0 -77 45.5t-24 112.5q0 159 118 159z" />
<glyph horiz-adv-x="565" d="M272 698l93 -151h-108l-126 151h141zM377 429v55h128v-484h-127v55q-14 -28 -46.5 -44.5t-53 -20t-32.5 -3.5q-95 0 -153 65t-58 190q0 124 62.5 189.5t161.5 65.5q32 0 65.5 -15.5t52.5 -52.5zM286 401q-118 0 -118 -159q0 -67 24 -112.5t77 -45.5q108 0 108 88v144 q0 27 -11 46t-28 26.5t-29 10t-23 2.5z" />
<glyph horiz-adv-x="565" d="M213 698h142l102 -153h-104l-69 83l-68 -83h-104zM377 429v55h128v-484h-127v55q-14 -28 -46.5 -44.5t-53 -20t-32.5 -3.5q-95 0 -153 65t-58 190q0 124 62.5 189.5t161.5 65.5q32 0 65.5 -15.5t52.5 -52.5zM286 401q-118 0 -118 -159q0 -67 24 -112.5t77 -45.5 q108 0 108 88v144q0 27 -11 46t-28 26.5t-29 10t-23 2.5z" />
<glyph horiz-adv-x="565" d="M118 564v116h123v-116h-123zM295 564v116h123v-116h-123zM377 484v-55q-19 37 -52.5 52.5t-65.5 15.5q-99 0 -161.5 -65.5t-62.5 -189.5q0 -125 58 -190t153 -65q12 0 32.5 3.5t53 20t46.5 44.5v-55h127v484h-128zM286 401q11 0 23 -2.5t29 -10t28 -26.5t11 -46v-144 q0 -88 -108 -88q-53 0 -77 45.5t-24 112.5q0 159 118 159z" />
<glyph horiz-adv-x="565" d="M277 577l-8 4q-32 16 -47 16q-22 0 -30 -43h-78q3 62 23.5 98t74.5 36q17 0 47 -16l8 -4q30 -16 47 -16q20 0 29 43h79q-3 -62 -23.5 -98t-74.5 -36q-17 0 -47 16zM377 429v55h128v-484h-127v55q-14 -28 -46.5 -44.5t-53 -20t-32.5 -3.5q-95 0 -153 65t-58 190 q0 124 62.5 189.5t161.5 65.5q32 0 65.5 -15.5t52.5 -52.5zM286 401q-118 0 -118 -159q0 -67 24 -112.5t77 -45.5q108 0 108 88v144q0 27 -11 46t-28 26.5t-29 10t-23 2.5z" />
<glyph horiz-adv-x="565" d="M170 659q0 48 29 80t87 32q62 0 89.5 -31.5t27.5 -80.5q0 -48 -27.5 -79t-89.5 -31q-58 0 -87 32t-29 78zM242 660q0 -42 44 -42q45 0 45 42t-45 42q-44 0 -44 -42zM377 429v55h128v-484h-127v55q-14 -28 -46.5 -44.5t-53 -20t-32.5 -3.5q-95 0 -153 65t-58 190 q0 124 62.5 189.5t161.5 65.5q32 0 65.5 -15.5t52.5 -52.5zM286 401q-118 0 -118 -159q0 -67 24 -112.5t77 -45.5q108 0 108 88v144q0 27 -11 46t-28 26.5t-29 10t-23 2.5z" />
<glyph horiz-adv-x="565" d="M269 536h-2q-76 0 -113 45.5t-37 116.5h78q5 -41 22 -60.5t51 -19.5t51 19.5t22 60.5h78q0 -71 -37 -116.5t-113 -45.5zM377 484v-55q-19 37 -52.5 52.5t-65.5 15.5q-99 0 -161.5 -65.5t-62.5 -189.5q0 -125 58 -190t153 -65q12 0 32.5 3.5t53 20t46.5 44.5v-55h127v484 h-128zM286 401q11 0 23 -2.5t29 -10t28 -26.5t11 -46v-144q0 -88 -108 -88q-53 0 -77 45.5t-24 112.5q0 159 118 159z" />
<glyph horiz-adv-x="565" d="M151 577v97h267v-97h-267zM377 484v-55q-19 37 -52.5 52.5t-65.5 15.5q-99 0 -161.5 -65.5t-62.5 -189.5q0 -125 58 -190t153 -65q12 0 32.5 3.5t53 20t46.5 44.5v-55h127v484h-128zM286 401q11 0 23 -2.5t29 -10t28 -26.5t11 -46v-144q0 -88 -108 -88q-53 0 -77 45.5 t-24 112.5q0 159 118 159z" />
<glyph horiz-adv-x="565" d="M378 0v55q-14 -28 -46.5 -44.5t-53 -20t-32.5 -3.5q-95 0 -153 65t-58 190q0 124 62.5 189.5t161.5 65.5q32 0 65.5 -15.5t52.5 -52.5v55h128v-484h-40q-45 -64 -46 -87t61 -14l47 13v-88q-39 -18 -82 -23q-65 -7 -95 28t-11 97q12 38 39 74zM286 401q-118 0 -118 -159 q0 -67 24 -112.5t77 -45.5q108 0 108 88v144q0 27 -11 46t-28 26.5t-29 10t-23 2.5z" />
<glyph horiz-adv-x="565" d="M165 642q0 -46 29 -78t87 -32q62 0 89.5 31t27.5 79q0 49 -27.5 80.5t-89.5 31.5q-58 0 -87 -32t-29 -80zM237 643q0 42 44 42q45 0 45 -42t-45 -42q-44 0 -44 42zM225 790l93 151h141l-126 -151h-108zM377 484v-55q-19 37 -52.5 52.5t-65.5 15.5q-99 0 -161.5 -65.5 t-62.5 -189.5q0 -125 58 -190t153 -65q12 0 32.5 3.5t53 20t46.5 44.5v-55h127v484h-128zM286 401q11 0 23 -2.5t29 -10t28 -26.5t11 -46v-144q0 -88 -108 -88q-53 0 -77 45.5t-24 112.5q0 159 118 159z" />
<glyph horiz-adv-x="1130" d="M1070 283v-283h-129v283q0 117 -78 117q-14 0 -29.5 -4t-35 -15t-32 -35.5t-12.5 -59.5v-286h-128v572h-278v-572h-130v572h-208v102h744v-245q23 37 61.5 52.5t71.5 15.5q183 0 183 -214z" />
<glyph horiz-adv-x="831" d="M244 495q-1 51 9.5 87t24 53.5t36 27t34.5 10.5t30 1h315v-190h106v-85h-106v-250q0 -65 44 -65q19 0 64 14l10 -86q-47 -24 -92 -24q-18 0 -31 0.5t-38 8.5t-41.5 23.5t-29.5 48t-13 78.5v252h-76v85h76v108h-158q-40 0 -55 -30t-11 -70q62 -8 106 -31l-26 -88 q-71 25 -118 25q-71 0 -107 -44.5t-36 -111.5t36 -112.5t107 -45.5q38 0 118 27l26 -88q-69 -36 -161 -36q-117 0 -184.5 68.5t-67.5 186.5q0 107 55 174t154 79z" />
<glyph horiz-adv-x="297" d="M16 551q0 75 43 118t117 43q58 0 108 -24l-20 -63q-51 19 -77 19q-40 0 -60.5 -26.5t-20.5 -66.5q0 -39 20.5 -65.5t60.5 -26.5q19 0 77 20l20 -63q-50 -24 -108 -24q-74 0 -117 42.5t-43 116.5z" />
<glyph horiz-adv-x="188" d="M7 699h35v27q0 29 8.5 50t19 30.5t27 14.5t24.5 5.5t19 0.5h3q29 0 62 -18l-9 -54q-15 12 -45 12q-17 0 -17 -31v-37h55v-55h-55v-244h-92v244h-35v55z" />
<glyph horiz-adv-x="353" d="M176 459q8 0 18 2.5t21 12.5t11 26v95q0 50 -59 50q-55 0 -55 -94q0 -92 64 -92zM227 394v35q-10 -17 -31.5 -27t-39.5 -10q-54 0 -97 42t-43 117q0 77 38 119t90 42q59 0 83 -41v33h91v-319q0 -54 -42 -78t-104 -24q-35 0 -70 9.5t-52 22.5l18 60q52 -29 101 -29 q57 0 58 48z" />
<glyph horiz-adv-x="326" d="M195 586l131 -186h-102l-87 136l-11 -11v-125h-92v420h92v-202l77 86h110z" />
<glyph horiz-adv-x="351" d="M123 428v-145h-92v421h91v-32q29 40 79 40q59 0 95.5 -40.5t36.5 -119.5q0 -78 -38 -119t-100 -41q-16 0 -37.5 9.5t-34.5 26.5zM172 459q66 0 66 93q0 40 -13.5 66.5t-42.5 26.5q-59 0 -59 -49v-90q0 -24 18 -35.5t31 -11.5z" />
<glyph horiz-adv-x="351" d="M226 283v145q-13 -17 -34.5 -26.5t-37.5 -9.5q-62 0 -100 41t-38 119q0 79 36.5 119.5t95.5 40.5q50 0 79 -40v32h91v-421h-92zM177 459q13 0 31 11.5t18 35.5v90q0 49 -59 49q-29 0 -42.5 -26.5t-13.5 -66.5q0 -93 66 -93z" />
<glyph horiz-adv-x="351" d="M31 528v176h92v-176q0 -69 42 -69q6 0 13 1.5t19 6.5t19.5 18t7.5 32v187h92v-304h-88v33q-12 -17 -31.5 -27t-30.5 -12t-17 -2q-48 0 -83 33t-35 103z" />
<glyph horiz-adv-x="361" d="M225 400h-89l-130 304h98l77 -216l76 216h98z" />
<glyph horiz-adv-x="298" d="M10 400v56l160 181h-154v67h270v-56l-162 -181h157v-67h-271z" />
<glyph horiz-adv-x="460" d="M228 -11q-83 0 -130.5 64t-47.5 179t47.5 179.5t130.5 64.5q84 0 133 -64.5t49 -179.5q0 -114 -49 -178.5t-133 -64.5zM228 391q-34 0 -56.5 -50.5t-22.5 -108.5q0 -60 22.5 -108.5t56.5 -48.5q36 0 58.5 48.5t22.5 108.5q0 59 -23 109t-58 50z" />
<glyph horiz-adv-x="524" d="M78 0v83h134v270l-99 -69l-47 57l160 126h95v-384h133v-83h-376z" />
<glyph horiz-adv-x="502" d="M251 396q-80 0 -154 -73l-57 62q81 99 217 99q84 0 137.5 -43.5t53.5 -113.5q0 -22 -10.5 -42.5t-23.5 -34t-39.5 -29.5t-41.5 -23.5t-46 -21.5q-9 -5 -24 -12t-22 -10.5t-18 -9.5t-16 -9l-12.5 -7.5t-11 -7.5t-8 -7.5t-7 -8.5t-4.5 -8h282v-96h-405v48q0 64 44.5 110.5 t122.5 85.5q79 38 102.5 58t23.5 38q0 22 -22 39t-61 17z" />
<glyph horiz-adv-x="520" d="M261 -203q-59 0 -109.5 18t-72.5 35t-49 43l51 81q82 -79 176 -79q50 0 77 28t27 68q0 41 -28.5 71t-80.5 30h-75v102h71q51 0 78 25.5t27 61.5q0 38 -27 66t-73 28q-47 0 -86.5 -25t-64.5 -55l-53 79q74 97 209 97q95 1 158 -49t63 -139q0 -42 -27 -83.5t-80 -52.5 q40 -6 68 -36t39 -61t11 -57q0 -88 -68 -142.5t-161 -53.5z" />
<glyph horiz-adv-x="571" d="M449 -190h-124v132q-47 0 -148 -0.5t-147 -0.5v91q54 117 121 211t177 217h121v-426h92v-93h-92v-131zM144 34h181v271q-56 -57 -109.5 -138.5t-71.5 -132.5z" />
<glyph horiz-adv-x="555" d="M400 25q0 55 -34 86t-85 31q-81 0 -112 -60h-101l46 369h358v-109h-261l-22 -140q23 21 59 31.5t56 10.5q95 0 153 -60.5t58 -161.5t-76 -163t-180 -62q-138 0 -219 118l70 74q65 -88 143 -88q77 0 112 38t35 86z" />
<glyph horiz-adv-x="581" d="M486 616l-36 -80q-53 32 -112 32q-133 0 -158 -189q50 52 125 52q97 0 160 -60.5t63 -160.5q0 -103 -65 -162.5t-168 -59.5q-61 0 -106.5 21.5t-70.5 53.5t-40.5 77t-20 82.5t-4.5 79.5q0 174 74.5 266.5t196.5 92.5q92 0 162 -45zM293 81q53 0 80.5 40.5t27.5 88.5 t-28 89.5t-81 41.5q-48 0 -75.5 -36.5t-27.5 -88.5q0 -58 28.5 -96.5t75.5 -38.5z" />
<glyph horiz-adv-x="537" d="M34 356v104h471v-86q-103 -130 -169 -264t-119 -300h-141q65 171 136 303t170 243h-348z" />
<glyph horiz-adv-x="582" d="M291 -13q-118 0 -179.5 55t-61.5 136q0 21 6 43.5t20 48t42.5 44.5t68.5 26q-58 15 -87 58t-29 91q0 73 50 114.5t120 53.5q30 4 50 4q39 0 51 -4h-1q70 -12 120 -53.5t50 -114.5q0 -48 -29 -91t-87 -58q40 -7 68.5 -26t42.5 -44.5t20 -48t6 -43.5q0 -81 -61.5 -136 t-179.5 -55zM291 81q53 0 85.5 31t32.5 72q0 44 -31.5 79t-86.5 36q-55 -1 -85 -36t-30 -79q0 -41 31 -72t84 -31zM291 389q48 0 75 24t28 66q0 35 -28 65t-75 30q-46 0 -74.5 -29.5t-28.5 -63.5q1 -43 28.5 -67.5t74.5 -24.5z" />
<glyph horiz-adv-x="555" d="M82 -157l36 80q53 -32 112 -32q133 0 158 189q-50 -52 -125 -52q-97 0 -160 60.5t-63 160.5q0 103 65 162.5t168 59.5q61 0 106.5 -21.5t70.5 -53.5t40.5 -77t20 -82.5t4.5 -79.5q0 -174 -74.5 -266.5t-196.5 -92.5q-92 0 -162 45zM275 378q-53 0 -80.5 -40.5 t-27.5 -88.5t28 -89.5t81 -41.5q48 0 75.5 36.5t27.5 88.5q0 58 -28.5 96.5t-75.5 38.5z" />
<glyph horiz-adv-x="636" d="M438 451l-208 -302q36 -66 92 -66q63 0 98.5 71.5t35.5 172.5q0 69 -18 124zM479 606l47 68h65l-75 -109q62 -88 62 -238q0 -158 -68 -249t-188 -91q-95 0 -159 62l-52 -71h-66l82 117q-55 89 -55 232q0 157 67 245.5t183 88.5q94 0 157 -55zM412 509q-36 56 -90 56 q-60 0 -94.5 -70.5t-34.5 -167.5q0 -67 14 -116z" />
<glyph horiz-adv-x="636" d="M438 451l-208 -302q36 -66 92 -66q63 0 98.5 71.5t35.5 172.5q0 69 -18 124zM479 606l47 68h65l-75 -109q62 -88 62 -238q0 -158 -68 -249t-188 -91q-95 0 -159 62l-52 -71h-66l82 117q-55 89 -55 232q0 157 67 245.5t183 88.5q94 0 157 -55zM412 509q-36 56 -90 56 q-60 0 -94.5 -70.5t-34.5 -167.5q0 -67 14 -116z" />
<glyph horiz-adv-x="540" d="M480 162h-420l210 346z" />
<glyph horiz-adv-x="540" d="M60 508h420l-210 -346z" />
<glyph horiz-adv-x="478" d="M131 28l-25 -39h-56l50 76q-39 64 -39 167q0 115 47.5 179.5t130.5 64.5q63 0 105 -36l29 44h55l-52 -79q45 -65 45 -173q0 -114 -49 -178.5t-133 -64.5q-65 0 -108 39zM167 168l122 187q-21 36 -50 36q-34 0 -56.5 -50.5t-22.5 -108.5q0 -35 7 -64zM310 303l-123 -189 q23 -39 52 -39q36 0 58.5 48.5t22.5 108.5q0 33 -10 71z" />
<glyph horiz-adv-x="478" d="M131 28l-25 -39h-56l50 76q-39 64 -39 167q0 115 47.5 179.5t130.5 64.5q63 0 105 -36l29 44h55l-52 -79q45 -65 45 -173q0 -114 -49 -178.5t-133 -64.5q-65 0 -108 39zM167 168l122 187q-21 36 -50 36q-34 0 -56.5 -50.5t-22.5 -108.5q0 -35 7 -64zM310 303l-123 -189 q23 -39 52 -39q36 0 58.5 48.5t22.5 108.5q0 33 -10 71z" />
<glyph horiz-adv-x="526" d="M128 0h-118l202 484h102l202 -484h-118l-44 106h-184q-21 -50 -42 -106zM263 369l-60 -177h120z" />
<glyph horiz-adv-x="458" d="M269 200h-117v-114h117q27 0 42 16t15 38q0 24 -15 42t-42 18zM414 348q0 -11 -3 -24.5t-18 -34.5t-40 -32q39 -9 62 -45t23 -73q0 -52 -39.5 -95.5t-111.5 -43.5h-247v484h224q76 0 113 -39.5t37 -96.5zM152 287h107q22 0 33.5 17.5t11.5 35.5q0 58 -54 58h-98v-111z " />
<glyph horiz-adv-x="465" d="M30 242q0 107 68.5 178.5t181.5 71.5q90 0 160 -35l-29 -77q-66 25 -117 25q-76 0 -113.5 -48t-37.5 -115t37.5 -115.5t113.5 -48.5q52 0 119 23l27 -75q-70 -35 -160 -35q-113 0 -181.5 72t-68.5 179z" />
<glyph horiz-adv-x="495" d="M225 0h-185v484h185q119 0 184.5 -61.5t65.5 -180.5t-65.5 -180.5t-184.5 -61.5zM151 86h77q59 0 97 39t38 117q0 79 -37.5 117.5t-99.5 38.5h-75v-312z" />
<glyph horiz-adv-x="418" d="M393 0h-353v484h348v-86h-235v-111h217v-86h-217v-115h240v-86z" />
<glyph horiz-adv-x="383" d="M152 -1l-112 1v484h333v-86h-221v-111h204v-86h-204v-202z" />
<glyph horiz-adv-x="498" d="M361 187h-94v88h201v-243q-32 -17 -86 -29t-95 -12q-121 0 -195 72t-74 179q0 106 74 178t195 72q98 0 172 -49l-40 -77q-61 40 -116 40q-85 0 -128 -49t-43 -115q0 -65 42.5 -114.5t119.5 -49.5q33 0 67 10v99z" />
<glyph horiz-adv-x="485" d="M333 211h-181v-211h-112v484h112v-186h181v186h112v-484h-112v211z" />
<glyph horiz-adv-x="192" d="M40 0v484h112v-484h-112z" />
<glyph horiz-adv-x="328" d="M5 27l27 79q29 -13 61 -23q44 -15 64.5 -2t21.5 61v342h109v-347q0 -79 -41 -112.5t-105 -33.5q-28 0 -58 6q-31 6 -79 30z" />
<glyph horiz-adv-x="457" d="M452 0h-134l-139 185q-4 -6 -13.5 -16.5t-13.5 -16.5v-152h-112v484h112v-186l140 186h129l-172 -219z" />
<glyph horiz-adv-x="398" d="M152 484v-397h221v-87h-333v484h112z" />
<glyph horiz-adv-x="648" d="M279 0l-107 306l-18 -306h-114l25 484h138l122 -321q20 52 60 160.5t60 160.5h139l24 -484h-113l-18 307q-19 -51 -56.5 -158t-52.5 -149h-89z" />
<glyph horiz-adv-x="489" d="M317 0l-166 328v-328h-111v484h138l160 -323v323h111v-484h-132z" />
<glyph horiz-adv-x="542" d="M270 -9q-111 0 -175.5 67t-64.5 184t64.5 183.5t175.5 66.5q112 0 177 -66.5t65 -183.5t-65 -184t-177 -67zM270 407q-60 0 -92.5 -47t-32.5 -118q0 -74 32 -120t93 -46t93.5 46t32.5 120q0 71 -32.5 118t-93.5 47z" />
<glyph horiz-adv-x="446" d="M270 174h-118v-174h-112v484h225q80 0 118 -49t38 -111q0 -8 -1.5 -21t-10.5 -37.5t-24 -43.5t-45 -33.5t-70 -14.5zM152 260h108q26 0 38.5 22.5t12.5 44.5q0 29 -16.5 50t-46.5 21h-96v-138z" />
<glyph horiz-adv-x="542" d="M270 -9q-108 0 -174 67.5t-66 183.5q0 117 64.5 183.5t175.5 66.5q112 0 177 -66.5t65 -183.5q0 -64 -26 -118.5t-69 -88.5q24 -11 43 -11h46v-83h-44q-38 0 -65.5 8t-38.5 15.5t-25 20.5l-7 6h-56zM270 407q-60 0 -92.5 -47t-32.5 -118q0 -73 32 -119t93 -46t93.5 46 t32.5 119q0 71 -32.5 118t-93.5 47z" />
<glyph horiz-adv-x="471" d="M421 327q0 -10 -3.5 -26t-21.5 -44t-48 -44q24 -16 36 -48l57 -165h-116l-42 124q-11 30 -24 43t-34 13h-73v-180h-112v484h218q90 0 126.5 -47t36.5 -110zM152 266h108q27 0 38.5 19.5t11.5 40.5q0 30 -13.5 51t-42.5 21h-102v-132z" />
<glyph horiz-adv-x="441" d="M310 478q40 -15 88 -50l-41 -79q-72 57 -142 57q-25 0 -42 -12.5t-19 -30.5q-5 -34 45 -52l118 -47q99 -38 99 -124q0 -69 -54 -108.5t-130 -39.5q-61 0 -103 17q-66 24 -104 59l46 78q33 -29 77.5 -47.5t84.5 -18.5q52 0 69 38q15 38 -31 60q-6 2 -21.5 8.5t-43 17 t-64.5 24.5q-53 20 -78 53.5t-25 69.5q0 65 54 103t127 38q45 0 90 -14z" />
<glyph horiz-adv-x="421" d="M411 398h-144v-398h-111v398h-146v86h401v-86z" />
<glyph horiz-adv-x="503" d="M251 -9q-103 0 -157 52t-54 174v267h112v-268q0 -69 23.5 -101t75.5 -32q53 0 76.5 32t23.5 101v268h112v-267q0 -123 -54 -174.5t-158 -51.5z" />
<glyph horiz-adv-x="488" d="M10 484h114l120 -355l121 355h113l-182 -484h-103z" />
<glyph horiz-adv-x="695" d="M401 468l83 -297l85 313h116l-148 -484h-105l-84 290l-85 -290h-105l-148 484h116l85 -312l84 296h106z" />
<glyph horiz-adv-x="507" d="M366 0l-113 164l-112 -164h-131l181 240l-172 244h130l104 -169l106 169h129l-172 -244l181 -240h-131z" />
<glyph horiz-adv-x="504" d="M309 0h-114v170l-185 314h129l113 -222l113 222h129l-185 -313v-171z" />
<glyph horiz-adv-x="455" d="M418 0h-393v79l258 319h-247v86h394v-76l-264 -320h252v-88z" />
<glyph horiz-adv-x="533" d="M78 484h186q118 0 183.5 -61.5t65.5 -180.5t-65.5 -180.5t-183.5 -61.5h-186v200h-68v87h68v197zM189 86h78q59 0 96.5 39t37.5 117q0 79 -37 117.5t-99 38.5h-76v-111h138v-87h-138v-114z" />
<glyph horiz-adv-x="445" d="M87 0v151l-77 -52v89l77 50v246h112v-169l76 53v-91l-76 -50v-140h221v-87h-333z" />
<glyph horiz-adv-x="441" d="M310 478q40 -15 88 -50l-41 -79q-72 57 -142 57q-25 0 -42 -12.5t-19 -30.5q-5 -34 45 -52l118 -47q99 -38 99 -124q0 -69 -54 -108.5t-130 -39.5q-61 0 -103 17q-66 24 -104 59l46 78q33 -29 77.5 -47.5t84.5 -18.5q52 0 69 38q15 38 -31 60q-6 2 -21.5 8.5t-43 17 t-64.5 24.5q-53 20 -78 53.5t-25 69.5q0 65 54 103t127 38q45 0 90 -14zM271 544h-111l-81 122h95l41 -49l41 49h95z" />
<glyph horiz-adv-x="504" d="M183 536l74 121h123l-101 -121h-96zM195 0h114v171l185 313h-129l-113 -222l-113 222h-129l185 -314v-170z" />
<glyph horiz-adv-x="455" d="M291 544h-111l-81 122h95l41 -49l41 49h95zM418 0h-393v79l258 319h-247v86h394v-76l-264 -320h252v-88z" />
<glyph horiz-adv-x="415" d="M153 484v-99q25 40 78 40q74 0 119 -47t45 -139q0 -91 -49 -138.5t-128 -47.5q-12 0 -33 9t-33 24v-86h-112v484h113zM206 342q-15 0 -34 -13.5t-19 -42.5v-97q0 -53 65 -53q60 0 60 103t-72 103z" />
<glyph horiz-adv-x="526" d="M139 552v96h102v-96h-102zM279 552v96h102v-96h-102zM128 0h-118l202 484h102l202 -484h-118l-44 106h-184q-21 -50 -42 -106zM263 369l-60 -177h120z" />
<glyph horiz-adv-x="526" d="M171 600q0 36 23 60.5t69 24.5q48 0 70 -23.5t22 -61.5q0 -37 -22 -60.5t-70 -23.5q-46 0 -69 24t-23 60zM128 0h-118l202 484h102l202 -484h-118l-44 106h-184q-21 -50 -42 -106zM263 369l-60 -177h120zM233 600q0 -27 30 -27t30 27t-30 27t-30 -27z" />
<glyph horiz-adv-x="465" d="M30 242q0 107 68.5 178.5t181.5 71.5q90 0 160 -35l-29 -77q-66 25 -117 25q-76 0 -113.5 -48t-37.5 -115t37.5 -115.5t113.5 -48.5q52 0 119 23l27 -75q-56 -27 -125 -34q10 -17 16 -33q19 -44 -9.5 -73t-74.5 -24q-38 4 -67 20v76l47 -13q47 -12 4 50q-93 15 -147 83 t-54 164z" />
<glyph horiz-adv-x="418" d="M393 0h-353v484h348v-86h-235v-111h217v-86h-217v-115h240v-86zM143 542l74 121h122l-100 -121h-96z" />
<glyph horiz-adv-x="489" d="M317 0l-166 328v-328h-111v484h138l160 -323v323h111v-484h-132zM264 558l-6 3q-17 10 -28 10q-6 0 -11 -30h-74q2 50 18.5 79t59.5 29q16 0 38 -11l6 -3q13 -10 27 -10q4 0 10 30h76q-4 -109 -79 -109q-18 0 -37 12z" />
<glyph horiz-adv-x="542" d="M270 -9q112 0 177 67t65 184t-65 183.5t-177 66.5q-111 0 -175.5 -66.5t-64.5 -183.5t64.5 -184t175.5 -67zM270 407q61 0 93.5 -47t32.5 -118q0 -74 -32.5 -120t-93.5 -46t-93 46t-32 120q0 71 32.5 118t92.5 47zM147 552v96h102v-96h-102zM287 552v96h102v-96h-102z " />
<glyph horiz-adv-x="503" d="M130 552v96h102v-96h-102zM270 552v96h102v-96h-102zM251 -9q104 0 158 51.5t54 174.5v267h-112v-268q0 -69 -23.5 -101t-76.5 -32q-52 0 -75.5 32t-23.5 101v268h-112v-267q0 -122 54 -174t157 -52z" />
<glyph horiz-adv-x="686" d="M308 388l-87 -196h87v196zM420 86h241v-86h-353v106h-123l-52 -106h-123l242 484h404v-86h-235v-111h218v-86h-219v-115z" />
<glyph horiz-adv-x="542" d="M161 151l157 246q-26 10 -48 10q-60 0 -92.5 -47t-32.5 -118q0 -47 16 -91zM128 -38h-92l62 92q-68 66 -68 188q0 117 64.5 183.5t175.5 66.5q54 0 98 -16q4 7 13.5 21.5t12.5 19.5h89l-50 -80q79 -68 79 -195q0 -117 -65 -184t-177 -67q-65 0 -107 19q-1 -2 -35 -48z M373 344l-160 -253q26 -15 57 -15q61 0 93.5 46t32.5 120q0 59 -23 102z" />
<glyph horiz-adv-x="526" d="M128 0h-118l202 484h102l202 -484h-118l-44 106h-184q-21 -50 -42 -106zM263 369l-60 -177h120zM225 663l74 -121h-96l-100 121h122z" />
<glyph horiz-adv-x="526" d="M128 0h-118l202 484h102l202 -484h-118l-44 106h-184q-21 -50 -42 -106zM263 369l-60 -177h120zM264 558l-6 3q-17 10 -28 10q-6 0 -11 -30h-74q2 50 18.5 79t59.5 29q16 0 38 -11l6 -3q13 -10 27 -10q4 0 10 30h76q-4 -109 -79 -109q-18 0 -37 12z" />
<glyph horiz-adv-x="534" d="M264 558l-6 3q-17 10 -28 10q-6 0 -11 -30h-74q2 50 18.5 79t59.5 29q16 0 38 -11l6 -3q13 -10 27 -10q4 0 10 30h76q-4 -109 -79 -109q-18 0 -37 12zM270 -9q-111 0 -175.5 67t-64.5 184t64.5 183.5t175.5 66.5q112 0 177 -66.5t65 -183.5t-65 -184t-177 -67zM270 407 q-60 0 -92.5 -47t-32.5 -118q0 -74 32 -120t93 -46t93.5 46t32.5 120q0 71 -32.5 118t-93.5 47z" />
<glyph horiz-adv-x="774" d="M270 407q-61 0 -93 -47t-32 -118q0 -73 32 -119t93 -46t93 46t32 119q0 71 -32 118t-93 47zM396 0v37q-55 -45 -136 -45q-105 0 -167.5 66.5t-62.5 183.5q0 116 64 183t166 67q85 0 136 -46v38h348v-86h-235v-111h218v-86h-218v-115h240v-86h-353z" />
<glyph horiz-adv-x="504" d="M195 0h114v171l185 313h-129l-113 -222l-113 222h-129l185 -314v-170zM132 552v96h102v-96h-102zM272 552v96h102v-96h-102z" />
<glyph horiz-adv-x="526" d="M128 0h-118l202 484h102l202 -484h-118l-44 106h-184q-21 -50 -42 -106zM263 369l-60 -177h120zM207 666h111l81 -122h-95l-41 49l-41 -49h-95z" />
<glyph horiz-adv-x="418" d="M156 666h111l81 -122h-95l-41 49l-41 -49h-95zM393 0h-353v484h348v-86h-235v-111h217v-86h-217v-115h240v-86z" />
<glyph horiz-adv-x="526" d="M128 0h-118l202 484h102l202 -484h-118l-44 106h-184q-21 -50 -42 -106zM263 369l-60 -177h120zM220 542l74 121h122l-100 -121h-96z" />
<glyph horiz-adv-x="418" d="M393 0h-353v484h348v-86h-235v-111h217v-86h-217v-115h240v-86zM98 552v96h102v-96h-102zM238 552v96h102v-96h-102z" />
<glyph horiz-adv-x="418" d="M216 663l74 -121h-96l-100 121h122zM393 0h-353v484h348v-86h-235v-111h217v-86h-217v-115h240v-86z" />
<glyph horiz-adv-x="191" d="M40 0v484h111v-484h-111zM40 536l74 121h123l-101 -121h-96z" />
<glyph horiz-adv-x="191" d="M40 0v484h111v-484h-111zM39 666h111l81 -122h-95l-41 49l-41 -49h-95z" />
<glyph horiz-adv-x="192" d="M40 0v484h112v-484h-112zM-25 552v96h102v-96h-102zM115 552v96h102v-96h-102z" />
<glyph horiz-adv-x="191" d="M40 0v484h111v-484h-111zM77 657l74 -121h-96l-101 121h123z" />
<glyph horiz-adv-x="542" d="M270 -9q112 0 177 67t65 184t-65 183.5t-177 66.5q-111 0 -175.5 -66.5t-64.5 -183.5t64.5 -184t175.5 -67zM270 407q61 0 93.5 -47t32.5 -118q0 -74 -32.5 -120t-93.5 -46t-93 46t-32 120q0 71 32.5 118t92.5 47zM219 536l74 121h123l-101 -121h-96z" />
<glyph horiz-adv-x="542" d="M270 -9q-111 0 -175.5 67t-64.5 184t64.5 183.5t175.5 66.5q112 0 177 -66.5t65 -183.5t-65 -184t-177 -67zM270 407q-60 0 -92.5 -47t-32.5 -118q0 -74 32 -120t93 -46t93.5 46t32.5 120q0 71 -32.5 118t-93.5 47zM213 666h111l81 -122h-95l-41 49l-41 -49h-95z" />
<glyph horiz-adv-x="542" d="M270 -9q-111 0 -175.5 67t-64.5 184t64.5 183.5t175.5 66.5q112 0 177 -66.5t65 -183.5t-65 -184t-177 -67zM270 407q-60 0 -92.5 -47t-32.5 -118q0 -74 32 -120t93 -46t93.5 46t32.5 120q0 71 -32.5 118t-93.5 47zM255 657l74 -121h-96l-101 121h123z" />
<glyph horiz-adv-x="503" d="M251 -9q104 0 158 51.5t54 174.5v267h-112v-268q0 -69 -23.5 -101t-76.5 -32q-52 0 -75.5 32t-23.5 101v268h-112v-267q0 -122 54 -174t157 -52zM193 536l74 121h123l-101 -121h-96z" />
<glyph horiz-adv-x="503" d="M251 -9q-103 0 -157 52t-54 174v267h112v-268q0 -69 23.5 -101t75.5 -32q53 0 76.5 32t23.5 101v268h112v-267q0 -123 -54 -174.5t-158 -51.5zM195 666h111l81 -122h-95l-41 49l-41 -49h-95z" />
<glyph horiz-adv-x="503" d="M251 -9q-103 0 -157 52t-54 174v267h112v-268q0 -69 23.5 -101t75.5 -32q53 0 76.5 32t23.5 101v268h112v-267q0 -123 -54 -174.5t-158 -51.5zM247 657l74 -121h-96l-101 121h123z" />
<glyph horiz-adv-x="465" d="M30 242q0 -107 68.5 -179t181.5 -72q90 0 160 35l-27 75q-67 -23 -119 -23q-76 0 -113.5 48.5t-37.5 115.5t37.5 115t113.5 48q51 0 117 -25l29 77q-70 35 -160 35q-113 0 -181.5 -71.5t-68.5 -178.5zM223 556v96h111v-96h-111z" />
<glyph horiz-adv-x="192" d="M40 0v484h112v-484h-112zM96 533q-59 0 -87.5 36t-28.5 93h71q4 -30 13.5 -43t31.5 -13t31.5 13t13.5 43h71q0 -57 -28.5 -93t-87.5 -36z" />
<glyph horiz-adv-x="192" d="M40 0v484h112v-484h-112zM40 554v96h111v-96h-111z" />
<glyph horiz-adv-x="504" d="M309 0h-114v170l-185 314h129l113 -222l113 222h129l-185 -313v-171zM195 666h111l81 -122h-95l-41 49l-41 -49h-95z" />
<glyph horiz-adv-x="695" d="M291 666h111l81 -122h-95l-41 49l-41 -49h-95zM401 468l83 -297l85 313h116l-148 -484h-105l-84 290l-85 -290h-105l-148 484h116l85 -312l84 296h106z" />
<glyph horiz-adv-x="421" d="M411 398h-144v-398h-111v398h-146v86h401v-86zM265 544h-111l-81 122h95l41 -49l41 49h95z" />
<glyph horiz-adv-x="503" d="M251 -9q-103 0 -157 52t-54 174v267h112v-268q0 -69 23.5 -101t75.5 -32q53 0 76.5 32t23.5 101v268h112v-267q0 -123 -54 -174.5t-158 -51.5zM255 558l-6 3q-18 10 -28 10q-6 0 -11 -30h-74q2 50 18.5 79t59.5 29q16 0 38 -11l6 -3q13 -10 27 -10q4 0 10 30h76 q-4 -109 -79 -109q-18 0 -37 12z" />
<glyph horiz-adv-x="441" d="M310 478q40 -15 88 -50l-41 -79q-72 57 -142 57q-25 0 -42 -12.5t-19 -30.5q-5 -34 45 -52l118 -47q99 -38 99 -124q0 -69 -54 -108.5t-130 -39.5q-61 0 -103 17q-66 24 -104 59l46 78q33 -29 77.5 -47.5t84.5 -18.5q52 0 69 38q15 38 -31 60q-6 2 -21.5 8.5t-43 17 t-64.5 24.5q-53 20 -78 53.5t-25 69.5q0 65 54 103t127 38q45 0 90 -14zM171 666h111l81 -122h-95l-41 49l-41 -49h-95z" />
<glyph horiz-adv-x="455" d="M421 327q0 -10 -3.5 -26t-21.5 -44t-48 -44q24 -16 36 -48l57 -165h-116l-42 124q-11 30 -24 43t-34 13h-73v-180h-112v484h218q90 0 126.5 -47t36.5 -110zM152 266h108q27 0 38.5 19.5t11.5 40.5q0 30 -13.5 51t-42.5 21h-102v-132zM269 544h-111l-81 122h95l41 -49 l41 49h95z" />
<glyph horiz-adv-x="489" d="M301 544h-111l-81 122h95l41 -49l41 49h95zM317 0l-166 328v-328h-111v484h138l160 -323v323h111v-484h-132z" />
<glyph horiz-adv-x="328" d="M5 27l27 79q29 -13 61 -23q44 -15 64.5 -2t21.5 61v342h109v-347q0 -79 -41 -112.5t-105 -33.5q-28 0 -58 6q-31 6 -79 30zM177 666h111l81 -122h-95l-41 49l-41 -49h-95z" />
<glyph horiz-adv-x="192" d="M40 0v484h112v-484h-112zM91 558l-6 3q-18 10 -28 10q-6 0 -11 -30h-74q2 50 18.5 79t59.5 29q16 0 38 -11l6 -3q13 -10 27 -10q4 0 10 30h76q-4 -109 -79 -109q-18 0 -37 12z" />
<glyph horiz-adv-x="485" d="M333 211h-181v-211h-112v484h112v-186h181v186h112v-484h-112v211zM189 666h111l81 -122h-95l-41 49l-41 -49h-95z" />
<glyph horiz-adv-x="498" d="M361 187h-94v88h201v-243q-32 -17 -86 -29t-95 -12q-121 0 -195 72t-74 179q0 106 74 178t195 72q98 0 172 -49l-40 -77q-61 40 -116 40q-85 0 -128 -49t-43 -115q0 -65 42.5 -114.5t119.5 -49.5q33 0 67 10v99zM213 666h111l81 -122h-95l-41 49l-41 -49h-95z" />
<glyph horiz-adv-x="418" d="M393 0h-353v484h348v-86h-235v-111h217v-86h-217v-115h240v-86zM269 544h-111l-81 122h95l41 -49l41 49h95z" />
<glyph horiz-adv-x="495" d="M269 544h-111l-81 122h95l41 -49l41 49h95zM225 0h-185v484h185q119 0 184.5 -61.5t65.5 -180.5t-65.5 -180.5t-184.5 -61.5zM151 86h77q59 0 97 39t38 117q0 79 -37.5 117.5t-99.5 38.5h-75v-312z" />
<glyph horiz-adv-x="410" d="M152 484v-397h221v-87h-333v484h112zM193 363l74 121h123l-101 -121h-96z" />
<glyph horiz-adv-x="465" d="M30 242q0 107 68.5 178.5t181.5 71.5q90 0 160 -35l-29 -77q-66 25 -117 25q-76 0 -113.5 -48t-37.5 -115t37.5 -115.5t113.5 -48.5q52 0 119 23l27 -75q-70 -35 -160 -35q-113 0 -181.5 72t-68.5 179zM318 544h-111l-81 122h95l41 -49l41 49h95z" />
<glyph horiz-adv-x="465" d="M30 242q0 107 68.5 178.5t181.5 71.5q90 0 160 -35l-29 -77q-66 25 -117 25q-76 0 -113.5 -48t-37.5 -115t37.5 -115.5t113.5 -48.5q52 0 119 23l27 -75q-70 -35 -160 -35q-113 0 -181.5 72t-68.5 179zM213 666h111l81 -122h-95l-41 49l-41 -49h-95z" />
<glyph horiz-adv-x="455" d="M418 0h-393v79l258 319h-247v86h394v-76l-264 -320h252v-88zM152 536l74 121h123l-101 -121h-96z" />
<glyph horiz-adv-x="695" d="M401 468l83 -297l85 313h116l-148 -484h-105l-84 290l-85 -290h-105l-148 484h116l85 -312l84 296h106zM314 657l74 -121h-96l-101 121h123z" />
<glyph horiz-adv-x="695" d="M484 171l-83 297h-106l-84 -296l-85 312h-116l148 -484h105l85 290l84 -290h105l148 484h-116zM301 536l74 121h123l-101 -121h-96z" />
<glyph horiz-adv-x="504" d="M309 0h-114v170l-185 314h129l113 -222l113 222h129l-185 -313v-171zM237 657l74 -121h-96l-101 121h123z" />
<glyph horiz-adv-x="441" d="M310 478q40 -15 88 -50l-41 -79q-72 57 -142 57q-25 0 -42 -12.5t-19 -30.5q-5 -34 45 -52l118 -47q99 -38 99 -124q0 -69 -54 -108.5t-130 -39.5q-61 0 -103 17q-66 24 -104 59l46 78q33 -29 77.5 -47.5t84.5 -18.5q52 0 69 38q15 38 -31 60q-6 2 -21.5 8.5t-43 17 t-64.5 24.5q-53 20 -78 53.5t-25 69.5q0 65 54 103t127 38q45 0 90 -14zM165 536l74 121h123l-101 -121h-96z" />
<glyph horiz-adv-x="471" d="M421 327q0 -10 -3.5 -26t-21.5 -44t-48 -44q24 -16 36 -48l57 -165h-116l-42 124q-11 30 -24 43t-34 13h-73v-180h-112v484h218q90 0 126.5 -47t36.5 -110zM152 266h108q27 0 38.5 19.5t11.5 40.5q0 30 -13.5 51t-42.5 21h-102v-132zM146 536l74 121h123l-101 -121h-96z " />
<glyph horiz-adv-x="398" d="M152 87v397h-112v-484h333v87h-221zM42 536l74 121h123l-101 -121h-96z" />
<glyph horiz-adv-x="465" d="M30 242q0 -107 68.5 -179t181.5 -72q90 0 160 35l-27 75q-67 -23 -119 -23q-76 0 -113.5 48.5t-37.5 115.5t37.5 115t113.5 48q51 0 117 -25l29 77q-70 35 -160 35q-113 0 -181.5 -71.5t-68.5 -178.5zM207 536l74 121h123l-101 -121h-96z" />
<glyph horiz-adv-x="498" d="M361 187h-94v88h201v-243q-32 -17 -86 -29t-95 -12q-121 0 -195 72t-74 179q0 106 74 178t195 72q98 0 172 -49l-40 -77q-61 40 -116 40q-85 0 -128 -49t-43 -115q0 -65 42.5 -114.5t119.5 -49.5q33 0 67 10v99zM223 556v96h111v-96h-111z" />
<glyph horiz-adv-x="418" d="M162 556v96h111v-96h-111zM393 0h-353v484h348v-86h-235v-111h217v-86h-217v-115h240v-86z" />
<glyph horiz-adv-x="542" d="M270 -9q112 0 177 67t65 184t-65 183.5t-177 66.5q-111 0 -175.5 -66.5t-64.5 -183.5t64.5 -184t175.5 -67zM270 407q61 0 93.5 -47t32.5 -118q0 -74 -32.5 -120t-93.5 -46t-93 46t-32 120q0 71 32.5 118t92.5 47zM144 536l74 121h123l-101 -121h-96zM300 536l74 121h123 l-101 -121h-96z" />
<glyph horiz-adv-x="504" d="M111 536l74 121h123l-101 -121h-96zM267 536l74 121h123l-101 -121h-96zM251 -9q104 0 158 51.5t54 174.5v267h-112v-268q0 -69 -23.5 -101t-76.5 -32q-52 0 -75.5 32t-23.5 101v268h-112v-267q0 -122 54 -174t157 -52z" />
<glyph horiz-adv-x="503" d="M251 -9q-103 0 -157 52t-54 174v267h112v-268q0 -69 23.5 -101t75.5 -32q53 0 76.5 32t23.5 101v268h112v-267q0 -123 -54 -174.5t-158 -51.5zM158 600q0 36 23 60.5t69 24.5q48 0 70 -23.5t22 -61.5q0 -37 -22 -60.5t-70 -23.5q-46 0 -69 24t-23 60zM220 600 q0 -27 30 -27t30 27t-30 27t-30 -27z" />
<glyph horiz-adv-x="398" d="M152 484v-397h221v-87h-333v484h112zM245 289v96h111v-96h-111z" />
<glyph horiz-adv-x="503" d="M251 533q-59 0 -87.5 36t-28.5 93h71q4 -30 13.5 -43t31.5 -13t31.5 13t13.5 43h71q0 -57 -28.5 -93t-87.5 -36zM251 -9q104 0 158 51.5t54 174.5v267h-112v-268q0 -69 -23.5 -101t-76.5 -32q-52 0 -75.5 32t-23.5 101v268h-112v-267q0 -122 54 -174t157 -52z" />
<glyph horiz-adv-x="542" d="M270 -9q112 0 177 67t65 184t-65 183.5t-177 66.5q-111 0 -175.5 -66.5t-64.5 -183.5t64.5 -184t175.5 -67zM270 407q61 0 93.5 -47t32.5 -118q0 -74 -32.5 -120t-93.5 -46t-93 46t-32 120q0 71 32.5 118t92.5 47zM269 533q-59 0 -87.5 36t-28.5 93h71q4 -30 13.5 -43 t31.5 -13t31.5 13t13.5 43h71q0 -57 -28.5 -93t-87.5 -36z" />
<glyph horiz-adv-x="498" d="M361 187h-94v88h201v-243q-32 -17 -86 -29t-95 -12q-121 0 -195 72t-74 179q0 106 74 178t195 72q98 0 172 -49l-40 -77q-61 40 -116 40q-85 0 -128 -49t-43 -115q0 -65 42.5 -114.5t119.5 -49.5q33 0 67 10v99zM269 533q-59 0 -87.5 36t-28.5 93h71q4 -30 13.5 -43 t31.5 -13t31.5 13t13.5 43h71q0 -57 -28.5 -93t-87.5 -36z" />
<glyph horiz-adv-x="418" d="M213 533q-59 0 -87.5 36t-28.5 93h71q4 -30 13.5 -43t31.5 -13t31.5 13t13.5 43h71q0 -57 -28.5 -93t-87.5 -36zM393 0h-353v484h348v-86h-235v-111h217v-86h-217v-115h240v-86z" />
<glyph horiz-adv-x="526" d="M263 533q-59 0 -87.5 36t-28.5 93h71q4 -30 13.5 -43t31.5 -13t31.5 13t13.5 43h71q0 -57 -28.5 -93t-87.5 -36zM128 0h-118l202 484h102l202 -484h-118l-44 106h-184q-21 -50 -42 -106zM263 369l-60 -177h120z" />
<glyph horiz-adv-x="489" d="M317 0l-166 328v-328h-111v484h138l160 -323v323h111v-484h-132zM193 536l74 121h123l-101 -121h-96z" />
<glyph horiz-adv-x="455" d="M418 0h-393v79l258 319h-247v86h394v-76l-264 -320h252v-88zM174 556v96h111v-96h-111z" />
<glyph horiz-adv-x="695" d="M484 171l-83 297h-106l-84 -296l-85 312h-116l148 -484h105l85 290l84 -290h105l148 484h-116zM226 552v96h102v-96h-102zM366 552v96h102v-96h-102z" />
<glyph horiz-adv-x="503" d="M146 565v83h208v-83h-208zM251 -9q104 0 158 51.5t54 174.5v267h-112v-268q0 -69 -23.5 -101t-76.5 -32q-52 0 -75.5 32t-23.5 101v268h-112v-267q0 -122 54 -174t157 -52z" />
<glyph horiz-adv-x="526" d="M128 0h-118l202 484h102l202 -484h-118l-44 106h-184q-21 -50 -42 -106zM263 369l-60 -177h120zM156 565v83h208v-83h-208z" />
<glyph horiz-adv-x="418" d="M114 565v83h208v-83h-208zM393 0h-353v484h348v-86h-235v-111h217v-86h-217v-115h240v-86z" />
<glyph horiz-adv-x="542" d="M270 -9q112 0 177 67t65 184t-65 183.5t-177 66.5q-111 0 -175.5 -66.5t-64.5 -183.5t64.5 -184t175.5 -67zM270 407q61 0 93.5 -47t32.5 -118q0 -74 -32.5 -120t-93.5 -46t-93 46t-32 120q0 71 32.5 118t92.5 47zM168 565v83h208v-83h-208z" />
<glyph horiz-adv-x="191" d="M40 0v484h111v-484h-111zM47 536l74 121h123l-101 -121h-96z" />
<glyph horiz-adv-x="192" d="M40 0v484h112v-484h-112zM-8 565v83h208v-83h-208z" />
<glyph horiz-adv-x="503" d="M463 217q0 -112 -45.5 -164t-133.5 -60q-22 -31 -22 -46q0 -9 30 -2l45 13v-76q-28 -17 -66 -20q-42 -4 -66.5 13t-24.5 51q0 16 3 27q15 33 20 41q-163 21 -163 223v267h112v-268q0 -69 23.5 -101t75.5 -32q53 0 76.5 32t23.5 101v268h112v-267z" />
<glyph horiz-adv-x="526" d="M128 0h-118l202 484h102l202 -484h-45q-27 -40 -27 -53q0 -9 30 -2l45 13v-76q-29 -16 -67 -20q-41 -4 -65.5 13t-24.5 51q0 31 34 76l-42 104h-184zM263 355l-60 -163h120z" />
<glyph horiz-adv-x="425" d="M392 0h-10q-23 -34 -23 -53q0 -9 30 -2l45 13v-76q-28 -16 -67 -20q-40 -3 -65 14t-25 50q0 28 26 74h-263v484h347v-86h-235v-111h218v-86h-218v-115h240v-86z" />
<glyph horiz-adv-x="485" d="M333 211h-181v-211h-112v484h112v-186h181v186h112v-484h-112v211zM139 565v83h208v-83h-208z" />
<glyph horiz-adv-x="441" d="M416 140q0 -64 -42.5 -100.5t-106.5 -44.5q22 -35 22 -70q0 -34 -24 -50.5t-66 -12.5q-37 3 -66 20v76l46 -13q25 -6 25 7t-20 42q-91 18 -159 74l46 78q33 -29 77.5 -47.5t84.5 -18.5q52 0 69 38q15 38 -31 60q-35 13 -65 25t-42 17t-22 8q-53 20 -78 53.5t-25 69.5 q0 68 55.5 104.5t125.5 36.5q44 0 90 -15q43 -15 88 -49l-41 -79q-72 57 -142 57q-25 0 -42 -12.5t-19 -30.5q-5 -34 45 -52l118 -47q99 -38 99 -124z" />
<glyph horiz-adv-x="421" d="M411 398h-144v-398h-111v398h-146v86h401v-86zM108 565v83h208v-83h-208z" />
<glyph horiz-adv-x="489" d="M262 -135v86q7 -1 32 -1q43 0 45 57l-188 320v-327h-111v484h138l160 -284v284h111v-472q0 -148 -147 -148h-18t-15 0.5t-7 0.5z" />
<glyph horiz-adv-x="489" d="M108 -187l69 144h119l-94 -144h-94zM317 0l-166 328v-328h-111v484h138l160 -323v323h111v-484h-132z" />
<glyph horiz-adv-x="457" d="M452 0h-134l-139 185l-27 -33v-152h-112v484h112v-186l140 186h129l-172 -219zM109 -187l69 144h119l-94 -144h-94z" />
<glyph horiz-adv-x="498" d="M361 187h-94v88h201v-243q-32 -17 -86 -29t-95 -12q-121 0 -195 72t-74 179q0 106 74 178t195 72q98 0 172 -49l-40 -77q-61 40 -116 40q-85 0 -128 -49t-43 -115q0 -65 42.5 -114.5t119.5 -49.5q33 0 67 10v99zM152 -187l69 144h119l-94 -144h-94z" />
<glyph horiz-adv-x="398" d="M152 484v-397h221v-87h-333v484h112zM78 -187l69 144h119l-94 -144h-94z" />
<glyph horiz-adv-x="471" d="M421 327q0 -10 -3.5 -26t-21.5 -44t-48 -44q24 -16 36 -48l57 -165h-116l-42 124q-11 30 -24 43t-34 13h-73v-180h-112v484h218q90 0 126.5 -47t36.5 -110zM152 266h108q27 0 38.5 19.5t11.5 40.5q0 30 -13.5 51t-42.5 21h-102v-132zM118 -187l69 144h119l-94 -144h-94z " />
<glyph horiz-adv-x="533" d="M78 484h186q118 0 183.5 -61.5t65.5 -180.5t-65.5 -180.5t-183.5 -61.5h-186v200h-68v87h68v197zM189 86h78q59 0 96.5 39t37.5 117q0 79 -37 117.5t-99 38.5h-76v-111h138v-87h-138v-114z" />
<glyph horiz-adv-x="526" d="M128 0h-118l202 484h102l202 -484h-118l-44 106h-184q-21 -50 -42 -106zM263 355l-60 -163h120zM171 600q0 -36 23 -60t69 -24q48 0 70 23.5t22 60.5q0 38 -22 61.5t-70 23.5q-46 0 -69 -24.5t-23 -60.5zM233 600q0 27 30 27t30 -27t-30 -27t-30 27zM212 717l74 121h123 l-101 -121h-96z" />
<glyph horiz-adv-x="685" d="M308 388l-87 -196h87v196zM420 86h241v-86h-353v106h-123l-52 -106h-123l242 484h404v-86h-235v-111h218v-86h-219v-115zM276 536l74 121h123l-101 -121h-96z" />
<glyph horiz-adv-x="510" d="M40 0v484h111v-484h-111zM187 27l27 79q29 -13 61 -23q44 -15 64.5 -2t21.5 61v342h109v-347q0 -79 -41 -112.5t-105 -33.5q-28 0 -58 6q-31 6 -79 30z" />
<glyph horiz-adv-x="542" d="M161 152l157 245q-26 10 -48 10q-60 0 -92.5 -47t-32.5 -118q0 -46 16 -90zM128 -38h-92l62 92q-68 66 -68 188q0 117 64.5 183.5t175.5 66.5q54 0 98 -16q4 7 13.5 21.5t12.5 19.5h89l-50 -80q79 -68 79 -195q0 -117 -65 -184t-177 -67q-65 0 -107 19q-1 -2 -35 -48z M373 344l-160 -253q26 -15 57 -15q61 0 93.5 46t32.5 120q0 59 -23 102zM209 536l74 121h123l-101 -121h-96z" />
<glyph horiz-adv-x="421" d="M411 398h-144v-398h-111v398h-146v86h401v-86zM79 -187l69 144h119l-94 -144h-94z" />
<glyph horiz-adv-x="441" d="M97 -187l69 144h119l-94 -144h-94zM310 478q40 -15 88 -50l-41 -79q-72 57 -142 57q-25 0 -42 -12.5t-19 -30.5q-5 -34 45 -52l118 -47q99 -38 99 -124q0 -69 -54 -108.5t-130 -39.5q-61 0 -103 17q-66 24 -104 59l46 78q33 -29 77.5 -47.5t84.5 -18.5q52 0 69 38 q15 38 -31 60q-6 2 -21.5 8.5t-43 17t-64.5 24.5q-53 20 -78 53.5t-25 69.5q0 65 54 103t127 38q45 0 90 -14z" />
<glyph horiz-adv-x="314" d="M60 175q1 143 59 226t155 83v-73q-46 -1 -79 -60t-33 -177q0 -116 33 -175t79 -60v-73q-97 0 -155 83.5t-59 225.5z" />
<glyph horiz-adv-x="314" d="M254 175q-1 -142 -59 -225.5t-155 -83.5v73q47 1 80 60t33 175q0 118 -33 177t-80 60v73q97 0 155 -83t59 -226z" />
<glyph horiz-adv-x="313" d="M206 264q1 -53 -52 -89q21 -12 37 -36t15 -53v-123q0 -28 18 -28h49v-69h-64q-44 0 -69.5 24.5t-25.5 64.5v122q0 32 -10 49t-44 20v58q34 3 44 20t10 49v122q0 41 23.5 65t71.5 24h64v-69h-49q-18 0 -18 -28v-123z" />
<glyph horiz-adv-x="313" d="M107 264v123q0 28 -18 28h-49v69h64q48 0 71.5 -24t23.5 -65v-122q0 -32 10 -49t44 -20v-58q-34 -3 -44 -20t-10 -49v-122q0 -40 -25.5 -64.5t-69.5 -24.5h-64v69h49q18 0 18 28v123q-1 29 15 53t37 36q-53 36 -52 89z" />
<glyph horiz-adv-x="265" d="M225 407h-61v-463h61v-78h-165v618h165v-77z" />
<glyph horiz-adv-x="265" d="M102 407h-62v77h165v-618h-165v78h62v463z" />
<glyph horiz-adv-x="463" d="M138 139q0 -31 18.5 -50.5t51.5 -19.5q43 0 69 42l-91 94q-20 -7 -34 -25t-14 -41zM206 300q39 21 37 67q-4 42 -35 43q-17 -1 -26 -13.5t-9 -29.5q-2 -21 7.5 -41t25.5 -26zM279 246l37 -39q8 4 8 17v32h86q3 -82 -17 -125q22 -23 32.5 -36.5t19.5 -38.5t9 -56h-96 q0 29 -12 46q-45 -54 -138 -54q-87 0 -132.5 41t-45.5 102q0 85 85 127q-49 45 -47 108q4 53 45.5 83t94.5 30t94 -30t45 -82q4 -79 -68 -125z" />
<glyph horiz-adv-x="306" d="M183 418l58 36l35 -58l-68 -33l68 -31l-35 -60l-58 36l3 -65h-65l4 67l-60 -38l-35 60l68 31q-4 2 -30.5 14t-37.5 18l35 59l60 -37q-1 13 -2.5 37.5t-1.5 29.5h65z" />
<glyph horiz-adv-x="596" d="M509 73l29 -41q-40 -41 -102.5 -65t-123.5 -24q-124 0 -203 77t-79 199q0 120 79.5 195.5t196.5 75.5q67 0 119 -20.5t81.5 -54t44.5 -71.5t15 -77q0 -101 -53 -153t-117 -52q-42 0 -63 43q-38 -29 -72 -29q-111 0 -111 110q0 69 43 116.5t95 47.5q34 0 53 -35l7 30h78 l-34 -179q-4 -12 6 -22.5t23 -10.5q10 0 24.5 12t28.5 44t14 74q0 79 -54.5 120.5t-127.5 41.5q-86 0 -141.5 -57t-55.5 -149q0 -94 55 -155t150 -61q92 0 195 70zM304 283q-30 0 -50 -30t-20 -63q0 -19 7.5 -33.5t21.5 -14.5t30.5 11t17.5 29l18 79q2 11 -8 16.5t-17 5.5z " />
<glyph horiz-adv-x="192" d="M49 137l-6 347h106l-6 -347h-94zM40 0v89h112v-89h-112z" />
<glyph horiz-adv-x="398" d="M234 289q28 26 28 59q0 24 -17 39.5t-47 15.5q-54 0 -98 -73l-64 63q11 19 26.5 37.5t54 39.5t84.5 21q73 0 122 -38t49 -108q0 -59 -75 -123q-7 -6 -19 -14.5t-16.5 -12.5t-10 -12.5t-7.5 -19t-2 -26.5h-105q0 22 2 36.5t3.5 24t12.5 21t16 17t27.5 24t35.5 29.5zM134 0 v89h112v-89h-112z" />
<glyph horiz-adv-x="192" d="M43 -132l6 347h94l6 -347h-106zM40 263v89h112v-89h-112z" />
<glyph horiz-adv-x="398" d="M164 64q13 11 35.5 29.5t27.5 24t16 17t12.5 21t3.5 24t2 36.5h-105q0 -16 -2 -26.5t-7.5 -19t-10 -12.5t-16.5 -12.5t-19 -14.5q-75 -64 -75 -123q0 -70 49 -108t122 -38q46 0 84.5 21t54 39.5t26.5 37.5l-64 63q-44 -73 -98 -73q-30 0 -47 15.5t-17 39.5q0 33 28 59z M264 353v-89h-112v89h112z" />
<glyph horiz-adv-x="554" d="M30 235h494v-84h-494v84z" />
<glyph horiz-adv-x="427" d="M30 235h367v-85h-367v85z" />
<glyph horiz-adv-x="447" d="M242 403l-96 -172l99 -167h-110l-95 169l95 170h107zM403 403l-95 -172l99 -167h-110l-95 169l95 170h106z" />
<glyph horiz-adv-x="447" d="M301 231l-96 172h107l95 -170l-95 -169h-110zM139 231l-95 172h106l95 -170l-95 -169h-110z" />
<glyph horiz-adv-x="285" d="M242 403l-96 -172l99 -167h-110l-95 169l95 170h107z" />
<glyph horiz-adv-x="285" d="M139 231l-96 172h107l95 -170l-95 -169h-110z" />
<glyph horiz-adv-x="176" d="M30 196v97h116v-97h-116z" />
<glyph horiz-adv-x="179" d="M40 0v484h111v-484h-111zM40 536l74 121h123l-101 -121h-96z" />
<glyph horiz-adv-x="715" d="M60 686h595v-552h-595v552zM580 207v405h-122q-14 -43 -49.5 -142t-51.5 -149l-100 291h-122v-405h64v367l131 -359h53l133 359v-367h64zM85 0h14l8 47q0 3 1 20.5t1 21.5v-39v-50h15v109h-25l-3 -45q-2 -7 -2 -32q0 8 -2 19.5t-2 12.5l-5 45h-25v-109h17v68q0 5 -1 12.5 t-1 8.5h2q0 -4 1 -17t1 -18zM135 91v-74q0 -9 6 -14t12 -5q23 0 23 19v74q0 21 -23 21q-18 0 -18 -21zM151 17v74q0 7 2 7q5 0 6 -1t1 -6v-74q0 -4 -7 -4q-2 0 -2 4zM202 17v25h-17v-25q0 -19 22 -19q7 0 14 5t7 14v20q0 5 -13 21.5t-13 20.5v12q0 7 5 7q6 0 6 -7v-21h15v21 q0 21 -21 21q-22 0 -22 -21v-12q0 -10 14 -26.5t14 -24.5v-11q0 -4 -6 -4q-5 0 -5 4zM279 109h-45v-13h15v-96h17v96h13v13zM286 109l-12 -109h14l3 28h11l5 -28h16l-12 109h-25zM302 45h-8l2 44h2zM328 0h15v50q12 0 12 -8q0 -29 2 -42h15v45q-4 15 -17 15q17 2 17 17v12 q0 20 -22 20h-22v-109zM343 64v34h7q5 0 5 -7v-21q0 -6 -9 -6h-3zM379 109v-109h23q19 0 19 20v65q0 14 -4 19t-17 5h-21zM396 15v83h4q4 0 4 -9v-69q0 -5 -4 -5h-4zM429 0h39v15h-22v39h20v14h-20v28h22v13h-39v-109zM491 17v25h-17v-25q0 -9 6 -14t13 -5q23 0 23 19v20 q0 5 -12.5 21.5t-12.5 20.5v12q0 7 2 7q5 0 6 -1t1 -6v-21h16v21q0 21 -23 21q-19 0 -19 -21v-12q0 -10 13 -26.5t13 -24.5v-11q0 -4 -7 -4q-2 0 -2 4zM525 0h16v109h-16v-109zM593 54h-21v-12h4v-25q0 -4 -4 -4q-6 0 -6 4v74q0 7 6 7q4 0 4 -7v-21h17v21q0 21 -21 21 q-23 0 -23 -21v-74q0 -9 6.5 -14t12.5 -5q10 0 17 8v-6h8v54zM628 109h-25v-109h13v79v12q0 -7 5 -34l7 -57h25v109h-15v-55q0 -4 0.5 -10.5t0.5 -11.5t-1 -9v-6q0 37 -8 62z" />
</font>
</defs>
</svg>
