<?xml version="1.0" encoding="utf-8"?>
<!-- Generator: Adobe Illustrator 17.0.0, SVG Export Plug-In . SVG Version: 6.00 Build 0)  -->
<!DOCTYPE svg PUBLIC "-//W3C//DTD SVG 1.1//EN" "http://www.w3.org/Graphics/SVG/1.1/DTD/svg11.dtd">
<svg version="1.1" id="Layer_1" xmlns="http://www.w3.org/2000/svg" xmlns:xlink="http://www.w3.org/1999/xlink" x="0px" y="0px"
	 width="23.961px" height="27.151px" viewBox="0 0 23.961 27.151" enable-background="new 0 0 23.961 27.151" xml:space="preserve">
<rect x="0" y="0" fill="#C54739" width="23.961" height="27.151"/>
<g>
	<path fill="#FFFFFF" d="M13.593,15.244h-3.194L9.906,6.087h4.181L13.593,15.244z M9.944,18.631c0-0.587,0.175-1.044,0.523-1.37
		c0.348-0.326,0.854-0.489,1.52-0.489c0.658,0,1.156,0.163,1.495,0.489s0.508,0.782,0.508,1.37c0,0.581-0.176,1.034-0.527,1.36
		c-0.352,0.326-0.844,0.489-1.476,0.489c-0.64,0-1.14-0.163-1.501-0.489C10.125,19.665,9.944,19.212,9.944,18.631z"/>
</g>
</svg>
