<?xml version="1.0" encoding="utf-8"?>
<!-- Generator: Adobe Illustrator 17.0.0, SVG Export Plug-In . SVG Version: 6.00 Build 0)  -->
<!DOCTYPE svg PUBLIC "-//W3C//DTD SVG 1.1//EN" "http://www.w3.org/Graphics/SVG/1.1/DTD/svg11.dtd">
<svg version="1.1" id="Layer_1" xmlns="http://www.w3.org/2000/svg" xmlns:xlink="http://www.w3.org/1999/xlink" x="0px" y="0px"
	 width="15.992px" height="15.996px" viewBox="0 0 15.992 15.996" enable-background="new 0 0 15.992 15.996" xml:space="preserve">
<path fill="#D0D2D3" d="M15.552,9.745L15.04,9.384c-0.281-0.197-0.507-0.638-0.507-0.978l-0.001-0.817
	c0-0.341,0.227-0.779,0.508-0.978l0.512-0.358l0.439-0.312c-0.193-0.763-0.492-1.483-0.889-2.144l-0.534,0.092l-0.612,0.106
	c-0.337,0.06-0.81-0.09-1.051-0.33l-0.577-0.578c-0.241-0.242-0.388-0.716-0.33-1.047l0.106-0.615l0.092-0.536
	c-0.66-0.393-1.381-0.694-2.145-0.89L9.742,0.446L9.379,0.957C9.185,1.236,8.744,1.461,8.403,1.462L7.589,1.463
	C7.247,1.461,6.806,1.236,6.613,0.957L6.256,0.446L5.942,0C5.178,0.197,4.46,0.496,3.796,0.892L3.89,1.426l0.106,0.615
	c0.058,0.337-0.091,0.808-0.329,1.047l-0.576,0.58C2.844,3.906,2.373,4.058,2.04,3.996L1.427,3.889L0.893,3.798
	C0.497,4.46,0.194,5.178,0.001,5.941l0.443,0.314l0.512,0.36C1.233,6.81,1.462,7.251,1.462,7.589v0.818
	c0,0.338-0.228,0.779-0.508,0.976l-0.51,0.361L0,10.054c0.196,0.764,0.5,1.483,0.892,2.149l0.534-0.099l0.614-0.103
	c0.333-0.059,0.805,0.09,1.052,0.328l0.576,0.581c0.242,0.237,0.388,0.713,0.33,1.049l-0.107,0.611l-0.094,0.537
	c0.661,0.392,1.383,0.694,2.144,0.889l0.312-0.445l0.359-0.51c0.195-0.281,0.636-0.509,0.978-0.508l0.816-0.001
	c0.341,0.001,0.779,0.228,0.977,0.506l0.358,0.513l0.31,0.445c0.763-0.195,1.487-0.498,2.149-0.893l-0.095-0.534L12,13.957
	c-0.059-0.336,0.088-0.81,0.329-1.053l0.581-0.576c0.24-0.239,0.713-0.388,1.046-0.331l0.613,0.105l0.536,0.095
	c0.394-0.661,0.694-1.383,0.888-2.142L15.552,9.745z M7.989,11.056c-1.697-0.001-3.076-1.381-3.076-3.076
	c0-1.697,1.379-3.081,3.076-3.081c1.695,0,3.078,1.384,3.078,3.081C11.067,9.674,9.685,11.055,7.989,11.056z"/>
</svg>
