<?xml version="1.0" encoding="utf-8"?>
<!-- Generator: Adobe Illustrator 17.0.0, SVG Export Plug-In . SVG Version: 6.00 Build 0)  -->
<!DOCTYPE svg PUBLIC "-//W3C//DTD SVG 1.1//EN" "http://www.w3.org/Graphics/SVG/1.1/DTD/svg11.dtd">
<svg version="1.1" id="Layer_1" xmlns="http://www.w3.org/2000/svg" xmlns:xlink="http://www.w3.org/1999/xlink" x="0px" y="0px"
	 width="20px" height="20px" viewBox="0 0 20 20" enable-background="new 0 0 20 20" xml:space="preserve">
<g>
	<path fill="#FFFFFF" d="M14.775,15.573c-0.115,0.119-0.305,0.122-0.424,0.008L4.267,5.859C4.148,5.744,4.145,5.553,4.259,5.434
		l0.972-1.008c0.115-0.119,0.305-0.122,0.424-0.008l10.084,9.722c0.119,0.115,0.122,0.305,0.008,0.424L14.775,15.573z"/>
</g>
<g>
	<path fill="#FFFFFF" d="M5.655,15.581c-0.119,0.115-0.31,0.111-0.424-0.008l-0.972-1.008c-0.115-0.119-0.111-0.31,0.008-0.424
		L14.35,4.419c0.119-0.115,0.31-0.111,0.424,0.008l0.972,1.008c0.115,0.119,0.111,0.31-0.008,0.424L5.655,15.581z"/>
</g>
</svg>
