<?xml version="1.0" encoding="utf-8"?>
<!-- Generator: Adobe Illustrator 17.0.0, SVG Export Plug-In . SVG Version: 6.00 Build 0)  -->
<!DOCTYPE svg PUBLIC "-//W3C//DTD SVG 1.1//EN" "http://www.w3.org/Graphics/SVG/1.1/DTD/svg11.dtd">
<svg version="1.1" id="Layer_1" xmlns="http://www.w3.org/2000/svg" xmlns:xlink="http://www.w3.org/1999/xlink" x="0px" y="0px"
	 width="30px" height="20px" viewBox="0 0 30 20" enable-background="new 0 0 30 20" xml:space="preserve">
<path fill="#404040" d="M30,17c0,1.657-1.343,3-3,3H3c-1.657,0-3-1.343-3-3V3c0-1.657,1.343-3,3-3h24c1.657,0,3,1.343,3,3V17z"/>
<circle fill="#808080" cx="7.52" cy="9.655" r="3.051"/>
<g>
	<g>
		<path fill="#808080" d="M18.346,14.168l-1.752-6.17h-0.053c0.082,1.051,0.123,1.867,0.123,2.449v3.721h-2.051V5.602h3.082
			l1.787,6.082h0.047l1.752-6.082h3.088v8.566h-2.127v-3.756c0-0.195,0.003-0.412,0.009-0.65S22.283,8.94,22.33,8.01h-0.053
			l-1.729,6.158H18.346z"/>
	</g>
</g>
</svg>
