<?xml version="1.0" encoding="utf-8"?>
<!-- Generator: Adobe Illustrator 16.0.0, SVG Export Plug-In . SVG Version: 6.00 Build 0)  -->
<!DOCTYPE svg PUBLIC "-//W3C//DTD SVG 1.1//EN" "http://www.w3.org/Graphics/SVG/1.1/DTD/svg11.dtd">
<svg version="1.1" id="Layer_1" xmlns="http://www.w3.org/2000/svg" xmlns:xlink="http://www.w3.org/1999/xlink" x="0px" y="0px"
	 width="258.553px" height="90px" viewBox="0 0 258.553 90" enable-background="new 0 0 258.553 90" xml:space="preserve">
<g>
	<g>
		<rect x="90.398" y="72.529" fill="#00293E" width="159.155" height="2.59"/>
		<path fill="#00293E" d="M88.872,36.5l3.5-4.18c2.266,1.783,4.731,2.723,7.354,2.723c1.717,0,2.623-0.584,2.623-1.555v-0.066
			c0-0.971-0.745-1.457-3.856-2.203c-4.826-1.102-8.552-2.461-8.552-7.092v-0.066c0-4.211,3.337-7.256,8.781-7.256
			c3.856,0,6.868,1.039,9.327,3.014l-3.141,4.438c-2.073-1.488-4.339-2.234-6.349-2.234c-1.521,0-2.269,0.613-2.269,1.457v0.066
			c0,1.035,0.781,1.486,3.953,2.201c5.184,1.133,8.424,2.816,8.424,7.062v0.064c0,4.633-3.663,7.387-9.167,7.387
			C95.48,40.26,91.69,38.992,88.872,36.5z"/>
		<path fill="#00293E" d="M112.449,17.193h6.283v22.678h-6.283V17.193z"/>
		<path fill="#00293E" d="M122.494,28.596v-0.062c0-6.611,5.182-11.795,12.179-11.795c3.986,0,6.802,1.201,9.2,3.275l-3.693,4.471
			c-1.62-1.361-3.208-2.141-5.474-2.141c-3.271,0-5.8,2.723-5.8,6.189v0.062c0,3.691,2.562,6.316,6.153,6.316
			c1.557,0,2.724-0.326,3.63-0.938v-2.756h-4.439v-4.598h10.398v10.17c-2.398,2.01-5.703,3.533-9.849,3.533
			C127.742,40.324,122.494,35.463,122.494,28.596z"/>
		<path fill="#00293E" d="M148.969,17.193h6.283v8.486h8.066v-8.486h6.286v22.678h-6.286v-8.619h-8.066v8.619h-6.283V17.193z"/>
		<path fill="#00293E" d="M179.167,22.701h-6.771v-5.508h19.856v5.508h-6.802v17.17h-6.283V22.701z"/>
		<path fill="#00293E" d="M90.589,45.541h6.642l5.41,8.775l5.408-8.775h6.642v22.674h-6.25V55.191l-5.8,8.879h-0.129l-5.767-8.844
			v12.988h-6.156V45.541z"/>
		<path fill="#00293E" d="M126.856,45.381h6.059l9.653,22.834h-6.741l-1.618-4.08h-8.778l-1.62,4.08h-6.576L126.856,45.381z
			 M132.364,59.244l-2.526-6.416l-2.559,6.416H132.364z"/>
		<path fill="#00293E" d="M143.06,56.943v-0.064c0-6.609,5.052-11.791,11.92-11.791c4.632,0,7.611,1.943,9.62,4.697l-4.729,3.658
			c-1.294-1.584-2.785-2.656-4.955-2.656c-3.177,0-5.41,2.721-5.41,6.027v0.064c0,3.4,2.233,6.059,5.41,6.059
			c2.363,0,3.755-1.105,5.116-2.756l4.729,3.367c-2.137,2.951-5.021,5.121-10.009,5.121C148.274,68.67,143.06,63.709,143.06,56.943z
			"/>
		<path fill="#00293E" d="M167.82,45.541h6.283v8.488h8.066v-8.488h6.283v22.674h-6.283V59.6h-8.066v8.615h-6.283V45.541z"/>
		<path fill="#00293E" d="M193.315,45.541h6.283v22.674h-6.283V45.541z"/>
		<path fill="#00293E" d="M204.396,45.541h5.863l9.328,11.984V45.541h6.219v22.674h-5.474l-9.719-12.436v12.436h-6.217V45.541z"/>
		<path fill="#00293E" d="M230.616,45.541h18.235v5.312h-12.016v3.463h10.884v4.957h-10.884v3.598h12.179v5.344h-18.398V45.541z"/>
	</g>
	<g>
		<path fill="#00293E" d="M20.184,18.93h34.832l0.947-1.633L51.52,9.602C49.403,9.211,47.226,9,44.998,9
			C35.375,9,26.644,12.781,20.184,18.93z"/>
		<path fill="#00293E" d="M69.809,71.068l-34.833-0.004l-0.943,1.641l4.442,7.689C40.59,80.785,42.767,81,44.995,81
			C54.616,81,63.351,77.219,69.809,71.068z"/>
		<path fill="#00293E" d="M55.169,10.479l17.415,30.166h1.889l4.443-7.695c-0.724-2.025-1.626-4.018-2.743-5.947
			C71.364,18.67,63.722,12.994,55.169,10.479z"/>
		<path fill="#00293E" d="M34.828,79.523L17.412,49.355h-1.889l-4.443,7.693c0.724,2.027,1.628,4.02,2.741,5.949
			C18.631,71.33,26.274,77.002,34.828,79.523z"/>
		<path fill="#00293E" d="M79.98,36.547L62.563,66.715l0.944,1.633h8.886c1.392-1.635,2.667-3.416,3.781-5.346
			C80.984,54.668,82.075,45.215,79.98,36.547z"/>
		<path fill="#00293E" d="M10.015,53.453l17.417-30.164l-0.945-1.635h-8.885c-1.394,1.635-2.667,3.418-3.782,5.348
			C9.011,35.332,7.919,44.787,10.015,53.453z"/>
		<path fill="#144260" d="M62.522,49.053l-1.186-0.84c-0.652-0.457-1.175-1.477-1.175-2.268l-0.003-1.893
			c0-0.793,0.525-1.809,1.178-2.268l1.186-0.834l1.02-0.723c-0.447-1.771-1.142-3.441-2.063-4.973l-1.239,0.211l-1.419,0.248
			c-0.781,0.141-1.878-0.207-2.438-0.764l-1.339-1.34c-0.56-0.562-0.901-1.66-0.765-2.428l0.245-1.43l0.214-1.242
			c-1.531-0.914-3.204-1.609-4.976-2.064l-0.716,1.035l-0.843,1.186c-0.449,0.648-1.472,1.17-2.264,1.172l-1.888,0.002
			c-0.794-0.004-1.817-0.525-2.264-1.174l-0.828-1.186l-0.729-1.035c-1.773,0.457-3.438,1.15-4.978,2.07l0.217,1.236l0.247,1.43
			c0.135,0.779-0.212,1.871-0.763,2.428l-1.336,1.346c-0.572,0.551-1.665,0.904-2.438,0.762l-1.421-0.252l-1.239-0.207
			c-0.919,1.535-1.62,3.199-2.069,4.969l1.027,0.729l1.188,0.832c0.644,0.455,1.173,1.477,1.173,2.264v1.896
			c0,0.783-0.527,1.807-1.177,2.264l-1.185,0.84l-1.03,0.715c0.456,1.771,1.159,3.439,2.07,4.984l1.239-0.23l1.423-0.236
			c0.773-0.137,1.868,0.207,2.44,0.76l1.337,1.348c0.561,0.551,0.9,1.654,0.767,2.434l-0.248,1.416l-0.219,1.246
			c1.533,0.908,3.207,1.609,4.974,2.062l0.724-1.029l0.833-1.186c0.454-0.65,1.475-1.18,2.268-1.178l1.892-0.002
			c0.79,0.002,1.807,0.529,2.267,1.172l0.829,1.193l0.72,1.029c1.771-0.453,3.449-1.154,4.984-2.07l-0.22-1.238l-0.245-1.42
			c-0.138-0.779,0.203-1.879,0.762-2.443l1.347-1.334c0.557-0.557,1.654-0.9,2.427-0.768l1.422,0.242l1.243,0.221
			c0.913-1.533,1.61-3.209,2.059-4.967L62.522,49.053z M44.981,52.094c-3.938-0.004-7.136-3.205-7.136-7.137
			c0-3.938,3.198-7.148,7.136-7.148c3.931,0,7.14,3.211,7.14,7.148C52.121,48.889,48.914,52.09,44.981,52.094z"/>
	</g>
</g>
<polyline fill="none" stroke="#BE1E2D" stroke-miterlimit="10" points="188.916,-260.906 276.553,-260.906 276.553,339.245 
	-18,339.245 -18,-260.906 69.523,-260.906 "/>
<rect y="0.031" fill="none" width="258.553" height="89.936"/>
</svg>
