<?xml version="1.0" encoding="utf-8"?>
<!-- Generator: Adobe Illustrator 17.0.0, SVG Export Plug-In . SVG Version: 6.00 Build 0)  -->
<!DOCTYPE svg PUBLIC "-//W3C//DTD SVG 1.1//EN" "http://www.w3.org/Graphics/SVG/1.1/DTD/svg11.dtd">
<svg version="1.1" id="Layer_1" xmlns="http://www.w3.org/2000/svg" xmlns:xlink="http://www.w3.org/1999/xlink" x="0px" y="0px"
	 width="453.177px" height="90px" viewBox="0 0 453.177 90" enable-background="new 0 0 453.177 90" xml:space="preserve">
<g>
	<g>
		<rect x="89.567" y="60.608" fill="#CCCCCC" width="354.61" height="3.343"/>
		<g>
			<path fill="#CCCCCC" d="M88.818,51.553l4.516-5.394c2.928,2.3,6.105,3.513,9.492,3.513c2.217,0,3.388-0.753,3.388-2.007v-0.084
				c0-1.255-0.961-1.882-4.976-2.844c-6.23-1.422-11.041-3.178-11.041-9.158v-0.084c0-5.436,4.307-9.367,11.333-9.367
				c4.977,0,8.866,1.338,12.043,3.89l-4.057,5.729c-2.676-1.923-5.603-2.885-8.195-2.885c-1.966,0-2.928,0.794-2.928,1.882v0.084
				c0,1.338,1.004,1.924,5.103,2.843c6.691,1.465,10.872,3.638,10.872,9.117v0.084c0,5.979-4.725,9.533-11.834,9.533
				C97.348,56.404,92.456,54.773,88.818,51.553z"/>
			<path fill="#CCCCCC" d="M119.178,26.631h8.113v29.272h-8.113V26.631z"/>
			<path fill="#CCCCCC" d="M132.07,41.351v-0.084c0-8.53,6.691-15.222,15.724-15.222c5.143,0,8.781,1.547,11.876,4.224l-4.768,5.771
				c-2.091-1.756-4.14-2.76-7.067-2.76c-4.223,0-7.485,3.513-7.485,7.987v0.084c0,4.768,3.303,8.154,7.945,8.154
				c2.007,0,3.513-0.418,4.684-1.214v-3.554h-5.729v-5.938h13.423V51.93c-3.094,2.594-7.36,4.559-12.712,4.559
				C138.845,56.488,132.07,50.215,132.07,41.351z"/>
			<path fill="#CCCCCC" d="M166.173,26.631h8.113v10.955h10.413V26.631h8.113v29.272h-8.113V44.779h-10.413v11.123h-8.113V26.631z"
				/>
			<path fill="#CCCCCC" d="M205.078,33.739h-8.741v-7.108h25.635v7.108h-8.782v22.163h-8.113V33.739z"/>
			<path fill="#CCCCCC" d="M237.942,26.631h8.573l6.983,11.332l6.984-11.332h8.573v29.272h-8.071V39.092l-7.485,11.458h-0.168
				l-7.443-11.415v16.768h-7.945V26.631z"/>
			<path fill="#CCCCCC" d="M284.679,26.422h7.82l12.461,29.481h-8.698l-2.091-5.269h-11.332l-2.091,5.269h-8.489L284.679,26.422z
				 M291.787,44.319l-3.262-8.28l-3.303,8.28H291.787z"/>
			<path fill="#CCCCCC" d="M305.497,41.351v-0.084c0-8.53,6.523-15.222,15.389-15.222c5.98,0,9.827,2.509,12.42,6.063l-6.105,4.725
				c-1.672-2.049-3.596-3.428-6.398-3.428c-4.098,0-6.983,3.512-6.983,7.777v0.084c0,4.391,2.885,7.82,6.983,7.82
				c3.053,0,4.851-1.422,6.607-3.555l6.105,4.349c-2.76,3.806-6.482,6.607-12.921,6.607
				C312.228,56.488,305.497,50.09,305.497,41.351z"/>
			<path fill="#CCCCCC" d="M337.379,26.631h8.113v10.955h10.413V26.631h8.112v29.272h-8.112V44.779h-10.413v11.123h-8.113V26.631z"
				/>
			<path fill="#CCCCCC" d="M370.219,26.631h8.113v29.272h-8.113V26.631z"/>
			<path fill="#CCCCCC" d="M384.454,26.631h7.568l12.044,15.473V26.631h8.029v29.272h-7.067l-12.545-16.058v16.058h-8.029V26.631z"
				/>
			<path fill="#CCCCCC" d="M418.23,26.631h23.543v6.858H426.26v4.474h14.051v6.398H426.26v4.643h15.724v6.899H418.23V26.631z"/>
		</g>
	</g>
	<g>
		<path fill="#CCCCCC" d="M20.184,18.928h34.833l0.947-1.633L51.52,9.6C49.404,9.21,47.226,9,44.998,9
			C35.375,9,26.644,12.78,20.184,18.928z"/>
		<path fill="#CCCCCC" d="M69.81,71.067l-34.834-0.003l-0.942,1.64l4.441,7.69C40.59,80.784,42.768,81,44.996,81
			C54.616,81,63.352,77.218,69.81,71.067z"/>
		<path fill="#CCCCCC" d="M55.169,10.478l17.415,30.166h1.89l4.443-7.693c-0.724-2.027-1.627-4.019-2.743-5.948
			C71.364,18.668,63.722,12.994,55.169,10.478z"/>
		<path fill="#CCCCCC" d="M34.829,79.522L17.412,49.355h-1.888l-4.443,7.693c0.724,2.026,1.627,4.02,2.74,5.949
			C18.631,71.33,26.274,77.001,34.829,79.522z"/>
		<path fill="#CCCCCC" d="M79.981,36.547L62.563,66.715l0.945,1.633h8.886c1.392-1.635,2.667-3.418,3.781-5.345
			C80.984,54.668,82.076,45.214,79.981,36.547z"/>
		<path fill="#CCCCCC" d="M10.016,53.453L27.432,23.29l-0.945-1.638h-8.885c-1.394,1.638-2.667,3.419-3.782,5.35
			C9.011,35.331,7.92,44.787,10.016,53.453z"/>
		<path fill="#CCCCCC" d="M62.523,49.052l-1.187-0.838c-0.652-0.458-1.175-1.479-1.175-2.269l-0.002-1.895
			c0-0.791,0.525-1.807,1.177-2.269l1.187-0.831l1.019-0.724c-0.447-1.771-1.141-3.44-2.063-4.973l-1.239,0.214l-1.419,0.246
			c-0.782,0.14-1.878-0.208-2.438-0.765l-1.338-1.34c-0.559-0.562-0.9-1.66-0.765-2.429l0.246-1.428l0.213-1.243
			c-1.531-0.912-3.204-1.609-4.976-2.063l-0.715,1.034l-0.844,1.185c-0.448,0.648-1.472,1.169-2.264,1.172l-1.888,0.002
			c-0.794-0.005-1.817-0.526-2.264-1.174l-0.828-1.185l-0.729-1.034c-1.773,0.456-3.438,1.151-4.977,2.068l0.218,1.238l0.246,1.428
			c0.135,0.782-0.212,1.873-0.763,2.429l-1.337,1.346c-0.572,0.551-1.665,0.904-2.437,0.761l-1.421-0.248l-1.239-0.212
			c-0.92,1.536-1.621,3.201-2.069,4.971l1.027,0.729l1.188,0.834c0.643,0.454,1.174,1.476,1.174,2.261v1.898
			c0,0.784-0.528,1.807-1.178,2.265l-1.184,0.838l-1.029,0.716c0.456,1.772,1.159,3.439,2.069,4.985l1.239-0.23l1.423-0.238
			c0.772-0.136,1.868,0.209,2.44,0.76l1.336,1.348c0.562,0.551,0.9,1.654,0.767,2.434l-0.248,1.417l-0.219,1.246
			c1.534,0.908,3.207,1.609,4.974,2.062l0.724-1.031l0.833-1.184c0.453-0.651,1.474-1.181,2.268-1.179l1.892-0.002
			c0.79,0.002,1.807,0.529,2.266,1.174l0.831,1.19l0.72,1.031c1.771-0.453,3.449-1.154,4.984-2.07l-0.221-1.238l-0.246-1.42
			c-0.138-0.78,0.203-1.88,0.763-2.443l1.347-1.335c0.557-0.555,1.654-0.899,2.427-0.768l1.421,0.243l1.243,0.22
			c0.914-1.532,1.61-3.208,2.06-4.968L62.523,49.052z M44.981,52.092c-3.938-0.002-7.136-3.204-7.136-7.136
			c0-3.938,3.199-7.147,7.136-7.147c3.931,0,7.141,3.21,7.141,7.147C52.122,48.888,48.915,52.09,44.981,52.092z"/>
	</g>
</g>
<rect x="0" y="0" fill="none" width="453.177" height="89.936"/>
</svg>
