<?xml version="1.0" encoding="UTF-8" standalone="no"?>
<!-- Generator: Adobe Illustrator 16.0.0, SVG Export Plug-In . SVG Version: 6.00 Build 0)  -->

<svg
   xmlns:dc="http://purl.org/dc/elements/1.1/"
   xmlns:cc="http://creativecommons.org/ns#"
   xmlns:rdf="http://www.w3.org/1999/02/22-rdf-syntax-ns#"
   xmlns:svg="http://www.w3.org/2000/svg"
   xmlns="http://www.w3.org/2000/svg"
   xmlns:sodipodi="http://sodipodi.sourceforge.net/DTD/sodipodi-0.dtd"
   xmlns:inkscape="http://www.inkscape.org/namespaces/inkscape"
   version="1.1"
   id="Layer_1"
   x="0px"
   y="0px"
   width="589"
   height="90"
   viewBox="0 0 589 90"
   enable-background="new 0 0 453.177 90"
   xml:space="preserve"
   inkscape:version="0.48.3.1 r9886"
   sodipodi:docname="logo.svg"><metadata
   id="metadata57"><rdf:RDF><cc:Work
       rdf:about=""><dc:format>image/svg+xml</dc:format><dc:type
         rdf:resource="http://purl.org/dc/dcmitype/StillImage" /></cc:Work></rdf:RDF></metadata><defs
   id="defs55" /><sodipodi:namedview
   pagecolor="#ffffff"
   bordercolor="#666666"
   borderopacity="1"
   objecttolerance="10"
   gridtolerance="10"
   guidetolerance="10"
   inkscape:pageopacity="0"
   inkscape:pageshadow="2"
   inkscape:window-width="1367"
   inkscape:window-height="780"
   id="namedview53"
   showgrid="false"
   inkscape:zoom="0.31554999"
   inkscape:cx="75.341996"
   inkscape:cy="-329.45076"
   inkscape:window-x="481"
   inkscape:window-y="191"
   inkscape:window-maximized="0"
   inkscape:current-layer="g3" />
<g
   id="g3"
   style="fill:#9b9b9b;fill-opacity:1">
	<g
   id="g5"
   style="fill:#9b9b9b;fill-opacity:1"
   transform="matrix(1.3790124,0,0,1.3790124,-33.663126,-17.054181)">
		<rect
   x="89.567001"
   y="60.609001"
   width="354.60999"
   height="3.3429999"
   id="rect7"
   style="fill:#9b9b9b;fill-opacity:1" />
		<g
   id="g9"
   style="fill:#9b9b9b;fill-opacity:1">
			<path
   d="m 88.818,51.554 4.516,-5.394 c 2.928,2.3 6.105,3.513 9.492,3.513 2.217,0 3.388,-0.753 3.388,-2.007 v -0.084 c 0,-1.255 -0.961,-1.882 -4.976,-2.844 C 95.008,43.316 90.197,41.56 90.197,35.58 v -0.084 c 0,-5.436 4.307,-9.367 11.333,-9.367 4.977,0 8.866,1.338 12.043,3.89 l -4.057,5.729 c -2.676,-1.923 -5.603,-2.885 -8.195,-2.885 -1.966,0 -2.928,0.794 -2.928,1.882 v 0.084 c 0,1.338 1.004,1.924 5.103,2.843 6.691,1.465 10.872,3.638 10.872,9.117 v 0.084 c 0,5.979 -4.725,9.533 -11.834,9.533 -5.186,-10e-4 -10.078,-1.632 -13.716,-4.852 z"
   id="path11"
   style="fill:#9b9b9b;fill-opacity:1"
   inkscape:connector-curvature="0" />
			<path
   d="m 119.178,26.632 h 8.113 v 29.271 h -8.113 V 26.632 z"
   id="path13"
   style="fill:#9b9b9b;fill-opacity:1"
   inkscape:connector-curvature="0" />
			<path
   d="m 132.07,41.352 v -0.084 c 0,-8.53 6.691,-15.222 15.724,-15.222 5.143,0 8.781,1.547 11.876,4.224 l -4.768,5.771 c -2.091,-1.756 -4.14,-2.76 -7.067,-2.76 -4.223,0 -7.485,3.513 -7.485,7.987 v 0.084 c 0,4.768 3.303,8.154 7.945,8.154 2.007,0 3.513,-0.418 4.684,-1.214 V 44.738 H 147.25 V 38.8 h 13.423 v 13.131 c -3.094,2.594 -7.36,4.559 -12.712,4.559 -9.116,-0.001 -15.891,-6.274 -15.891,-15.138 z"
   id="path15"
   style="fill:#9b9b9b;fill-opacity:1"
   inkscape:connector-curvature="0" />
			<path
   d="m 166.173,26.632 h 8.113 v 10.955 h 10.413 V 26.632 h 8.113 v 29.271 h -8.113 V 44.78 h -10.413 v 11.123 h -8.113 V 26.632 z"
   id="path17"
   style="fill:#9b9b9b;fill-opacity:1"
   inkscape:connector-curvature="0" />
			<path
   d="m 205.078,33.74 h -8.741 v -7.108 h 25.635 v 7.108 h -8.782 v 22.163 h -8.113 V 33.74 z"
   id="path19"
   style="fill:#9b9b9b;fill-opacity:1"
   inkscape:connector-curvature="0" />
			<path
   d="m 237.942,26.632 h 8.573 l 6.983,11.332 6.984,-11.332 h 8.573 v 29.271 h -8.071 v -16.81 l -7.485,11.458 h -0.167 l -7.443,-11.415 v 16.768 h -7.945 V 26.632 z"
   id="path21"
   style="fill:#9b9b9b;fill-opacity:1"
   inkscape:connector-curvature="0" />
			<path
   d="m 284.679,26.423 h 7.82 l 12.461,29.48 h -8.698 l -2.091,-5.269 h -11.332 l -2.091,5.269 h -8.489 l 12.42,-29.48 z m 7.108,17.897 -3.262,-8.28 -3.303,8.28 h 6.565 z"
   id="path23"
   style="fill:#9b9b9b;fill-opacity:1"
   inkscape:connector-curvature="0" />
			<path
   d="m 305.497,41.352 v -0.084 c 0,-8.53 6.523,-15.222 15.389,-15.222 5.98,0 9.827,2.509 12.42,6.063 l -6.105,4.725 c -1.672,-2.049 -3.596,-3.428 -6.398,-3.428 -4.098,0 -6.983,3.512 -6.983,7.777 v 0.084 c 0,4.391 2.885,7.82 6.983,7.82 3.053,0 4.851,-1.422 6.607,-3.555 l 6.105,4.349 c -2.76,3.806 -6.482,6.607 -12.921,6.607 -8.365,10e-4 -15.097,-6.397 -15.097,-15.136 z"
   id="path25"
   style="fill:#9b9b9b;fill-opacity:1"
   inkscape:connector-curvature="0" />
			<path
   d="m 337.379,26.632 h 8.113 v 10.955 h 10.413 V 26.632 h 8.112 v 29.271 h -8.112 V 44.78 h -10.413 v 11.123 h -8.113 V 26.632 z"
   id="path27"
   style="fill:#9b9b9b;fill-opacity:1"
   inkscape:connector-curvature="0" />
			<path
   d="m 370.219,26.632 h 8.113 v 29.271 h -8.113 V 26.632 z"
   id="path29"
   style="fill:#9b9b9b;fill-opacity:1"
   inkscape:connector-curvature="0" />
			<path
   d="m 384.454,26.632 h 7.568 l 12.044,15.473 V 26.632 h 8.029 v 29.271 h -7.067 L 392.483,39.845 v 16.058 h -8.029 V 26.632 z"
   id="path31"
   style="fill:#9b9b9b;fill-opacity:1"
   inkscape:connector-curvature="0" />
			<path
   d="m 418.23,26.632 h 23.543 V 33.49 H 426.26 v 4.474 h 14.051 v 6.397 H 426.26 v 4.643 h 15.724 v 6.899 H 418.23 V 26.632 z"
   id="path33"
   style="fill:#9b9b9b;fill-opacity:1"
   inkscape:connector-curvature="0" />
		</g>
	</g>
	<g
   id="g35"
   style="fill:#9b9b9b;fill-opacity:1"
   transform="translate(0,-5.0159297e-4)">
		<path
   d="M 20.184,18.929 H 55.017 L 55.964,17.296 51.52,9.601 c -2.116,-0.39 -4.294,-0.6 -6.522,-0.6 -9.623,0 -18.354,3.78 -24.814,9.928 z"
   id="path37"
   style="fill:#9b9b9b;fill-opacity:1"
   inkscape:connector-curvature="0" />
		<path
   d="m 69.81,71.068 -34.834,-0.003 -0.942,1.64 4.441,7.69 c 2.116,0.39 4.293,0.605 6.522,0.605 9.619,0.001 18.355,-3.781 24.813,-9.932 z"
   id="path39"
   style="fill:#9b9b9b;fill-opacity:1"
   inkscape:connector-curvature="0" />
		<path
   d="m 55.169,10.479 17.415,30.166 h 1.89 l 4.443,-7.693 C 78.193,30.925 77.29,28.932 76.174,27.004 71.364,18.669 63.722,12.995 55.169,10.479 z"
   id="path41"
   style="fill:#9b9b9b;fill-opacity:1"
   inkscape:connector-curvature="0" />
		<path
   d="M 34.829,79.523 17.412,49.356 h -1.888 l -4.443,7.693 c 0.724,2.026 1.627,4.02 2.74,5.949 4.81,8.333 12.453,14.004 21.008,16.525 z"
   id="path43"
   style="fill:#9b9b9b;fill-opacity:1"
   inkscape:connector-curvature="0" />
		<path
   d="m 79.981,36.548 -17.418,30.168 0.945,1.633 h 8.886 c 1.392,-1.635 2.667,-3.418 3.781,-5.345 4.809,-8.335 5.901,-17.789 3.806,-26.456 z"
   id="path45"
   style="fill:#9b9b9b;fill-opacity:1"
   inkscape:connector-curvature="0" />
		<path
   d="M 10.016,53.454 27.433,23.291 26.488,21.653 h -8.885 c -1.394,1.638 -2.667,3.419 -3.782,5.35 -4.81,8.329 -5.901,17.785 -3.805,26.451 z"
   id="path47"
   style="fill:#9b9b9b;fill-opacity:1"
   inkscape:connector-curvature="0" />
		<path
   d="m 62.523,49.053 -1.187,-0.838 c -0.652,-0.458 -1.175,-1.479 -1.175,-2.269 l -0.002,-1.895 c 0,-0.791 0.525,-1.807 1.177,-2.269 l 1.187,-0.831 1.019,-0.724 c -0.447,-1.771 -1.141,-3.44 -2.063,-4.973 l -1.239,0.216 -1.419,0.246 c -0.782,0.14 -1.878,-0.208 -2.438,-0.765 l -1.338,-1.34 c -0.559,-0.562 -0.9,-1.66 -0.765,-2.429 l 0.246,-1.428 0.213,-1.243 c -1.531,-0.912 -3.204,-1.609 -4.976,-2.063 l -0.715,1.034 -0.844,1.186 c -0.448,0.647 -1.472,1.169 -2.264,1.172 l -1.888,0.002 C 43.258,29.837 42.235,29.316 41.788,28.668 L 40.96,27.482 40.231,26.448 c -1.773,0.456 -3.438,1.151 -4.978,2.068 l 0.218,1.238 0.246,1.428 c 0.135,0.782 -0.212,1.873 -0.763,2.429 l -1.337,1.346 c -0.572,0.551 -1.665,0.904 -2.438,0.761 L 29.76,35.47 28.521,35.258 c -0.919,1.536 -1.621,3.201 -2.069,4.971 l 1.027,0.729 1.188,0.834 c 0.644,0.454 1.174,1.476 1.174,2.261 v 1.898 c 0,0.784 -0.528,1.807 -1.178,2.265 l -1.184,0.838 -1.029,0.716 c 0.456,1.772 1.159,3.439 2.069,4.985 l 1.239,-0.23 1.423,-0.238 c 0.772,-0.136 1.868,0.209 2.44,0.76 l 1.336,1.348 c 0.562,0.551 0.9,1.654 0.767,2.434 l -0.248,1.417 -0.219,1.246 c 1.534,0.908 3.207,1.609 4.974,2.062 l 0.724,-1.031 0.833,-1.184 c 0.453,-0.651 1.474,-1.181 2.268,-1.179 l 1.892,-0.002 c 0.79,0.002 1.807,0.529 2.266,1.174 l 0.831,1.19 0.72,1.031 c 1.771,-0.453 3.449,-1.154 4.984,-2.07 l -0.221,-1.238 -0.246,-1.42 c -0.138,-0.78 0.203,-1.88 0.763,-2.443 l 1.347,-1.335 c 0.557,-0.555 1.654,-0.899 2.427,-0.768 l 1.421,0.243 1.243,0.22 c 0.914,-1.532 1.61,-3.208 2.06,-4.968 l -1.02,-0.721 z m -17.542,3.04 c -3.938,-0.002 -7.136,-3.204 -7.136,-7.136 0,-3.938 3.199,-7.147 7.136,-7.147 3.931,0 7.141,3.21 7.141,7.147 0,3.932 -3.207,7.134 -7.141,7.136 z"
   id="path49"
   style="fill:#9b9b9b;fill-opacity:1"
   inkscape:connector-curvature="0" />
	</g>
</g>
<rect
   y="0.032000002"
   width="453.177"
   height="89.935997"
   id="rect51"
   x="0"
   style="fill:none" />
</svg>